<?xml version="1.0" standalone="no"?>
<!DOCTYPE svg PUBLIC "-//W3C//DTD SVG 20010904//EN"
 "http://www.w3.org/TR/2001/REC-SVG-20010904/DTD/svg10.dtd">
<svg version="1.0" xmlns="http://www.w3.org/2000/svg"
 width="1126.000000pt" height="1306.000000pt" viewBox="0 0 1126.000000 1306.000000"
 preserveAspectRatio="xMidYMid meet">

<g transform="translate(0.000000,1306.000000) scale(0.100000,-0.100000)"
fill="#000000" stroke="none">
<path d="M0 6530 l0 -6530 5630 0 5630 0 0 6530 0 6530 -5630 0 -5630 0 0
-6530z m6194 4811 c9 -16 22 -31 29 -34 8 -3 17 -27 21 -54 4 -26 18 -72 32
-100 17 -34 24 -65 22 -89 -3 -35 -6 -39 -50 -53 -26 -9 -49 -19 -53 -22 -6
-6 25 -38 95 -101 32 -29 39 -72 20 -123 -10 -26 -11 -27 -83 -20 -39 3 -107
2 -150 -4 -91 -10 -110 -24 -152 -106 -29 -59 -29 -41 -9 -283 5 -64 3 -91 -9
-120 -9 -20 -18 -49 -21 -63 -7 -33 21 -129 37 -129 15 0 74 111 87 165 5 22
15 49 22 58 12 16 17 17 48 4 19 -8 57 -22 84 -32 59 -21 81 -62 65 -116 -5
-19 -14 -113 -19 -209 -6 -96 -13 -191 -17 -210 -5 -27 -28 -56 -104 -131
-169 -166 -267 -200 -319 -111 -18 29 -19 37 -7 43 7 5 24 16 36 27 l23 18
-32 48 c-35 51 -35 51 -22 176 7 64 16 100 40 145 17 33 34 76 37 96 6 31 3
39 -16 53 -13 9 -38 16 -56 16 -26 0 -37 -7 -55 -35 -26 -40 -39 -40 -53 -1
-12 34 6 101 39 150 31 46 45 133 48 298 3 125 3 127 -23 155 -15 15 -31 37
-37 49 -18 34 -17 117 1 150 19 35 44 139 62 255 7 47 22 104 33 125 l20 39
128 3 c177 4 184 5 184 47 0 22 6 38 18 44 28 17 41 13 56 -18z m-575 -3107
c-24 -73 -37 -97 -49 -89 -13 8 -20 65 -14 107 6 33 13 43 38 53 17 8 35 10
39 6 4 -4 -2 -39 -14 -77z m-256 -173 c19 -22 41 -50 47 -63 7 -12 22 -33 33
-46 13 -14 23 -43 28 -82 4 -36 15 -69 27 -85 12 -15 28 -52 37 -83 9 -31 25
-75 35 -97 10 -22 21 -56 25 -75 15 -77 73 -205 111 -250 12 -14 24 -36 26
-50 2 -15 18 -34 45 -52 31 -21 46 -40 58 -76 9 -26 25 -66 35 -89 13 -28 22
-86 30 -185 12 -156 41 -268 83 -318 22 -25 25 -41 30 -157 3 -70 11 -146 19
-168 12 -38 15 -40 53 -40 40 0 40 0 61 60 16 46 27 61 45 65 17 4 25 14 27
33 4 29 22 38 22 10 -1 -10 -7 -36 -15 -58 -8 -22 -15 -61 -15 -87 0 -43 2
-47 31 -57 45 -16 54 -14 87 14 17 14 33 25 36 25 13 0 5 -87 -10 -108 -9 -13
-14 -37 -12 -60 3 -35 5 -37 33 -34 34 4 95 65 120 122 8 19 24 52 35 72 14
26 20 56 20 105 0 68 25 177 60 263 11 25 22 59 25 77 7 37 -9 106 -29 123
-12 9 -18 5 -31 -21 -9 -17 -32 -46 -50 -64 -27 -28 -34 -44 -40 -94 -8 -71
-21 -86 -31 -36 -8 45 3 115 21 135 7 8 21 58 30 110 9 52 19 98 21 102 3 5
18 -1 34 -12 35 -25 39 -25 71 3 31 25 49 60 74 137 21 67 56 106 101 114 45
9 69 46 88 139 9 42 24 92 33 112 17 36 78 81 88 65 16 -26 26 -209 23 -432
-3 -251 -3 -253 -29 -303 -15 -27 -30 -66 -34 -85 -4 -19 -15 -44 -25 -55 -12
-13 -22 -47 -28 -96 -5 -41 -19 -94 -31 -117 -15 -30 -25 -75 -32 -155 -9
-108 -54 -297 -98 -412 -10 -27 -24 -81 -30 -120 -6 -38 -22 -97 -36 -130 -13
-33 -25 -66 -25 -73 0 -23 -42 -95 -106 -186 -35 -49 -64 -97 -64 -106 0 -10
-11 -33 -23 -52 -13 -19 -26 -50 -30 -70 -8 -50 -54 -165 -89 -219 -51 -83
-53 -210 -4 -307 7 -15 19 -52 25 -82 7 -30 24 -81 38 -114 14 -32 29 -90 34
-130 5 -39 16 -102 25 -140 14 -56 15 -92 9 -190 -4 -66 -9 -152 -11 -191 -2
-46 -13 -98 -33 -153 -36 -95 -40 -162 -18 -267 8 -38 18 -92 21 -120 7 -54
-16 -252 -34 -301 -7 -16 -20 -73 -30 -126 -11 -54 -24 -107 -31 -120 -6 -12
-20 -59 -30 -105 -11 -51 -28 -96 -43 -116 -13 -17 -28 -45 -32 -62 -14 -59
-114 -179 -165 -197 -14 -5 -50 -38 -78 -73 -85 -105 -141 -127 -172 -69 -18
35 -52 47 -99 34 -60 -16 -109 5 -129 56 -27 70 -38 77 -103 70 -38 -4 -67 -1
-90 9 -48 20 -129 91 -161 140 -16 24 -52 62 -81 83 -36 28 -62 58 -81 96 -18
36 -51 76 -90 110 -45 40 -63 64 -71 93 -7 31 -17 42 -58 65 -55 29 -73 57
-127 193 -17 44 -46 109 -64 145 -18 36 -38 82 -45 103 -6 20 -19 45 -28 54
-10 9 -15 28 -13 48 4 50 -15 107 -53 156 -40 52 -53 88 -62 172 -6 54 -12 67
-43 97 -20 20 -44 46 -54 58 -16 21 -25 23 -109 21 -90 -2 -92 -1 -115 27 -20
26 -23 40 -23 121 0 79 -5 105 -31 175 -19 52 -34 116 -40 170 -4 48 -18 123
-29 168 -35 135 -40 177 -29 207 12 33 -13 177 -41 233 -9 19 -15 41 -13 48 7
19 58 14 78 -8 24 -27 51 -25 59 3 8 31 -3 155 -19 202 -27 80 -38 248 -24
356 12 96 11 101 -10 144 -17 34 -22 62 -22 122 0 43 2 85 5 93 3 8 14 66 25
128 11 63 22 116 25 120 4 3 14 -2 24 -11 15 -15 17 -35 14 -140 -2 -102 1
-133 18 -181 11 -33 20 -84 20 -115 1 -31 7 -83 15 -116 8 -33 15 -88 15 -123
0 -75 14 -110 36 -91 9 8 14 32 14 75 0 54 5 73 38 131 l37 68 -5 135 c-2 74
-5 227 -5 340 0 181 2 209 18 233 9 15 23 27 30 27 7 0 51 18 96 40 55 27 104
43 143 47 65 7 83 19 41 29 -15 3 -56 17 -90 30 -72 28 -92 29 -130 8 -22 -12
-34 -14 -55 -6 -43 18 -46 95 -9 337 17 110 37 223 45 250 8 28 20 68 25 90 6
22 28 60 50 85 33 38 42 43 57 34 35 -21 55 -61 79 -155 14 -52 33 -115 43
-140 32 -73 45 -284 21 -342 -11 -25 -9 -31 15 -56 22 -23 26 -36 26 -89 0
-34 3 -62 8 -62 4 0 39 -7 78 -15 60 -12 78 -21 112 -55 32 -33 47 -40 78 -40
32 0 44 7 83 47 29 31 46 43 49 34 3 -8 20 -31 39 -51 31 -36 51 -87 73 -190
10 -52 61 -127 94 -141 32 -14 29 -17 82 66 32 48 28 102 -12 171 -18 31 -28
65 -32 110 -5 61 -7 67 -33 76 -49 17 -98 98 -113 186 -8 43 -26 102 -42 131
-32 62 -40 129 -25 216 9 58 8 63 -25 135 -20 41 -46 89 -60 107 -17 23 -31
63 -44 130 -10 54 -26 125 -35 158 -11 41 -14 80 -10 125 10 103 14 116 42
129 27 13 25 14 93 -49 24 -23 28 -35 34 -110 3 -47 9 -116 12 -155 11 -113
23 -49 23 126 1 100 7 184 17 232 14 72 14 79 -6 167 l-22 91 27 39 c23 33 34
40 74 45 25 4 51 8 56 10 19 7 23 5 58 -34z m305 4 c39 -24 43 -34 43 -119 1
-98 -19 -118 -41 -40 -7 25 -19 48 -27 51 -24 9 -34 42 -27 89 3 25 9 43 13
42 3 -2 21 -12 39 -23z m296 -465 c34 -12 43 -53 50 -227 4 -98 2 -151 -6
-168 -13 -29 -19 -30 -57 -10 -21 11 -37 34 -59 87 -54 130 -54 227 -1 291 33
40 36 41 73 27z m-3059 -310 c95 -15 97 -15 122 -52 19 -29 20 -40 13 -87 -7
-42 -6 -58 5 -75 19 -26 19 -60 1 -75 -8 -6 -23 -33 -35 -60 -14 -34 -32 -55
-58 -71 -20 -12 -33 -25 -27 -28 36 -26 77 -100 100 -183 27 -92 27 -92 9
-143 -28 -81 -44 -106 -65 -106 -11 0 -31 -17 -48 -42 -17 -24 -44 -59 -60
-78 -26 -29 -32 -47 -38 -102 l-7 -68 -38 0 c-34 0 -41 4 -57 35 -15 31 -16
46 -8 109 9 71 8 76 -23 138 -35 72 -36 92 -19 228 10 88 10 100 -10 160 -26
82 -32 113 -37 225 -3 50 -8 109 -11 133 -6 42 -5 45 41 88 49 45 122 77 160
69 11 -2 52 -9 90 -15z m3531 -1063 c-4 -24 -13 -52 -20 -62 -33 -45 -49 34
-21 102 14 34 17 35 32 21 12 -12 14 -27 9 -61z"/>
<path d="M4235 5088 c-8 -30 0 -287 9 -295 12 -13 15 6 18 149 2 104 0 150 -9
159 -9 9 -13 6 -18 -13z"/>
</g>
</svg>
