<!DOCTYPE svg PUBLIC "-//W3C//DTD SVG 20010904//EN" "http://www.w3.org/TR/2001/REC-SVG-20010904/DTD/svg10.dtd">
<svg version="1.0" xmlns="http://www.w3.org/2000/svg" width="500px" height="500px" viewBox="0 0 5000 5000" preserveAspectRatio="xMidYMid meet">
<g id="layer101" fill="#31322a" stroke="none">
<path d="M1455 4933 c-129 -156 -289 -401 -381 -583 -161 -319 -301 -789 -359 -1205 -9 -66 -20 -149 -25 -185 -44 -306 -37 -1240 11 -1559 32 -214 112 -620 138 -698 16 -48 39 -122 51 -163 38 -127 181 -375 287 -499 l35 -41 1318 0 1318 0 6 26 c4 14 18 43 32 65 13 22 33 62 44 90 35 87 57 123 88 142 22 12 37 34 52 75 20 53 22 70 18 231 l-5 173 39 49 c47 59 54 78 79 198 30 143 49 279 49 354 0 58 -5 79 -35 140 -31 64 -35 82 -36 157 -1 101 4 117 69 202 71 95 76 114 69 302 -3 89 -11 325 -17 526 -29 990 -27 957 -54 1070 -27 116 -81 267 -146 405 -147 314 -334 640 -429 748 l-43 47 -1058 0 -1058 0 -57 -67z"/>
</g>
<g id="layer102" fill="#493c2f" stroke="none">
<path d="M1468 4948 c-179 -212 -374 -531 -479 -785 -70 -169 -162 -453 -183 -563 -2 -14 -7 -32 -10 -40 -3 -8 -8 -31 -11 -50 -3 -19 -9 -52 -14 -72 -9 -38 -9 -43 4 -165 5 -52 4 -73 -4 -73 -7 0 -11 -23 -10 -66 1 -42 -3 -69 -10 -74 -8 -4 -10 -17 -5 -33 5 -23 3 -27 -14 -27 -18 0 -20 5 -15 42 5 50 11 61 25 52 7 -5 8 -2 3 5 -12 21 -39 -14 -41 -52 0 -17 -4 -45 -7 -62 -14 -63 -15 -85 -6 -80 12 8 12 -8 -1 -21 -5 -5 -12 -43 -15 -85 -5 -61 -3 -79 10 -89 20 -17 19 -40 -2 -40 -15 0 -16 2 -3 10 12 7 12 12 2 22 -9 9 -12 9 -13 -5 -1 -9 -2 -23 -3 -29 -1 -7 3 -19 8 -27 8 -10 8 -15 -1 -18 -7 -3 -13 -9 -13 -15 0 -6 7 -8 14 -5 11 4 13 1 9 -10 -5 -12 -3 -14 7 -8 9 5 11 4 6 -4 -6 -9 -11 -9 -22 0 -11 9 -13 6 -10 -18 1 -17 7 -36 11 -43 5 -9 4 -11 -3 -6 -9 5 -12 -66 -12 -283 0 -208 3 -292 12 -297 6 -4 9 -3 6 2 -3 5 -2 18 3 29 7 19 8 19 10 -2 1 -13 2 -29 3 -35 0 -7 8 -13 16 -14 51 -3 50 -2 49 -59 -2 -52 -3 -55 -25 -51 -23 5 -36 -6 -40 -32 -2 -8 -6 -21 -9 -30 -12 -29 1 -275 16 -303 4 -9 5 -20 1 -24 -4 -5 0 -6 9 -3 25 10 43 -6 24 -22 -10 -8 -15 -9 -15 -1 0 6 -5 11 -11 11 -8 0 -8 -4 -1 -13 6 -7 9 -29 7 -50 -2 -20 0 -37 5 -37 9 0 24 31 21 43 -1 5 3 6 8 3 5 -4 11 -1 14 6 2 7 2 4 -1 -7 -2 -11 -5 -40 -6 -65 -1 -25 -5 -50 -9 -57 -4 -6 -1 -14 5 -16 8 -3 5 -6 -6 -6 -14 -1 -16 -4 -7 -15 6 -7 10 -24 9 -37 -3 -20 2 -24 22 -24 21 0 26 -5 28 -33 2 -18 7 -30 12 -27 9 6 25 -73 16 -82 -3 -4 0 -13 7 -21 10 -13 9 -15 -5 -9 -14 5 -18 1 -18 -16 0 -18 2 -19 10 -7 8 13 10 12 10 -4 0 -13 -5 -17 -20 -13 -11 3 -20 1 -20 -4 0 -5 6 -9 14 -9 17 0 31 -18 21 -28 -3 -3 -10 0 -15 8 -16 25 -12 -34 4 -64 13 -26 14 -26 19 -5 11 43 32 13 40 -59 5 -40 13 -70 17 -67 5 3 11 1 15 -5 3 -5 -1 -10 -10 -10 -9 0 -14 -4 -10 -10 3 -5 12 -7 19 -4 18 7 30 -12 15 -22 -8 -4 -9 -3 -5 4 4 7 3 12 -2 12 -5 0 -12 -9 -15 -20 -3 -11 -1 -20 4 -20 5 0 9 -7 9 -15 0 -8 6 -15 14 -15 15 0 26 -21 26 -50 0 -12 -7 -17 -22 -16 -19 1 -22 -3 -19 -24 4 -29 83 -182 132 -256 102 -154 132 -194 141 -188 6 4 8 2 5 -3 -10 -16 16 -34 33 -22 13 8 12 12 -4 24 -11 8 -25 15 -32 15 -6 0 -15 7 -18 16 -5 14 -4 15 9 4 12 -10 15 -10 15 3 0 12 7 13 34 7 31 -7 34 -5 34 17 0 13 -5 26 -11 30 -6 3 -7 1 -3 -5 14 -23 -14 -12 -44 18 -26 25 -28 30 -14 38 13 7 14 13 5 29 -9 18 -7 21 17 26 25 5 25 4 8 -9 -17 -12 -17 -14 -3 -20 9 -3 20 -3 26 0 5 4 12 2 16 -4 3 -5 1 -10 -4 -10 -6 0 -11 -7 -11 -15 0 -8 5 -15 10 -15 6 0 10 -7 10 -15 0 -20 16 -19 24 1 3 9 13 14 20 11 8 -3 17 1 20 9 4 12 9 12 24 3 29 -18 11 -69 -23 -69 -5 0 -3 4 5 10 19 12 9 21 -15 14 -29 -8 -62 -64 -55 -94 7 -30 56 -52 69 -31 6 9 11 10 15 2 9 -14 53 -14 61 -1 5 8 11 8 20 0 8 -7 285 -10 892 -10 l880 1 52 25 c34 17 62 25 82 22 20 -3 33 0 36 9 3 8 13 11 24 8 13 -4 19 -1 20 9 3 36 6 41 19 38 11 -2 11 0 1 11 -9 12 -8 16 6 22 10 5 21 7 25 7 5 -1 7 4 5 11 -1 6 4 11 11 9 8 -1 11 2 7 9 -4 6 -16 8 -27 6 -11 -3 7 19 40 51 74 71 92 85 92 73 0 -10 -46 -58 -87 -91 -14 -11 -23 -23 -19 -27 4 -4 20 7 37 25 16 18 36 32 44 32 7 0 17 10 21 22 4 13 14 29 23 36 9 8 10 11 3 7 -6 -3 -15 1 -18 9 -3 9 -11 13 -18 9 -6 -3 -7 -2 -3 3 5 5 13 9 19 9 6 0 18 11 27 25 15 24 15 24 -3 10 -18 -14 -18 -14 -6 7 8 12 16 21 19 21 4 0 12 0 19 1 17 1 15 18 -3 18 -8 0 -11 -5 -8 -10 3 -6 1 -7 -5 -3 -15 9 -15 33 0 42 7 4 8 3 4 -4 -4 -7 -2 -12 3 -12 6 0 11 6 11 13 0 6 7 21 15 31 15 20 15 20 30 0 13 -18 14 -18 8 6 -3 14 -10 31 -16 38 -6 8 -5 12 4 13 8 0 4 4 -8 9 -16 7 -21 14 -16 27 7 17 6 17 -21 0 -29 -20 -46 -16 -28 5 8 10 -1 13 -44 14 -29 1 -51 -2 -49 -6 3 -5 -7 -5 -22 -1 -17 5 -37 2 -52 -5 -14 -7 -30 -9 -35 -5 -21 16 -65 21 -90 9 -15 -6 -29 -8 -32 -5 -12 12 21 33 56 35 54 4 57 18 9 40 -25 11 -36 21 -26 21 10 1 15 6 12 11 -4 6 7 8 28 6 32 -4 34 -3 29 20 -3 19 -9 23 -23 19 -11 -4 -19 -2 -19 4 0 16 48 44 61 35 9 -5 10 -2 5 11 -4 12 0 25 13 39 11 12 19 26 19 31 -1 6 7 12 17 14 17 3 18 1 6 -13 -8 -9 -11 -20 -7 -23 4 -4 11 -1 16 7 8 13 14 13 40 -2 17 -10 29 -14 26 -9 -3 5 1 11 9 15 8 3 15 15 15 26 0 12 10 25 25 32 14 6 25 14 25 18 0 4 11 10 25 12 29 6 29 5 13 -25 -10 -20 -10 -21 5 -8 10 7 17 18 17 23 0 15 27 38 44 38 10 0 16 -9 17 -22 0 -13 3 -17 6 -10 4 10 8 10 19 1 11 -9 14 -9 14 0 0 7 3 10 8 8 4 -3 13 1 20 9 7 8 9 14 5 14 -5 0 -9 9 -10 20 -1 11 4 20 10 20 9 0 9 2 0 8 -14 9 1 31 37 51 23 13 24 13 11 -3 -8 -9 -12 -19 -9 -22 8 -8 48 64 48 87 0 20 3 27 35 88 10 19 13 31 6 27 -18 -11 -13 48 10 125 13 42 19 82 15 100 -3 18 -1 29 5 29 7 0 10 14 7 35 -2 19 -1 32 1 29 7 -6 29 179 30 244 1 24 9 60 18 80 11 24 13 37 6 39 -6 2 -8 13 -6 24 5 16 8 18 14 7 7 -11 9 -11 9 1 0 8 8 20 18 28 9 8 11 12 5 8 -7 -3 -13 -1 -13 4 0 6 5 11 11 11 5 0 7 5 4 10 -10 17 -23 11 -28 -12 l-4 -23 -2 22 c0 12 7 30 18 40 24 23 33 93 13 93 -10 0 -12 7 -8 23 6 19 17 104 19 145 0 6 6 12 13 12 8 0 11 6 8 15 -4 8 -2 15 4 15 6 0 8 9 5 21 -6 23 13 119 32 164 8 16 11 33 8 39 -3 5 -1 6 6 2 6 -4 8 -12 5 -18 -4 -6 -1 -9 6 -6 14 4 21 58 8 58 -4 0 -8 -5 -8 -12 0 -6 -2 -9 -6 -6 -3 3 2 43 12 88 11 56 13 93 7 118 -10 43 -6 92 8 92 5 0 9 -7 9 -17 0 -39 10 -2 16 57 3 36 7 67 10 71 2 4 0 9 -6 11 -6 2 -3 15 6 33 17 33 17 145 -1 157 -6 5 -6 8 3 8 6 0 12 9 12 20 0 11 -6 20 -12 20 -10 0 -10 2 -1 8 7 4 10 29 8 65 -1 31 1 57 4 57 10 0 0 114 -12 128 -8 10 -7 16 1 21 13 8 12 45 -1 57 -11 11 -8 54 3 54 7 0 7 6 0 20 -6 11 -8 20 -4 20 3 0 0 7 -7 17 -10 11 -11 17 -3 20 18 6 4 43 -16 43 -19 0 -35 40 -21 50 5 3 8 36 7 75 -2 41 0 62 5 50 7 -17 8 -18 8 -2 1 16 -37 117 -82 217 -11 25 -26 60 -34 79 -8 18 -16 31 -19 28 -3 -2 6 -29 20 -58 47 -104 66 -152 61 -157 -3 -3 0 -11 6 -19 6 -7 8 -13 4 -13 -5 0 0 -9 9 -19 24 -26 10 -52 -21 -40 -13 5 -23 14 -23 20 0 8 5 7 16 -2 14 -11 16 -11 13 4 -2 10 -8 17 -13 17 -15 -3 -24 22 -19 54 5 34 -21 106 -38 106 -6 0 -8 7 -5 16 3 8 2 12 -3 9 -13 -7 -20 6 -23 43 -2 26 -5 29 -20 21 -14 -7 -16 -6 -12 6 4 8 1 15 -5 15 -6 0 -8 11 -4 30 4 20 2 30 -7 30 -7 0 -10 7 -7 14 4 10 1 13 -8 10 -11 -4 -16 5 -21 34 -3 23 -13 43 -20 46 -8 3 -14 16 -14 28 -1 27 -22 58 -39 58 -7 0 -10 4 -6 9 3 5 1 12 -5 16 -5 3 -10 -1 -10 -9 0 -9 -9 -16 -21 -16 -13 0 -18 4 -13 12 5 7 9 29 10 49 2 30 -3 39 -22 50 -13 7 -24 19 -24 28 0 9 -11 26 -25 39 -15 14 -26 40 -31 68 -5 35 -10 44 -26 44 -11 0 -31 9 -45 20 -14 11 -32 20 -39 20 -8 0 -14 5 -14 10 0 6 7 10 15 10 8 0 15 5 15 10 0 6 -13 10 -29 10 -22 0 -30 6 -35 25 -5 18 -13 25 -32 25 -14 0 -23 4 -20 9 3 5 -5 16 -19 25 -14 9 -25 23 -25 31 0 12 -139 14 -994 15 l-993 0 -45 -52z m1157 -628 c-3 -5 -21 -9 -40 -7 -43 3 -34 17 11 17 21 0 33 -4 29 -10z m65 -72 c13 -8 13 -9 -1 -5 -9 3 -22 0 -28 -6 -9 -9 -14 -8 -21 3 -5 8 -10 19 -10 23 0 9 37 0 60 -15z m47 5 c8 -10 12 -12 8 -5 -3 6 -1 12 4 12 6 0 11 -7 11 -15 0 -8 -4 -15 -9 -15 -21 0 -41 13 -41 26 0 19 10 18 27 -3z m62 -238 c63 -9 123 -21 133 -26 10 -6 35 -12 55 -14 20 -2 40 -10 45 -19 5 -9 13 -14 18 -11 12 7 110 -17 110 -27 0 -4 7 -8 17 -8 15 0 15 -1 -1 -19 -14 -16 -15 -21 -3 -32 19 -19 28 -47 16 -51 -5 -2 3 -16 18 -32 17 -18 21 -27 11 -23 -9 3 -22 -1 -28 -9 -7 -8 -20 -14 -29 -15 -10 0 -11 -2 -3 -6 19 -8 14 -23 -8 -23 -11 0 -20 5 -20 10 0 6 -15 10 -34 10 -21 0 -36 6 -40 15 -3 8 -17 15 -32 15 -40 0 -136 -32 -159 -53 -11 -10 -28 -16 -37 -13 -10 2 -20 0 -23 -4 -3 -5 -47 -7 -98 -6 -102 3 -190 23 -183 43 3 7 -1 10 -10 6 -8 -3 -27 8 -45 25 -29 28 -34 30 -107 27 -42 -1 -106 2 -142 6 -117 16 -234 19 -268 6 -29 -10 -35 -9 -55 11 -25 26 -17 49 26 70 15 7 27 17 27 23 0 5 6 9 14 9 7 0 20 7 27 16 35 42 175 104 201 88 4 -3 8 -1 8 4 0 31 399 36 599 7z m330 -347 c16 -10 17 -13 4 -26 -7 -8 -15 -13 -16 -11 -1 2 -11 14 -21 27 -17 20 -17 22 -2 22 9 0 25 -5 35 -12z m35 -47 c3 -4 -4 -17 -15 -27 -21 -19 -21 -19 -18 1 2 11 9 23 14 27 13 10 13 10 19 -1z m-538 -237 c7 -36 10 -39 42 -41 33 -2 95 -10 142 -18 19 -3 45 -6 56 -6 12 0 28 -7 37 -17 18 -20 41 -76 28 -68 -5 3 -12 -1 -15 -10 -3 -8 -11 -12 -16 -9 -6 4 -9 2 -8 -3 2 -6 -1 -11 -7 -12 -5 -1 -22 -9 -36 -17 -22 -13 -33 -14 -59 -4 -28 9 -35 8 -47 -7 -7 -9 -13 -12 -12 -7 3 22 -2 25 -21 15 -14 -8 -20 -8 -20 0 0 6 -4 9 -9 5 -5 -3 -13 0 -17 6 -3 6 -19 9 -35 5 -20 -4 -28 -2 -26 7 1 6 -5 11 -13 9 -10 -1 -9 2 4 13 14 10 22 12 27 4 7 -13 16 -1 15 20 -1 17 -26 28 -26 12 0 -18 -18 -13 -24 7 -4 14 -5 13 -4 -3 2 -37 -11 -52 -41 -47 -16 2 -32 -1 -36 -7 -4 -8 -13 -3 -27 14 -15 19 -29 25 -60 25 -31 0 -39 3 -35 14 3 8 1 17 -6 20 -7 2 -4 5 5 5 9 1 22 -7 27 -16 7 -12 10 -14 11 -4 0 11 3 11 15 1 13 -10 15 -9 15 9 0 20 4 22 53 19 l52 -3 -1 57 c-1 44 2 55 12 51 8 -3 14 -10 14 -16 0 -6 7 -1 16 11 19 27 23 25 30 -14z m-473 -89 c10 -4 17 -3 17 4 0 6 7 11 16 11 8 0 12 -4 9 -10 -4 -6 3 -6 21 0 15 6 29 8 33 5 9 -10 -92 -96 -106 -91 -7 3 -15 1 -18 -5 -4 -5 -20 -8 -37 -7 -21 2 -33 9 -39 26 -12 32 -12 35 10 59 20 21 56 24 94 8z m-1413 -315 c-19 -13 -30 -13 -30 0 0 6 10 10 23 10 18 0 19 -2 7 -10z m10 -40 c13 -9 13 -10 0 -10 -8 0 -22 5 -30 10 -13 9 -13 10 0 10 8 0 22 -5 30 -10z m-19 -23 c-1 -4 -1 -13 -1 -21 0 -8 -6 -16 -14 -19 -13 -5 -15 11 -7 51 2 7 22 -4 22 -11z m2 -70 c-3 -14 -12 -23 -24 -23 -10 0 -19 3 -19 7 0 5 33 32 46 38 1 1 -1 -9 -3 -22z m-32 -74 c-9 -16 -10 -15 -9 9 2 16 6 24 11 19 5 -5 5 -17 -2 -28z m56 -40 c-3 -10 -5 -2 -5 17 0 19 2 27 5 18 2 -10 2 -26 0 -35z m603 -374 c26 -6 40 -18 55 -46 15 -27 26 -37 40 -35 11 2 26 4 33 4 6 1 12 11 12 22 0 12 9 32 19 45 18 23 22 24 57 13 25 -7 42 -8 48 -2 6 6 19 10 31 9 17 -1 17 -2 -5 -10 -19 -7 -16 -8 17 -4 45 5 56 -2 62 -44 0 -5 15 -14 32 -20 28 -10 34 -8 50 11 14 15 16 25 9 34 -21 24 95 30 173 7 27 -7 3 -31 -40 -39 -19 -4 -37 -13 -40 -20 -3 -8 -9 -11 -14 -8 -5 3 -9 0 -9 -6 0 -6 -4 -9 -8 -6 -5 3 -20 -1 -34 -8 -14 -8 -50 -21 -79 -31 -30 -9 -61 -19 -69 -22 -52 -20 -141 -19 -182 1 -15 8 -28 10 -28 6 0 -11 -32 -1 -41 12 -3 5 -20 10 -37 11 -18 1 -32 5 -32 10 0 4 -9 7 -20 7 -11 0 -29 9 -40 20 -11 11 -20 17 -20 14 0 -4 -6 -2 -12 4 -7 5 -34 12 -59 16 -78 11 -102 17 -118 26 -19 11 -17 12 87 19 7 1 11 5 8 9 -6 11 25 9 43 -3 9 -5 12 -4 7 3 -13 22 19 23 104 1z m2086 9 c4 -7 3 -8 -4 -4 -7 4 -12 1 -12 -8 0 -8 5 -18 12 -22 7 -4 8 -3 4 4 -8 13 4 15 28 6 9 -3 16 -14 15 -23 0 -10 -2 -11 -6 -3 -2 6 -9 12 -14 12 -4 0 -6 -7 -3 -15 4 -8 12 -15 19 -15 16 0 26 63 11 72 -6 4 42 8 106 8 64 0 118 -4 120 -9 2 -5 32 -11 68 -14 75 -6 142 -30 115 -41 -9 -3 -42 -9 -73 -13 -31 -3 -67 -12 -81 -20 -15 -7 -32 -13 -39 -13 -7 0 -27 -7 -43 -16 -17 -8 -44 -17 -62 -19 -18 -3 -47 -9 -64 -14 -18 -5 -33 -7 -33 -3 0 3 -6 -3 -14 -13 -25 -35 -255 -28 -292 9 -8 9 -33 20 -56 26 -22 6 -68 31 -101 56 -34 24 -65 44 -69 44 -4 0 -8 7 -8 15 0 12 16 15 80 15 47 0 80 -4 80 -10 0 -5 13 -10 29 -10 20 0 32 -6 36 -19 7 -25 34 -35 41 -16 3 8 3 18 0 23 -10 16 37 32 104 35 36 2 73 4 82 5 9 1 20 -3 24 -10z m-2671 -1205 c-2 -10 -4 -22 -4 -26 -1 -5 -5 -6 -10 -3 -11 7 -3 46 9 46 5 0 7 -8 5 -17z m86 -126 c-8 -8 -11 -3 -11 19 1 25 2 27 11 11 8 -14 8 -22 0 -30z m12 -44 c-4 -10 -2 -14 4 -10 6 4 16 0 22 -7 9 -10 9 -16 1 -21 -6 -4 -9 -3 -8 2 2 4 -1 9 -7 10 -5 0 -9 -3 -7 -9 1 -5 -2 -7 -8 -3 -5 3 -10 20 -10 36 0 17 4 28 10 24 5 -3 6 -13 3 -22z m37 -65 c0 -4 -5 -8 -11 -8 -8 0 -8 -4 1 -15 6 -8 9 -18 6 -24 -3 -5 0 -11 6 -14 10 -4 10 -7 1 -16 -7 -6 -11 -8 -8 -4 3 3 -3 15 -12 25 -24 27 -25 64 -1 64 10 0 18 -4 18 -8z m25 -119 c4 -6 13 -8 21 -5 11 4 12 2 1 -15 -9 -15 -9 -21 0 -27 7 -4 11 -15 9 -24 -3 -21 -16 -36 -16 -19 0 8 -6 11 -16 7 -8 -3 -12 -2 -9 4 3 6 14 10 23 10 14 0 15 2 2 9 -8 6 -17 8 -20 6 -4 -2 -5 10 -2 28 3 25 1 29 -7 17 -9 -13 -11 -13 -11 3 0 19 15 23 25 6z m60 -36 c-2 -10 -4 -20 -4 -23 -1 -3 -5 2 -10 10 -10 15 -6 30 9 30 4 0 7 -8 5 -17z m-25 -198 c0 -8 -4 -15 -10 -15 -5 0 -10 7 -10 15 0 8 5 15 10 15 6 0 10 -7 10 -15z m2698 -46 c8 -12 9 -18 3 -14 -6 3 -11 1 -11 -5 0 -14 -29 -44 -36 -38 -2 3 5 15 16 28 15 17 17 26 9 37 -6 7 -7 13 -3 13 5 0 15 -9 22 -21z m-2710 -37 c-4 -17 15 -72 28 -83 8 -6 14 -16 14 -22 0 -16 -39 39 -55 77 -19 44 -19 47 0 40 8 -3 14 -9 13 -12z m157 -13 c-4 -5 -1 -9 6 -9 7 0 2 -11 -12 -26 -21 -22 -21 -24 -4 -18 16 5 18 4 8 -6 -6 -7 -16 -9 -22 -6 -16 10 -13 36 4 36 11 0 14 7 11 25 -3 15 -1 23 5 20 5 -4 7 -11 4 -16z m23 -84 c-6 -13 -14 -24 -17 -23 -17 2 -19 -5 -10 -32 6 -16 19 -32 30 -35 10 -4 19 -15 19 -27 0 -14 5 -18 15 -15 8 4 17 2 20 -2 3 -5 -15 -11 -40 -13 -31 -2 -46 1 -50 10 -3 10 1 11 16 7 19 -6 20 -5 9 16 -7 12 -24 33 -38 46 -14 12 -22 23 -18 23 4 0 2 9 -4 20 -10 18 -8 20 24 20 21 0 36 6 40 15 3 8 8 15 10 15 3 0 1 -11 -6 -25z m2387 -106 c-3 -8 -24 -27 -46 -43 -39 -27 -41 -28 -29 -6 11 20 10 22 -4 17 -11 -4 -15 -3 -11 4 4 5 14 7 24 4 11 -3 26 4 40 21 23 26 36 28 26 3z m-2355 -69 c8 -16 8 -20 -4 -20 -9 0 -14 8 -13 20 1 11 2 20 4 20 1 0 7 -9 13 -20z m121 -43 c-13 -13 -26 -3 -16 12 3 6 11 8 17 5 6 -4 6 -10 -1 -17z m-131 -19 c0 -17 3 -18 15 -8 12 10 15 10 15 -2 0 -8 -10 -14 -24 -14 -14 0 -23 4 -20 8 3 4 0 17 -6 28 -9 16 -8 18 5 14 8 -4 15 -15 15 -26z m220 -119 c0 -18 -2 -19 -15 -9 -8 7 -15 16 -15 21 0 5 7 9 15 9 9 0 15 -9 15 -21z"/>
<path d="M2205 3903 c8 -8 15 -19 15 -24 0 -14 26 -39 40 -39 7 0 9 8 5 20 -8 25 -1 25 34 -1 40 -29 94 -23 96 10 1 14 7 27 13 29 7 2 12 8 12 13 0 5 -11 2 -25 -7 -22 -14 -25 -14 -25 -1 0 22 -80 21 -97 -1 -11 -16 -12 -16 -13 0 0 12 -9 16 -35 16 -30 0 -33 -2 -20 -15z"/>
<path d="M2430 3910 c0 -5 9 -10 21 -10 11 0 17 5 14 10 -3 6 -13 10 -21 10 -8 0 -14 -4 -14 -10z"/>
<path d="M2577 3344 c-7 -8 13 -54 25 -54 4 0 8 5 8 10 0 6 -5 10 -11 10 -5 0 -8 4 -5 8 6 10 -9 34 -17 26z"/>
<path d="M3880 4615 c0 -6 6 -19 14 -30 7 -11 30 -51 50 -90 20 -38 41 -77 45 -85 5 -8 23 -45 40 -82 30 -66 50 -93 31 -44 -30 81 -180 355 -180 331z"/>
<path d="M4217 3875 c3 -16 9 -37 14 -45 15 -27 10 11 -6 45 l-14 30 6 -30z"/>
<path d="M4246 3752 c3 -29 10 -65 14 -80 l8 -27 1 25 c0 14 -6 50 -14 80 l-15 55 6 -53z"/>
<path d="M4260 3615 c0 -14 4 -25 9 -25 4 0 6 11 3 25 -2 14 -6 25 -8 25 -2 0 -4 -11 -4 -25z"/>
<path d="M4273 3530 c0 -25 2 -35 4 -22 2 12 2 32 0 45 -2 12 -4 2 -4 -23z"/>
<path d="M4283 3215 c0 -22 2 -30 4 -17 2 12 2 30 0 40 -3 9 -5 -1 -4 -23z"/>
<path d="M4284 3020 c0 -85 2 -120 3 -77 2 42 2 112 0 155 -1 42 -3 7 -3 -78z"/>
<path d="M4293 2790 c0 -25 2 -35 4 -22 2 12 2 32 0 45 -2 12 -4 2 -4 -23z"/>
<path d="M4160 2473 c0 -5 -7 -30 -15 -56 -8 -26 -10 -45 -6 -42 5 2 12 21 15 40 4 20 11 33 17 30 5 -4 9 3 9 14 0 12 -4 21 -10 21 -5 0 -10 -3 -10 -7z"/>
<path d="M4313 2230 c0 -30 2 -43 4 -27 2 15 2 39 0 55 -2 15 -4 2 -4 -28z"/>
<path d="M4284 2095 c-12 -13 -24 -38 -28 -56 -3 -17 -15 -39 -27 -47 -11 -7 -18 -19 -16 -25 1 -5 -9 -23 -25 -39 -29 -29 -44 -37 -32 -15 5 9 4 9 -5 1 -8 -8 -9 -18 -2 -37 6 -15 8 -34 5 -42 -6 -14 -8 -13 -20 2 -12 17 -13 17 -14 -4 0 -13 -4 -23 -10 -23 -5 0 -10 -7 -10 -16 0 -9 5 -12 13 -8 10 6 10 4 0 -7 -15 -16 -17 -59 -3 -59 15 0 12 -40 -5 -56 -17 -17 -20 -54 -5 -54 6 0 10 -10 10 -22 0 -19 -2 -20 -10 -8 -8 13 -10 12 -10 -2 0 -10 7 -18 15 -18 8 0 15 -6 15 -14 0 -8 9 -24 20 -37 18 -23 19 -23 20 -4 1 11 4 15 6 8 3 -7 13 -9 22 -6 14 6 15 5 2 -9 -8 -9 -17 -16 -20 -16 -18 1 -30 -3 -30 -10 0 -13 43 -9 58 6 20 18 36 15 18 -4 -18 -18 -21 -34 -6 -34 6 0 10 7 10 16 0 8 4 13 9 10 5 -3 8 -26 8 -51 0 -25 3 -48 6 -52 4 -3 7 19 7 51 0 45 -8 73 -35 129 -41 87 -53 179 -31 252 8 26 12 54 9 63 -4 13 -2 14 4 4 7 -10 20 1 51 41 52 67 72 114 72 172 0 50 -5 53 -36 20z m-128 -558 c-2 -7 -5 -4 -5 6 -1 10 -5 15 -11 12 -6 -4 -7 1 -3 11 6 15 7 15 15 0 5 -9 7 -22 4 -29z"/>
<path d="M4130 1373 c0 -2 7 -11 15 -19 9 -9 15 -11 15 -4 0 6 6 8 13 4 9 -5 9 -4 0 6 -13 14 -43 23 -43 13z"/>
<path d="M760 1100 c19 -13 30 -13 30 0 0 6 -10 10 -22 10 -19 0 -20 -2 -8 -10z"/>
<path d="M3496 825 c-3 -9 0 -15 9 -15 8 0 15 7 15 15 0 8 -4 15 -9 15 -5 0 -11 -7 -15 -15z"/>
<path d="M857 674 c-4 -4 -3 -12 0 -18 4 -6 9 -20 11 -31 1 -11 10 -27 19 -35 15 -13 16 -13 5 1 -6 8 -10 25 -7 36 2 13 -3 24 -11 27 -9 3 -12 10 -9 16 7 11 2 13 -8 4z"/>
</g>
<g id="layer103" fill="#685641" stroke="none">
<path d="M1494 4978 c-19 -21 -19 -21 4 -9 12 6 22 9 22 6 0 -13 -73 -83 -83 -79 -11 4 -102 -118 -217 -290 -65 -97 -177 -312 -231 -443 -71 -171 -149 -414 -142 -441 4 -19 3 -23 -7 -17 -9 6 -11 0 -6 -23 5 -21 2 -34 -10 -46 -9 -9 -17 -30 -18 -46 0 -17 -5 -30 -10 -30 -6 0 -5 -5 1 -11 7 -7 10 -33 7 -63 -12 -157 -25 -338 -30 -438 -4 -62 -11 -116 -16 -119 -7 -4 -7 -8 -1 -10 6 -2 13 -30 16 -62 3 -31 2 -55 -3 -52 -4 3 -11 -1 -13 -7 -3 -8 -6 -6 -6 5 -1 9 -6 17 -12 17 -7 0 -8 -20 -4 -62 7 -64 14 -83 22 -60 3 6 8 12 13 12 4 0 3 -10 -3 -23 -17 -38 -35 -28 -42 23 -3 25 -10 52 -15 59 -12 21 -23 -24 -15 -66 6 -32 4 -35 -13 -31 -20 6 -22 -2 -7 -34 4 -10 11 -15 16 -12 5 3 9 1 9 -5 0 -5 -4 -12 -8 -15 -14 -8 -12 -66 1 -66 8 0 8 -3 -1 -9 -14 -8 -21 -89 -9 -107 4 -7 0 -14 -8 -18 -12 -4 -15 -33 -15 -167 0 -89 3 -159 6 -156 4 4 25 -3 48 -15 23 -13 42 -23 42 -23 1 0 4 -11 8 -25 3 -14 3 -19 0 -12 -3 6 -12 12 -19 12 -7 0 -16 6 -18 13 -3 7 -6 5 -6 -5 -1 -10 -8 -18 -16 -18 -22 0 -18 -15 8 -34 15 -12 17 -16 4 -12 -11 3 -17 0 -17 -9 0 -8 6 -15 13 -15 8 0 7 -4 -3 -10 -11 -7 -5 -10 23 -10 l38 0 -2 -54 c-1 -30 -6 -61 -10 -68 -5 -7 -9 -10 -9 -6 0 4 -11 -4 -25 -18 -14 -14 -25 -30 -25 -37 0 -7 4 -6 10 3 9 13 11 13 20 0 18 -27 11 -81 -14 -111 -13 -15 -26 -25 -29 -22 -3 3 -5 -5 -4 -18 0 -13 6 -27 12 -31 6 -5 6 -8 0 -8 -6 0 -9 -21 -7 -50 2 -27 8 -50 12 -50 10 0 20 26 20 51 0 10 5 19 10 19 6 0 10 -7 10 -15 0 -8 5 -15 10 -15 6 0 10 -5 10 -11 0 -5 -6 -7 -12 -3 -7 4 -5 -2 5 -13 21 -24 21 -30 2 -49 -17 -17 -20 -60 -6 -69 5 -3 11 0 14 7 2 7 2 4 0 -7 -8 -33 -2 -139 7 -145 5 -3 15 -36 22 -72 7 -37 16 -65 19 -62 7 4 13 -27 24 -118 2 -22 0 -38 -6 -38 -6 0 -8 -9 -4 -20 7 -21 -10 -28 -18 -7 -3 6 -6 -2 -6 -20 -1 -17 4 -35 9 -38 6 -3 10 3 10 13 0 11 6 25 14 31 17 14 26 -4 33 -64 3 -22 9 -44 14 -50 5 -5 9 -16 9 -25 0 -9 9 -33 20 -55 23 -45 23 -45 11 -45 -5 0 -13 9 -16 20 -3 11 -11 20 -17 20 -7 0 -7 -4 0 -12 5 -7 13 -28 17 -46 3 -17 13 -32 21 -32 15 0 29 -42 21 -63 -3 -7 3 -18 12 -24 9 -6 23 -30 30 -52 7 -23 19 -45 27 -48 8 -3 14 -14 14 -24 0 -10 5 -19 10 -19 6 0 10 5 10 11 0 5 5 7 12 3 8 -5 9 -2 5 9 -5 14 0 17 27 17 26 0 35 6 45 26 6 15 14 24 17 21 6 -6 -33 -73 -41 -69 -12 6 -13 0 -4 -28 6 -16 19 -32 30 -35 10 -4 19 -15 19 -26 0 -13 6 -19 18 -17 10 2 16 -2 14 -11 -2 -10 4 -12 20 -8 22 6 22 5 4 -8 -17 -13 -17 -15 -3 -21 9 -3 20 -3 26 0 5 4 12 2 16 -4 3 -5 1 -10 -4 -10 -6 0 -11 -7 -11 -15 0 -8 5 -15 10 -15 6 0 10 -7 10 -15 0 -20 16 -19 24 1 4 10 12 14 22 10 12 -4 14 -1 9 14 -8 25 0 25 28 2 26 -20 24 -53 -3 -70 -11 -7 -20 -8 -20 -3 0 5 6 11 13 14 19 7 3 17 -18 11 -29 -8 -62 -64 -55 -94 7 -30 56 -52 69 -31 6 9 11 10 15 2 9 -14 53 -14 61 -1 5 8 11 8 20 0 9 -7 280 -10 893 -10 l881 1 48 25 c26 13 65 24 86 24 20 0 37 5 37 11 0 6 -7 9 -15 5 -8 -3 -15 -1 -15 4 0 6 5 10 11 10 6 0 16 6 24 12 7 7 32 29 55 48 24 19 61 51 83 72 23 21 47 38 53 38 7 0 16 10 20 22 4 13 14 28 23 35 9 7 13 13 9 13 -5 0 -25 -17 -47 -37 -63 -62 -100 -93 -109 -93 -5 0 -17 -9 -28 -21 -17 -19 -65 -49 -79 -49 -3 0 4 9 15 20 11 11 25 20 30 20 6 0 10 4 10 9 0 5 8 12 18 15 22 8 176 156 191 185 11 21 11 21 -8 9 -12 -7 -21 -16 -21 -21 0 -9 -71 -79 -117 -114 -55 -42 -37 -16 44 65 93 94 103 105 103 121 0 7 -22 -12 -50 -41 -27 -29 -49 -48 -50 -42 0 5 22 34 50 62 27 29 50 56 50 61 0 5 11 22 24 38 13 15 24 41 24 56 0 27 -1 27 -25 12 -27 -18 -42 -13 -25 7 8 10 -1 13 -44 14 -29 1 -51 -2 -49 -6 3 -5 -7 -5 -22 -1 -17 5 -37 2 -52 -5 -14 -7 -30 -9 -35 -5 -21 16 -65 21 -90 9 -15 -6 -29 -8 -32 -5 -12 12 21 33 56 35 54 4 57 18 9 40 -25 11 -36 21 -26 21 10 1 15 6 12 11 -4 6 7 8 28 6 32 -4 34 -3 29 20 -3 19 -9 23 -23 19 -11 -4 -19 -2 -19 4 0 16 48 44 61 35 9 -5 10 -2 6 9 -8 22 30 87 51 87 12 0 13 -3 4 -12 -14 -14 -16 -28 -3 -28 5 0 13 9 16 20 4 14 15 20 36 20 16 0 29 5 29 10 0 6 6 10 14 10 8 0 28 12 45 26 17 14 36 22 42 18 8 -4 9 -3 5 4 -4 7 -2 12 5 12 26 0 119 53 141 80 12 15 27 26 33 24 6 -3 18 8 25 23 8 15 19 35 26 43 6 8 14 37 18 64 3 27 10 54 15 60 4 6 11 34 14 61 4 28 9 61 12 75 19 81 51 329 62 485 3 44 9 85 13 90 4 6 11 33 14 60 4 28 8 66 11 85 2 19 9 59 15 89 12 66 13 64 -2 55 -10 -6 -10 -5 -1 7 11 14 52 167 60 224 2 17 5 44 7 60 3 17 5 40 5 53 1 13 5 21 10 18 11 -7 21 53 21 131 0 40 4 63 13 66 8 3 2 12 -15 26 -23 18 -26 27 -21 59 8 59 24 103 44 123 11 11 19 25 19 32 0 8 -4 7 -11 -3 -8 -12 -9 -7 -6 18 2 17 0 32 -5 32 -5 0 -4 8 1 19 12 21 5 32 -15 24 -9 -3 -14 2 -14 16 0 12 -5 21 -11 21 -6 0 -9 7 -5 15 3 8 0 15 -6 15 -6 0 -6 6 3 16 11 14 10 18 -6 30 -18 13 -18 14 -1 14 16 0 16 2 5 16 -10 13 -10 17 2 25 8 5 10 9 5 9 -5 0 -17 -7 -26 -15 -15 -14 -18 -14 -30 0 -11 13 -9 15 11 15 13 0 31 5 39 10 10 6 22 4 36 -5 20 -13 21 -12 17 5 -5 19 -42 27 -90 21 -15 -2 -17 25 -3 34 6 3 10 1 10 -4 0 -12 72 -15 83 -4 10 9 -44 35 -61 28 -9 -3 -12 0 -9 9 4 11 1 13 -11 9 -9 -4 -21 -11 -25 -17 -6 -7 -7 -4 -3 7 7 21 -7 22 -29 1 -9 -9 -19 -13 -22 -10 -4 4 3 13 16 22 15 11 20 22 16 35 -7 21 10 27 18 7 4 -10 6 -10 6 0 1 6 6 12 12 12 6 0 9 -7 5 -15 -4 -10 1 -15 15 -15 16 0 18 3 9 19 -14 27 -13 28 13 35 21 6 21 6 -8 22 -41 21 -53 34 -32 34 11 0 17 8 16 23 -1 16 -2 18 -6 5 -2 -10 -10 -18 -17 -18 -10 0 -11 10 -6 41 4 22 4 68 -1 102 -5 34 -9 74 -9 90 0 15 -6 30 -14 33 -12 5 -10 11 10 29 14 13 31 26 37 28 7 3 2 12 -12 23 -23 16 -23 18 -6 30 10 8 16 16 13 19 -8 8 -58 -5 -58 -16 0 -4 -21 -8 -47 -7 l-48 1 44 13 c72 22 78 33 31 61 -24 15 -39 31 -38 40 2 9 -4 18 -12 21 -8 3 -12 1 -8 -3 9 -9 -9 -35 -24 -35 -5 0 -6 9 -3 20 5 14 2 20 -10 20 -9 0 -13 5 -10 10 4 6 -13 10 -42 11 -33 1 -41 3 -25 7 32 9 28 25 -8 35 -31 8 -39 22 -17 30 9 4 9 6 0 6 -18 1 -53 33 -53 48 0 7 8 13 18 14 9 0 12 3 5 5 -7 3 -21 1 -31 -5 -25 -14 -78 4 -92 29 -6 10 -10 39 -10 63 0 30 -5 47 -14 50 -18 7 -36 69 -29 98 5 18 3 21 -10 16 -9 -3 -19 -2 -22 3 -4 6 3 10 15 10 12 0 18 4 15 11 -4 6 -13 8 -20 6 -10 -4 -10 0 -1 19 6 13 18 25 26 27 12 3 11 6 -4 12 -13 6 -21 4 -24 -4 -3 -9 -10 -8 -29 4 -14 9 -28 13 -31 9 -4 -4 -1 -9 6 -11 6 -3 12 -9 12 -15 0 -6 -6 -6 -15 2 -8 7 -23 9 -32 5 -17 -6 -17 -7 1 -21 11 -7 16 -17 13 -21 -10 -10 -27 10 -32 38 -12 64 -18 78 -35 94 -11 10 -26 15 -35 11 -13 -5 -13 -2 2 19 10 13 21 25 26 25 4 0 7 5 7 11 0 6 -9 8 -20 4 -22 -7 -28 10 -7 19 6 3 1 3 -12 0 -27 -7 -99 13 -119 33 -8 8 -12 20 -9 28 3 7 1 16 -6 18 -9 3 -8 8 2 20 9 11 10 17 2 17 -6 0 -11 -4 -11 -10 0 -5 -7 -10 -15 -10 -8 0 -15 -4 -15 -10 0 -5 5 -10 11 -10 5 0 7 -5 4 -11 -10 -15 -45 19 -38 37 6 16 -4 17 -64 5 -41 -8 -75 1 -60 16 5 4 13 1 18 -7 9 -13 10 -13 6 0 -2 8 -10 15 -18 15 -8 0 -14 -7 -13 -15 0 -8 -8 -24 -19 -35 -11 -11 -17 -14 -13 -7 5 8 0 12 -13 12 -12 0 -21 7 -21 15 0 18 21 20 39 3 10 -11 11 -10 6 3 -7 20 -69 42 -95 34 -24 -8 -27 10 -4 23 11 6 13 11 5 16 -6 4 -17 4 -23 -1 -17 -10 -51 -4 -60 10 -4 6 -26 11 -49 12 -33 1 -44 6 -50 22 -5 14 -20 22 -49 27 -23 4 -311 6 -640 6 -593 -1 -598 -1 -616 -22z m1185 -604 c22 -5 30 -11 27 -20 -8 -21 31 -17 44 4 10 15 11 15 6 0 -3 -11 2 -19 17 -24 30 -9 59 -41 55 -62 -4 -24 10 -42 33 -42 12 0 19 -7 19 -20 0 -11 5 -20 10 -20 6 0 10 -6 10 -14 0 -8 5 -16 12 -18 23 -8 0 -36 -26 -31 -15 3 -23 10 -20 18 4 10 -1 12 -15 8 -15 -4 -21 -1 -21 11 0 9 -8 16 -17 16 -10 0 -38 7 -62 16 -24 8 -50 13 -58 10 -8 -3 -23 -1 -33 4 -28 15 -132 26 -287 31 l-81 2 26 34 c15 18 32 33 37 33 6 0 21 12 34 25 15 16 34 25 55 25 17 0 38 5 46 10 17 11 141 13 189 4z m186 -263 c9 -15 66 -41 89 -41 15 0 17 -3 8 -12 -19 -19 -14 -30 9 -23 14 5 19 3 15 -3 -3 -6 11 -23 31 -39 21 -15 44 -34 51 -40 15 -15 42 -17 42 -4 0 14 32 23 44 11 8 -8 7 -14 -4 -21 -11 -7 -7 -8 13 -3 16 4 27 2 27 -4 0 -6 9 -14 21 -17 12 -4 18 -12 15 -21 -3 -8 1 -17 9 -20 21 -8 19 -24 -2 -24 -17 -1 -17 -1 0 -14 11 -8 17 -27 17 -50 0 -20 5 -36 11 -36 7 0 9 -10 4 -27 -4 -16 -8 -33 -9 -40 -1 -7 -13 -21 -26 -33 l-23 -20 22 0 c28 0 18 -18 -16 -31 -19 -7 -24 -15 -20 -29 4 -15 -2 -24 -23 -35 -35 -18 -54 -19 -44 -3 14 23 11 51 -5 55 -19 5 -45 58 -36 73 3 5 2 10 -4 10 -12 0 -61 48 -61 60 0 9 -49 -4 -93 -26 -16 -8 -33 -14 -38 -14 -6 0 -20 -9 -32 -20 -12 -11 -27 -18 -35 -15 -7 2 -10 0 -7 -5 3 -6 -1 -10 -10 -10 -9 0 -14 4 -11 9 3 4 -11 5 -32 1 -42 -7 -195 16 -200 30 -2 6 -10 10 -18 10 -7 0 -28 9 -46 20 -40 24 -74 26 -86 4 -7 -12 -28 -17 -87 -20 -98 -4 -136 3 -128 23 5 13 3 13 -16 1 -19 -11 -24 -11 -35 5 -7 9 -23 17 -35 17 -12 0 -24 6 -27 14 -9 24 -78 40 -115 27 -17 -6 -40 -11 -50 -11 -44 0 -67 70 -29 90 11 6 20 18 20 26 0 8 4 13 9 10 11 -7 40 8 105 53 111 77 349 114 589 91 264 -24 253 -24 260 -6 5 12 -1 19 -18 26 -14 5 -25 14 -25 20 0 5 -7 10 -15 10 -9 0 -12 6 -9 15 7 16 49 21 59 6z m1129 -97 c4 -10 1 -14 -6 -12 -15 5 -23 28 -10 28 5 0 13 -7 16 -16z m26 -113 c0 -11 -26 -22 -34 -14 -12 12 -5 23 14 23 11 0 20 -4 20 -9z m68 -13 c-3 -7 -13 -15 -23 -17 -10 -2 -25 -9 -33 -17 -16 -16 -42 -19 -42 -4 0 6 7 10 15 10 8 0 23 9 32 20 19 22 57 28 51 8z m-69 -104 c-10 -13 -10 -17 2 -25 8 -5 10 -9 4 -9 -5 0 -16 4 -24 9 -12 8 -12 11 0 25 18 20 35 21 18 0z m-766 -211 c3 -5 -8 -9 -24 -10 -16 -1 -29 2 -29 7 0 12 47 13 53 3z m-13 -28 c0 -2 -9 -9 -20 -15 -16 -9 -20 -8 -20 5 0 8 9 15 20 15 11 0 20 -2 20 -5z m-58 -32 c-6 -3 -10 -9 -6 -14 3 -5 -7 -9 -22 -9 -15 0 -24 3 -21 6 13 13 52 31 57 26 3 -3 -1 -7 -8 -9z m943 -13 c-3 -5 -13 -10 -21 -10 -8 0 -14 5 -14 10 0 6 9 10 21 10 11 0 17 -4 14 -10z m-945 -39 c0 -5 -11 -11 -25 -13 -24 -5 -32 2 -18 15 9 10 43 8 43 -2z m-570 -31 c8 -5 16 -14 16 -20 1 -5 2 -14 3 -19 4 -32 152 -71 235 -62 16 1 43 -5 60 -14 27 -15 32 -22 29 -49 -4 -30 -3 -30 11 -12 9 11 16 14 16 8 0 -7 0 -15 0 -19 0 -11 -23 -11 -37 -1 -8 7 -10 3 -6 -11 10 -40 -70 -95 -124 -85 -21 4 -39 2 -48 -6 -9 -7 -19 -10 -22 -6 -4 4 -1 11 6 15 24 15 -5 20 -32 6 -17 -9 -27 -10 -27 -3 0 7 -5 6 -14 -1 -10 -9 -20 -9 -34 -2 -10 5 -42 13 -70 17 -29 3 -52 10 -52 15 0 5 -5 9 -12 9 -6 0 -34 11 -62 24 -28 13 -60 27 -70 30 -19 6 -19 7 0 22 18 15 17 15 -14 10 -20 -4 -31 -2 -27 4 3 6 -2 10 -12 10 -11 1 -4 8 20 21 35 18 51 49 25 49 -6 0 -2 11 11 23 12 14 43 29 74 35 100 22 136 25 157 12z m552 -26 c-24 -17 -39 -14 -27 5 3 6 16 11 28 11 l21 0 -22 -16z m-952 -96 c78 -1 77 -4 -8 -62 -93 -64 -154 -65 -176 -4 -8 23 -6 32 14 53 21 22 30 25 63 20 21 -4 69 -7 107 -7z m1895 -66 c-3 -4 -11 1 -16 11 -6 9 -16 17 -24 17 -9 0 -12 6 -8 16 5 13 10 11 30 -11 14 -14 22 -29 18 -33z m10 -42 c-3 -5 -13 -10 -21 -10 -8 0 -12 5 -9 10 3 6 13 10 21 10 8 0 12 -4 9 -10z m55 -100 c0 -5 -7 -10 -15 -10 -8 0 -15 5 -15 10 0 6 7 10 15 10 8 0 15 -4 15 -10z m-3408 -355 c-6 -34 -12 -32 -12 6 0 16 4 28 9 25 4 -3 6 -17 3 -31z m17 -175 c3 0 8 -11 9 -24 1 -20 -3 -24 -23 -22 -22 1 -25 6 -25 39 0 23 4 36 10 32 6 -3 11 0 11 7 1 7 4 3 6 -9 2 -13 8 -23 12 -23z m2653 -143 c4 -6 31 -10 60 -10 l53 2 -45 -10 c-25 -5 -52 -9 -60 -9 -8 0 -41 0 -72 0 -33 0 -58 4 -58 10 0 5 15 10 34 10 19 0 37 4 40 8 7 12 40 11 48 -1z m168 -19 c0 -5 -9 -8 -19 -8 -11 0 -22 3 -24 8 -3 4 6 7 19 7 13 0 24 -3 24 -7z m-2260 -40 c0 -4 13 -8 29 -8 22 0 30 -6 35 -24 3 -13 18 -31 33 -41 34 -23 56 -10 63 36 l5 34 113 3 112 3 0 -36 c0 -38 1 -38 49 -29 36 7 42 24 9 25 -16 0 -18 2 -8 6 8 3 17 9 20 14 11 17 180 14 204 -4 16 -11 7 -18 -76 -60 -107 -53 -186 -83 -243 -93 -62 -10 -135 -5 -167 10 -15 8 -28 11 -28 7 0 -4 -13 -6 -30 -3 -16 2 -27 8 -24 13 3 5 -9 9 -25 9 -17 0 -31 4 -31 8 0 5 -25 15 -55 22 -30 7 -55 17 -55 21 0 4 -24 12 -52 18 -29 6 -80 17 -113 24 l-60 14 55 11 c136 28 240 37 240 20z m2103 -6 c-2 -6 6 -12 17 -12 11 0 19 6 18 13 -5 21 259 16 357 -7 44 -10 88 -22 97 -27 10 -5 30 -10 45 -11 16 0 -12 -4 -62 -8 -49 -4 -117 -16 -150 -27 -33 -11 -87 -29 -120 -39 -33 -10 -66 -23 -74 -29 -8 -5 -22 -9 -32 -7 -10 2 -29 -2 -41 -9 -13 -7 -41 -13 -63 -14 -22 -1 -59 -5 -81 -9 -68 -12 -201 39 -333 128 -29 20 -57 36 -61 36 -4 0 -10 6 -13 14 -5 12 29 14 220 15 124 0 228 2 231 6 11 10 47 0 45 -13z m-2683 -614 c0 -16 -3 -19 -11 -11 -6 6 -8 16 -5 22 11 17 16 13 16 -11z m72 -282 c-9 -17 -21 21 -14 45 6 23 6 23 12 -6 4 -16 4 -34 2 -39z m33 -137 c11 -17 2 -18 -19 -3 -17 12 -17 14 -4 14 9 0 20 -5 23 -11z m33 -184 c-3 -13 -1 -26 3 -27 5 -2 11 -21 15 -43 3 -22 8 -44 11 -49 3 -5 0 -6 -8 -4 -8 3 -13 11 -11 17 1 6 -2 11 -7 11 -9 0 -23 98 -15 111 10 17 16 9 12 -16z m-43 -11 c1 -5 5 -27 10 -49 11 -52 12 -57 13 -79 1 -12 7 -16 17 -12 16 6 73 -60 62 -71 -10 -10 -37 18 -37 38 0 11 -5 19 -11 19 -5 0 -7 -5 -4 -10 3 -6 -1 -13 -9 -16 -9 -3 -16 -11 -16 -16 0 -6 7 -8 15 -4 8 3 15 1 15 -4 0 -6 -4 -10 -9 -10 -6 0 -3 -12 5 -27 7 -16 14 -38 14 -49 0 -25 24 -49 40 -39 7 4 6 -2 -2 -14 -10 -17 -10 -23 -1 -29 7 -4 11 -15 9 -24 -3 -22 -16 -36 -16 -18 0 11 -3 11 -12 2 -10 -10 -10 -15 2 -22 13 -8 12 -10 -4 -10 -15 0 -17 5 -13 27 3 15 -1 32 -8 39 -7 7 -15 36 -19 66 -4 29 -11 57 -15 63 -11 14 -23 74 -35 170 -3 20 -9 30 -20 29 -21 -2 -21 22 0 30 10 4 14 12 10 22 -4 10 -1 14 6 12 7 -3 13 -9 13 -14z m155 -102 c0 -7 -4 -10 -10 -7 -5 3 -10 16 -10 28 0 18 2 19 10 7 5 -8 10 -21 10 -28z m10 -53 c0 -11 7 -27 15 -35 8 -9 15 -29 15 -46 0 -25 -3 -28 -14 -19 -23 19 -48 140 -26 126 6 -3 10 -15 10 -26z m-58 -104 c-6 -34 -12 -32 -12 6 0 16 4 28 9 25 4 -3 6 -17 3 -31z m33 -96 c-4 -5 0 -9 7 -9 10 0 9 -3 -2 -10 -9 -6 -17 -5 -21 2 -9 15 0 40 12 32 5 -3 7 -10 4 -15z m15 -64 c0 -8 -4 -15 -10 -15 -5 0 -10 7 -10 15 0 8 5 15 10 15 6 0 10 -7 10 -15z m43 -80 c9 -25 12 -45 6 -45 -5 0 -9 5 -9 10 0 6 -6 10 -14 10 -7 0 -16 11 -18 25 -3 14 -1 25 3 25 5 0 5 7 2 17 -4 10 -2 14 4 10 6 -4 18 -27 26 -52z m-83 19 c0 -20 -7 -17 -20 6 -9 16 -8 18 5 14 8 -4 15 -12 15 -20z m0 -80 c0 -8 -4 -14 -10 -14 -5 0 -10 9 -10 21 0 11 5 17 10 14 6 -3 10 -13 10 -21z m130 -53 c0 -9 7 -25 15 -35 17 -22 19 -36 7 -36 -5 0 -15 12 -22 28 -11 22 -14 24 -18 9 -3 -17 -5 -16 -23 4 -25 28 -24 31 6 23 15 -4 25 -2 25 5 0 6 -4 11 -10 11 -5 0 -10 7 -10 16 0 14 3 14 15 4 8 -7 15 -20 15 -29z m-92 2 c2 -26 2 -26 -18 -8 -25 22 -26 35 -2 35 12 0 18 -9 20 -27z m107 -93 c0 -22 -29 -18 -33 3 -3 14 1 18 15 15 10 -2 18 -10 18 -18z m2365 -136 c0 -14 -88 -79 -96 -71 -2 2 8 12 23 22 15 10 34 27 41 37 12 17 32 25 32 12z m-50 -84 c0 -5 -15 -17 -32 -25 l-33 -16 30 25 c34 29 35 30 35 16z m-2139 -33 c-13 -13 -26 -3 -16 12 3 6 11 8 17 5 6 -4 6 -10 -1 -17z m1997 -64 c-10 -2 -18 -9 -18 -14 0 -5 -8 -9 -17 -9 -16 1 -16 2 1 15 11 8 27 14 35 14 13 -1 12 -2 -1 -6z m32 -10 c0 -5 -14 -16 -30 -25 -38 -21 -40 -9 -2 14 33 20 32 20 32 11z m-1940 -64 c0 -18 -2 -19 -15 -9 -8 7 -15 16 -15 21 0 5 7 9 15 9 9 0 15 -9 15 -21z m1843 1 c-18 -11 -45 -22 -60 -26 -27 -6 -27 -5 -8 8 20 15 71 36 90 37 6 1 -5 -8 -22 -19z m-109 -5 c-10 -8 -26 -14 -34 -14 -9 0 -4 6 10 14 33 19 49 19 24 0z"/>
<path d="M2886 4011 c15 -14 54 -23 54 -13 0 11 -24 22 -48 22 -10 0 -12 -3 -6 -9z"/>
<path d="M2232 3912 c-18 -3 -22 -8 -16 -25 8 -25 28 -47 44 -47 7 0 9 8 5 20 -8 25 -1 25 34 -1 18 -13 39 -19 61 -17 28 3 33 7 36 31 2 22 -1 27 -12 23 -8 -3 -14 0 -14 8 0 22 -86 20 -95 -2 -6 -14 -8 -15 -14 -2 -3 9 -16 14 -29 12z"/>
<path d="M2420 3390 c0 -5 -9 -10 -20 -10 -11 0 -20 -4 -20 -10 0 -20 66 -6 74 16 3 9 -2 14 -14 14 -11 0 -20 -4 -20 -10z"/>
<path d="M3206 2326 c21 -15 30 -14 19 3 -3 6 -14 11 -23 11 -13 0 -13 -2 4 -14z"/>
<path d="M3310 4790 c0 -5 6 -10 14 -10 8 0 18 5 21 10 3 6 -3 10 -14 10 -12 0 -21 -4 -21 -10z"/>
<path d="M3500 4645 c0 -10 10 -15 30 -15 20 0 30 5 30 15 0 10 -10 15 -30 15 -20 0 -30 -5 -30 -15z"/>
<path d="M3567 4613 c-12 -11 -8 -21 13 -26 15 -4 20 0 20 14 0 18 -20 26 -33 12z"/>
<path d="M3647 4546 c-6 -15 1 -26 15 -26 4 0 8 9 8 20 0 23 -15 27 -23 6z"/>
<path d="M3682 4348 c-2 -45 10 -69 23 -48 3 5 2 10 -4 10 -5 0 -12 19 -14 43 l-4 42 -1 -47z"/>
<path d="M3910 4150 c0 -5 7 -10 15 -10 8 0 15 -5 15 -12 0 -6 2 -9 5 -6 3 3 3 13 -1 22 -7 17 -34 22 -34 6z"/>
<path d="M4167 3433 c-12 -11 -8 -23 8 -23 8 0 15 7 15 15 0 16 -12 20 -23 8z"/>
<path d="M738 2979 c-21 -12 -24 -33 -4 -26 8 3 17 1 20 -6 2 -7 5 0 5 16 1 15 0 27 -1 27 -2 0 -11 -5 -20 -11z"/>
<path d="M693 2938 c-10 -18 -13 -39 -3 -33 8 5 21 45 15 45 -2 0 -7 -6 -12 -12z"/>
<path d="M687 2884 c-10 -11 -8 -44 2 -44 6 0 13 4 16 10 8 12 -9 43 -18 34z"/>
<path d="M4291 2040 c-6 -18 -20 -34 -31 -37 -13 -3 -19 -11 -16 -19 3 -8 -8 -24 -25 -36 -19 -15 -34 -39 -44 -72 -8 -27 -13 -51 -11 -53 2 -3 7 6 11 19 10 33 35 58 57 58 21 0 73 76 83 122 10 43 -10 58 -24 18z"/>
<path d="M695 1791 c-6 -11 9 -23 19 -14 9 9 7 23 -3 23 -6 0 -12 -4 -16 -9z"/>
<path d="M4156 1793 c-11 -12 -6 -30 9 -30 8 0 15 6 15 13 0 15 -15 26 -24 17z"/>
<path d="M4146 1713 c-3 -21 -6 -52 -6 -68 0 -17 -5 -36 -11 -42 -7 -7 -4 -11 13 -11 21 0 23 4 21 47 -2 41 -1 43 7 16 l9 -30 -3 30 c-2 17 -7 39 -11 49 -6 14 -5 17 4 11 10 -6 11 -3 2 14 -16 28 -17 27 -25 -16z"/>
<path d="M4160 1556 c0 -36 10 -55 26 -49 19 7 18 33 -2 33 -10 0 -14 6 -11 15 4 8 2 17 -3 20 -6 4 -10 -5 -10 -19z"/>
<path d="M3410 612 c0 -5 7 -13 16 -16 10 -4 14 -1 12 6 -5 15 -28 23 -28 10z"/>
<path d="M3673 514 c-7 -7 -13 -18 -13 -24 0 -5 -4 -10 -10 -10 -5 0 -10 -6 -10 -12 0 -7 12 0 26 15 14 15 24 32 22 36 -2 5 -9 3 -15 -5z"/>
<path d="M908 515 c-9 -10 6 -52 47 -132 20 -40 41 -71 46 -67 5 3 7 -1 4 -8 -3 -7 13 -41 35 -75 30 -47 44 -61 58 -57 12 4 13 3 4 -3 -10 -8 -3 -24 29 -71 25 -38 45 -60 52 -55 7 3 9 3 5 -2 -11 -12 11 -35 28 -28 22 8 17 22 -13 36 -31 13 -60 37 -46 37 5 0 14 -5 21 -12 9 -9 12 -8 12 4 0 13 6 14 34 8 31 -7 34 -5 34 17 0 13 -5 26 -11 30 -6 3 -7 1 -3 -5 12 -20 -13 -13 -34 8 l-20 20 0 -25 c0 -14 -4 -25 -10 -25 -5 0 -10 5 -10 10 0 6 -7 10 -16 10 -10 0 -14 6 -11 15 4 8 2 17 -3 20 -13 8 -13 25 1 25 6 0 13 -9 16 -20 3 -11 9 -20 14 -20 13 0 11 14 -6 36 -17 23 -19 54 -3 54 6 0 9 3 5 6 -10 10 -47 -7 -47 -22 0 -19 -17 -18 -28 3 -12 21 10 46 33 37 14 -6 14 -3 3 21 -10 22 -17 26 -40 23 -18 -3 -28 0 -28 8 0 8 6 11 15 8 8 -4 15 -1 15 6 0 8 -9 10 -26 6 -30 -8 -60 14 -75 52 -5 12 -15 22 -24 22 -10 0 -17 14 -21 40 -7 42 -25 75 -36 65z"/>
<path d="M1170 223 c0 -14 19 -38 25 -32 8 8 -5 39 -16 39 -5 0 -9 -3 -9 -7z"/>
<path d="M3390 80 c0 -11 4 -20 9 -20 5 0 11 9 14 20 3 13 0 20 -9 20 -8 0 -14 -9 -14 -20z"/>
</g>
<g id="layer104" fill="#8e7153" stroke="none">
<path d="M1734 4974 c-13 -17 -31 -26 -48 -26 -16 0 -26 -6 -26 -15 0 -11 -7 -14 -25 -11 -21 5 -24 2 -19 -17 6 -25 -15 -35 -74 -35 -19 0 -31 -4 -27 -10 9 -14 -31 -53 -57 -55 -13 -1 -23 -8 -23 -16 0 -16 -39 -39 -67 -39 -14 0 -18 -5 -14 -16 4 -11 -6 -28 -29 -50 -19 -18 -35 -37 -35 -43 0 -6 -4 -11 -10 -11 -5 0 -10 -11 -10 -25 0 -14 -4 -25 -10 -25 -5 0 -10 -13 -10 -30 0 -22 -5 -30 -17 -30 -15 0 -16 -2 -3 -10 13 -8 13 -10 -2 -10 -11 0 -26 -21 -43 -59 -17 -38 -36 -63 -52 -70 -18 -8 -23 -15 -16 -22 12 -12 6 -49 -8 -49 -5 0 -6 -7 -3 -15 4 -9 0 -15 -10 -15 -10 0 -22 -22 -36 -70 -11 -38 -25 -72 -30 -75 -5 -3 -7 -12 -3 -20 3 -9 -1 -15 -8 -15 -9 0 -15 -14 -17 -35 -1 -20 -13 -52 -26 -73 -17 -25 -26 -56 -29 -99 -5 -60 -29 -112 -53 -113 -6 0 -14 -21 -17 -47 -4 -27 -14 -79 -22 -118 -9 -38 -18 -94 -21 -123 -2 -30 -8 -61 -13 -70 -8 -16 -13 -62 -27 -277 -14 -212 -1 -461 42 -810 35 -277 42 -353 48 -485 6 -153 49 -496 74 -595 51 -200 73 -246 128 -260 21 -5 45 -14 52 -18 6 -5 16 -5 22 -2 6 3 7 -1 4 -9 -6 -16 4 -19 51 -17 11 0 14 -2 8 -5 -22 -10 -14 -24 12 -24 16 0 25 -6 25 -15 0 -9 8 -19 17 -22 10 -4 22 -11 26 -17 4 -6 5 1 1 17 -9 39 10 33 25 -8 8 -22 19 -35 30 -35 25 0 33 -11 20 -27 -9 -10 -7 -13 11 -11 13 2 25 -3 27 -9 3 -7 -2 -13 -11 -13 -9 0 -16 -7 -16 -16 0 -10 6 -14 15 -10 8 3 15 1 15 -4 0 -6 -6 -10 -14 -10 -11 0 -26 -20 -26 -35 0 -11 40 10 45 23 5 14 8 14 15 3 14 -24 -8 -59 -36 -53 -17 3 -24 0 -24 -12 0 -9 8 -16 18 -16 16 -1 16 -1 -1 -11 -10 -6 -27 -9 -38 -6 -10 3 -19 2 -19 -2 0 -4 -9 -7 -19 -7 -14 0 -17 4 -11 11 12 14 -20 17 -37 3 -15 -12 -79 0 -94 18 -13 15 -3 37 13 28 6 -4 9 -1 6 6 -6 20 -28 24 -28 6 0 -9 -4 -16 -9 -16 -12 0 -2 -34 24 -84 66 -123 58 -109 115 -183 22 -29 36 -53 31 -53 -5 0 -12 6 -14 13 -4 9 -8 9 -15 -2 -7 -9 -12 -10 -16 -2 -4 6 -2 11 3 11 17 0 13 13 -15 44 -21 24 -28 27 -36 15 -7 -10 -8 -8 -3 8 5 17 3 21 -7 18 -8 -3 -23 8 -37 27 l-22 33 26 -29 c14 -15 28 -26 31 -24 7 7 -58 108 -89 138 -14 14 -35 47 -47 73 -13 26 -24 46 -26 44 -6 -6 28 -90 49 -120 10 -15 17 -32 15 -39 -2 -6 -14 4 -26 23 -29 45 -28 30 3 -37 14 -30 25 -59 25 -64 0 -6 4 -10 9 -10 8 0 48 -57 61 -87 11 -26 204 -214 256 -250 57 -40 148 -92 199 -116 24 -11 142 -14 610 -16 640 -2 610 -4 790 64 108 41 259 117 285 145 3 3 23 18 45 35 70 52 106 91 99 109 -3 9 -1 16 6 16 6 0 8 5 4 12 -5 8 -2 9 11 5 14 -6 16 -3 12 12 -5 22 15 46 27 33 4 -4 6 6 4 23 -3 29 -4 29 -57 26 -37 -2 -57 2 -62 11 -6 9 -11 10 -16 2 -5 -6 -18 -10 -31 -9 -13 1 -25 -2 -28 -7 -3 -4 -10 -6 -15 -2 -5 3 -7 10 -4 15 4 5 2 9 -2 9 -5 0 -14 -12 -21 -27 -10 -25 -11 -26 -5 -3 6 24 5 25 -14 7 -19 -16 -21 -17 -27 -1 -4 11 -15 15 -34 12 -17 -2 -35 3 -47 14 -22 21 -34 16 -15 -7 7 -8 9 -15 4 -15 -5 0 -2 -5 6 -11 12 -8 12 -10 -5 -7 -12 2 -20 11 -20 22 0 28 -53 31 -89 4 -21 -15 -33 -18 -45 -11 -19 12 -74 -13 -65 -29 4 -6 3 -9 -2 -7 -5 3 -21 11 -36 19 -35 17 -35 26 -3 34 36 9 32 29 -4 21 -23 -5 -29 -2 -34 15 -7 28 1 50 19 50 23 0 16 28 -8 33 -20 4 -19 4 5 6 18 1 30 -5 35 -16 5 -14 8 -9 12 17 4 26 10 34 23 32 21 -4 22 6 0 30 -14 16 -14 18 0 18 8 0 18 6 20 13 4 9 6 8 6 -2 1 -11 4 -11 16 -1 12 10 15 10 15 -1 1 -9 5 -8 15 5 8 11 15 14 15 8 0 -7 7 -12 15 -12 8 0 15 7 15 16 0 14 3 14 15 4 9 -7 19 -9 23 -5 4 4 1 10 -6 12 -21 8 17 43 46 43 20 0 22 3 13 14 -10 12 -7 15 16 18 16 2 27 8 26 16 -2 6 6 12 16 12 11 0 22 6 24 13 4 9 8 8 16 -3 10 -13 13 -13 25 3 8 10 18 17 22 16 24 -4 34 4 42 33 4 18 15 33 23 33 28 0 58 25 52 42 -4 11 -3 14 5 9 7 -4 12 -3 12 3 0 5 12 11 27 13 19 2 29 10 34 28 4 14 7 19 8 11 1 -11 4 -11 15 -1 8 6 13 19 10 28 -3 9 1 6 9 -7 12 -20 15 -21 20 -7 4 11 3 15 -4 10 -8 -4 -9 1 -4 17 18 57 18 55 6 39 -18 -25 -14 27 5 54 10 16 12 26 5 31 -17 10 -31 -4 -31 -31 0 -14 -4 -22 -10 -19 -5 3 -10 15 -10 25 0 10 -6 20 -12 22 -9 3 -8 10 5 22 10 10 21 15 25 12 3 -4 0 -11 -8 -16 -8 -5 -11 -13 -6 -17 5 -4 11 -2 13 5 3 7 11 19 20 27 13 13 10 14 -24 10 -31 -4 -41 -1 -51 15 -7 11 -8 20 -3 20 5 0 11 -6 14 -12 4 -10 7 -10 18 -1 10 10 5 16 -24 28 -33 13 -37 19 -37 50 0 19 -4 35 -9 35 -5 0 -24 16 -42 35 -19 19 -41 35 -51 35 -10 0 -18 5 -18 10 0 6 8 10 19 10 21 0 31 26 24 64 -4 17 -12 26 -24 26 -11 0 -19 7 -19 15 0 16 16 20 24 6 8 -13 48 -1 43 13 -2 6 -13 15 -25 21 -12 5 -22 17 -22 25 -1 12 -3 11 -11 -2 -13 -23 -26 -23 -32 -1 -4 14 -5 13 -6 -4 -1 -16 -6 -20 -20 -16 -22 6 -18 28 10 55 13 13 19 14 23 5 3 -9 7 -8 15 3 8 12 6 16 -8 18 -11 2 -22 10 -25 19 -5 12 0 14 29 11 24 -3 35 0 35 9 0 7 12 13 28 14 l27 1 -28 10 c-34 12 -26 29 11 22 23 -5 36 2 78 43 28 27 53 56 57 66 3 9 13 17 22 17 9 0 15 6 14 12 -5 33 31 77 64 78 26 0 21 18 -20 71 -36 48 -52 55 -105 51 -29 -3 -9 27 30 44 19 8 37 12 40 9 2 -2 14 2 26 10 11 8 31 15 43 15 24 0 31 15 11 23 -18 5 -48 -3 -48 -14 0 -5 -6 -9 -14 -9 -8 0 -27 -5 -43 -11 -31 -13 -32 -13 -163 -23 -84 -7 -102 -6 -158 14 -34 12 -98 43 -142 68 -44 26 -93 54 -108 62 -16 9 -44 28 -63 43 l-34 28 105 -2 c126 -2 161 2 100 10 l-45 6 50 17 c65 22 214 49 290 54 33 2 77 6 98 9 24 3 36 2 32 -4 -7 -12 39 -26 54 -16 6 3 11 17 11 31 0 14 6 24 14 24 20 0 66 39 66 56 0 8 -7 14 -15 14 -8 0 -15 -4 -15 -10 0 -5 -13 -2 -29 8 -29 16 -32 42 -5 42 8 0 14 5 14 10 0 6 7 10 15 10 26 0 16 18 -15 29 -31 10 -42 34 -14 29 24 -4 29 19 6 31 -21 11 -62 4 -62 -11 0 -5 -5 -6 -11 -3 -6 4 2 18 20 34 30 27 30 27 11 44 -26 22 -29 21 -23 -2 3 -14 -2 -20 -21 -23 -22 -4 -24 -3 -16 13 13 24 13 166 0 174 -9 6 -14 -20 -11 -56 1 -9 -5 -19 -14 -23 -10 -3 -14 -2 -10 5 4 6 -1 16 -10 23 -22 16 -34 134 -15 146 8 5 2 17 -19 40 -22 25 -28 37 -20 46 6 7 8 17 5 22 -8 13 -45 22 -51 12 -6 -10 -118 0 -125 11 -7 10 -50 0 -50 -11 0 -5 8 -11 18 -13 13 -4 12 -5 -5 -6 -16 -1 -21 -6 -17 -16 4 -8 2 -15 -4 -15 -6 0 -12 6 -15 13 -2 6 -8 8 -13 4 -5 -4 -2 -12 6 -18 13 -8 11 -12 -10 -29 -23 -18 -23 -20 -5 -20 15 -1 12 -4 -11 -14 -34 -15 -50 -33 -39 -44 4 -4 13 1 20 11 9 12 15 15 20 7 8 -13 9 -12 -27 -28 -30 -13 -37 -39 -13 -48 12 -5 13 -10 4 -20 -6 -8 -8 -25 -5 -39 5 -19 3 -23 -8 -19 -15 6 -96 -67 -96 -86 0 -6 -9 -6 -24 0 -17 6 -26 5 -30 -3 -2 -7 -5 -1 -5 11 -1 16 6 26 20 29 21 6 21 6 -2 24 -20 15 -21 19 -6 19 21 0 60 43 67 73 3 12 16 26 28 32 12 5 22 13 22 16 0 8 -75 39 -95 39 -21 0 -19 -17 3 -24 9 -2 0 -2 -20 1 -26 4 -38 1 -38 -7 0 -8 -9 -10 -24 -6 -14 3 -28 2 -31 -4 -3 -5 -26 -10 -50 -10 -53 0 -75 -8 -75 -26 0 -8 -7 -14 -15 -14 -8 0 -15 -6 -15 -12 0 -10 -3 -9 -9 1 -5 7 -14 11 -20 7 -7 -4 -9 -1 -5 8 3 8 -4 28 -16 44 -12 17 -19 35 -16 41 4 6 3 11 -3 11 -6 0 -13 11 -17 25 -3 14 -12 25 -20 25 -8 0 -14 7 -14 15 0 8 -14 17 -35 21 -19 3 -39 12 -46 20 -6 8 -17 14 -23 14 -7 0 -30 9 -51 20 -23 12 -50 18 -62 15 -12 -3 -24 -1 -28 4 -3 5 -21 7 -41 4 -24 -4 -39 -2 -44 7 -7 11 -19 10 -65 -5 -31 -9 -71 -19 -88 -21 -42 -6 -91 25 -105 65 -9 25 -7 34 10 56 18 23 26 25 86 24 85 -2 182 10 182 23 0 5 6 8 13 6 12 -3 51 27 92 69 16 17 36 24 76 26 30 2 70 11 89 19 39 18 84 33 147 48 66 16 103 78 51 86 -58 9 -130 34 -211 75 -45 23 -85 24 -134 4 -77 -32 -202 -11 -305 52 -49 30 -62 34 -97 28 -23 -4 -43 -11 -47 -16 -3 -5 -19 -9 -35 -9 -17 0 -28 -4 -24 -9 3 -5 1 -12 -5 -16 -5 -3 -12 5 -16 19 -3 14 -12 30 -20 37 -8 6 -14 22 -14 35 0 13 -4 24 -10 24 -5 0 -10 8 -9 18 0 10 3 12 6 5 8 -20 29 -15 40 10 6 12 26 30 44 39 19 8 71 34 116 57 46 23 122 51 170 64 81 20 108 22 351 20 144 -1 262 3 262 7 0 5 -10 10 -22 12 -13 2 -22 9 -21 16 3 11 -9 16 -33 13 -7 -1 -14 8 -17 19 -3 11 -13 20 -24 20 -19 0 -47 26 -55 50 -6 18 -84 40 -96 28 -7 -7 -23 -6 -49 3 -52 18 -176 19 -243 3 -58 -15 -81 -7 -56 18 8 9 12 18 9 22 -8 8 17 36 33 36 8 0 41 28 75 61 63 65 118 99 155 99 13 0 34 4 48 10 16 6 27 6 31 0 4 -6 18 -9 33 -9 17 1 21 3 10 6 -10 2 -18 9 -18 15 0 7 17 9 45 6 25 -3 48 -2 51 3 3 5 14 9 25 9 10 0 19 4 19 9 0 5 11 12 25 15 14 4 25 13 25 22 0 8 4 13 9 9 6 -3 8 4 6 15 -2 11 3 24 13 29 9 5 16 13 14 18 -1 4 6 9 18 11 22 4 25 13 9 29 -6 6 -11 43 -12 83 -1 70 -2 71 -29 77 -15 3 -28 12 -28 19 0 8 -4 14 -10 14 -5 0 -10 6 -11 13 -1 39 -115 80 -148 54 -22 -18 -84 -16 -101 4 -19 21 -74 15 -66 -7 8 -21 -6 -17 -36 11 -15 14 -32 25 -39 25 -32 0 -88 25 -92 41 -4 16 -15 18 -100 16 -52 -1 -93 -5 -91 -9 3 -4 -9 -6 -26 -5 -16 1 -30 5 -30 10 0 4 -55 7 -122 7 -120 0 -123 -1 -144 -26z m1396 -1994 c0 -11 -4 -20 -9 -20 -14 0 -23 18 -16 30 10 17 25 11 25 -10z m-335 -39 c6 -10 -34 -37 -48 -33 -4 1 -10 -5 -13 -13 -3 -8 -10 -12 -15 -9 -14 8 -10 24 6 24 8 0 15 7 15 16 0 8 4 13 9 9 5 -3 12 -1 16 5 8 13 22 13 30 1z m15 -76 c20 -24 4 -29 -19 -6 -14 14 -17 21 -7 21 7 0 19 -7 26 -15z m770 -236 c0 -11 -27 -12 -34 0 -3 4 -3 11 0 14 8 8 34 -3 34 -14z m-1658 -259 c54 -5 102 -12 109 -15 13 -9 -36 -55 -58 -55 -7 0 -13 -4 -13 -10 0 -5 -4 -10 -10 -10 -8 0 -41 -14 -145 -60 -11 -5 -51 -18 -90 -29 -68 -20 -73 -20 -185 -4 -63 9 -116 21 -118 25 -2 4 -9 8 -15 8 -7 0 -30 5 -51 11 -30 8 -36 13 -25 21 11 8 10 9 -3 4 -16 -5 -73 10 -123 33 -30 14 -151 41 -182 41 -26 0 -27 1 -7 14 11 8 31 14 44 14 14 1 41 3 60 6 19 3 62 10 95 15 69 10 573 4 717 -9z m820 -348 c-7 -2 -12 -21 -12 -43 0 -46 -15 -52 -23 -9 -5 22 -12 30 -27 30 -12 0 -18 5 -15 10 3 6 19 10 35 10 17 0 31 7 35 18 6 14 8 14 13 3 3 -8 0 -17 -6 -19z m40 -57 c2 -16 7 -29 11 -27 8 3 32 -25 55 -66 7 -12 10 -33 6 -46 -3 -13 -1 -34 6 -45 13 -25 5 -61 -15 -61 -7 0 -20 16 -30 36 -9 19 -29 47 -45 61 -24 21 -27 28 -17 44 10 15 8 23 -10 40 -15 15 -19 27 -13 38 4 9 13 29 19 45 14 34 28 25 33 -19z m-62 -65 c22 -19 22 -21 6 -38 -15 -18 -15 -20 6 -36 18 -14 23 -28 25 -72 1 -30 -2 -52 -6 -49 -5 2 -9 26 -9 52 -1 45 -15 67 -38 59 -10 -4 -11 15 -4 49 6 25 -1 46 -12 39 -7 -4 -8 -3 -4 4 9 15 9 15 36 -8z m198 -34 c7 1 8 0 2 -3 -14 -7 -12 -33 3 -33 7 0 13 -12 14 -27 0 -16 -1 -20 -4 -10 -10 36 -23 15 -24 -40 -1 -32 -4 -46 -6 -30 -2 15 -7 27 -11 27 -4 0 -7 32 -7 70 0 49 3 66 10 57 6 -8 16 -13 23 -11z m19 -163 c-3 -10 -5 -2 -5 17 0 19 2 27 5 18 2 -10 2 -26 0 -35z m-1775 -1185 c-9 -9 -15 -9 -24 1 -11 11 -10 13 5 8 10 -4 17 -2 17 5 0 6 3 8 7 5 4 -4 1 -13 -5 -19z m29 -64 c17 -26 51 -71 75 -100 24 -29 37 -51 30 -48 -15 6 -115 133 -135 172 -20 37 -4 25 30 -24z m203 -153 c31 -34 3 -24 -30 10 -21 23 -23 29 -9 21 11 -5 29 -20 39 -31z m40 -104 c108 -83 183 -132 228 -146 21 -7 40 -17 43 -22 9 -13 3 -12 -56 15 -81 37 -208 121 -273 180 -62 56 -32 42 58 -27z m55 20 c0 -9 -2 -9 -6 1 -2 6 -10 12 -18 12 -7 0 -19 7 -26 17 -13 15 -11 15 19 -1 17 -9 32 -22 31 -29z m94 -56 c21 -13 36 -25 34 -28 -5 -4 -117 64 -117 72 0 4 26 -10 83 -44z m102 -56 c22 -13 36 -24 30 -25 -5 0 -28 11 -50 25 -22 13 -35 24 -30 25 6 0 28 -11 50 -25z m-9 -30 c25 -19 14 -19 -22 0 -16 8 -22 15 -13 15 8 0 24 -7 35 -15z m194 -45 c30 -11 49 -19 42 -20 -24 0 -102 22 -108 31 -8 13 4 11 66 -11z"/>
<path d="M2754 1935 c12 -46 25 -75 36 -75 14 0 13 8 -11 57 -23 48 -34 56 -25 18z"/>
<path d="M2788 1842 c-10 -2 -18 -8 -18 -13 0 -13 27 -11 35 2 9 13 4 16 -17 11z"/>
<path d="M2310 3869 c0 -15 27 -28 48 -22 33 8 27 20 -13 25 -19 2 -35 1 -35 -3z"/>
<path d="M3460 2984 c0 -21 4 -33 10 -29 6 3 10 19 10 36 0 16 -4 29 -10 29 -5 0 -10 -16 -10 -36z"/>
<path d="M2677 3004 c-4 -4 -3 -12 2 -18 5 -6 11 -20 13 -31 5 -19 5 -19 13 -1 4 10 4 21 -2 25 -6 3 -12 12 -14 19 -3 7 -8 10 -12 6z"/>
<path d="M3203 2383 c9 -2 25 -2 35 0 9 3 1 5 -18 5 -19 0 -27 -2 -17 -5z"/>
<path d="M687 2251 c-18 -41 -20 -65 -10 -124 5 -33 12 -42 50 -60 26 -13 45 -30 48 -42 7 -37 14 -203 8 -209 -3 -3 -8 -26 -10 -51 -4 -54 14 -61 20 -7 3 34 4 33 5 -10 1 -28 -2 -48 -9 -48 -5 0 -7 -4 -4 -10 3 -5 1 -10 -5 -10 -6 0 -10 -10 -8 -22 2 -17 11 -24 31 -26 15 -2 27 2 27 8 0 6 -4 8 -10 5 -20 -13 -9 23 11 37 21 13 21 18 12 84 l-10 69 -2 -54 c0 -30 -3 -52 -5 -50 -11 11 -16 160 -6 178 7 14 6 21 -3 24 -9 3 -9 9 1 29 10 19 11 43 4 109 l-9 84 -2 -73 c-1 -80 -20 -93 -20 -14 -1 74 -6 120 -14 128 -4 4 -7 22 -7 41 0 19 -5 34 -12 35 -7 0 -17 2 -23 2 -5 1 -15 5 -21 8 -6 4 -18 -9 -27 -31z"/>
<path d="M4285 1999 c-10 -15 3 -25 16 -12 7 7 7 13 1 17 -6 3 -14 1 -17 -5z"/>
<path d="M732 1939 c2 -6 8 -10 13 -10 5 0 11 4 13 10 2 6 -4 11 -13 11 -9 0 -15 -5 -13 -11z"/>
<path d="M777 1563 c-3 -16 -3 -30 -1 -33 7 -7 24 23 24 43 0 27 -17 20 -23 -10z"/>
<path d="M3590 1280 c0 -5 9 -10 20 -10 11 0 20 5 20 10 0 6 -9 10 -20 10 -11 0 -20 -4 -20 -10z"/>
<path d="M816 1242 c-2 -4 -1 -14 3 -21 6 -10 10 -9 14 3 6 16 -8 32 -17 18z"/>
<path d="M921 1202 c5 -20 13 -50 19 -67 9 -27 9 -25 5 15 -4 34 -3 40 5 25 l10 -20 -3 20 c-2 11 -9 19 -15 18 -7 -2 -12 6 -12 16 0 11 -4 22 -9 25 -5 4 -5 -10 0 -32z"/>
<path d="M921 1100 c1 -8 5 -26 9 -40 l8 -25 1 25 c0 14 -4 32 -9 40 -9 13 -10 13 -9 0z"/>
<path d="M960 1034 c0 -6 7 -19 15 -30 8 -10 14 -14 14 -9 0 6 -6 19 -14 29 -8 11 -15 15 -15 10z"/>
<path d="M991 923 c11 -34 19 -42 19 -20 0 7 -7 22 -15 33 -13 17 -14 16 -4 -13z"/>
<path d="M1026 808 c10 -36 26 -58 20 -28 -3 14 -6 31 -6 38 0 6 -5 12 -11 12 -6 0 -8 -9 -3 -22z"/>
<path d="M1026 732 c9 -36 45 -114 50 -109 3 3 -9 33 -25 68 -17 35 -28 53 -25 41z"/>
<path d="M1270 36 c0 -7 7 -19 15 -26 12 -10 15 -10 15 4 0 9 -5 16 -11 16 -5 0 -7 5 -4 10 3 6 1 10 -4 10 -6 0 -11 -6 -11 -14z"/>
</g>
<g id="layer105" fill="#c3624f" stroke="none">
<path d="M2052 4893 c-10 -18 -27 -22 -107 -26 -27 -2 -59 -8 -71 -14 -11 -7 -30 -10 -42 -7 -14 4 -25 -1 -34 -15 -7 -12 -20 -21 -29 -21 -9 0 -19 -9 -22 -20 -3 -11 -13 -20 -22 -20 -20 0 -64 -49 -65 -73 0 -26 -30 -80 -52 -96 -11 -7 -17 -19 -14 -27 3 -7 -8 -22 -25 -34 -16 -12 -26 -26 -22 -32 4 -7 0 -9 -10 -5 -25 9 -81 -13 -67 -27 8 -8 14 -7 21 4 9 12 10 12 5 -3 -3 -10 -6 -21 -6 -23 0 -2 -11 -4 -25 -4 -13 0 -33 -10 -45 -22 -21 -23 -27 -58 -10 -58 6 0 10 -4 10 -10 0 -5 -8 -10 -18 -10 -13 0 -22 -13 -31 -49 -8 -33 -20 -52 -37 -61 -13 -7 -24 -21 -24 -31 0 -22 -28 -33 -46 -18 -10 8 -14 8 -14 0 0 -6 -9 -11 -21 -11 -11 0 -17 -4 -14 -10 3 -5 -1 -10 -9 -10 -19 0 -21 -16 -3 -23 9 -4 9 -6 0 -6 -9 -1 -13 -18 -13 -52 0 -31 -6 -56 -15 -65 -8 -9 -15 -32 -14 -52 1 -38 3 -36 13 11 4 15 11 25 16 22 6 -3 10 -1 10 4 0 6 4 11 9 11 4 0 6 -11 3 -25 -7 -39 12 -53 63 -47 28 3 45 1 45 -6 0 -6 -11 -9 -25 -6 -14 2 -25 0 -25 -6 0 -5 -3 -9 -7 -9 -21 3 -33 -2 -33 -15 0 -8 -10 -17 -22 -19 -17 -3 -14 -5 10 -6 25 -1 32 -5 32 -21 0 -11 -5 -20 -11 -20 -5 0 -7 -4 -4 -10 6 -9 -10 -14 -42 -13 -7 1 -10 -3 -7 -8 3 -5 0 -9 -5 -9 -6 0 -11 -4 -11 -10 0 -5 14 -7 33 -4 24 4 28 3 17 -5 -12 -9 -11 -11 8 -11 13 0 21 -4 18 -9 -3 -4 5 -6 18 -4 16 3 28 -2 38 -15 10 -14 18 -18 28 -12 11 7 8 11 -13 19 -24 9 -27 16 -26 53 0 24 3 37 6 31 6 -15 33 -17 33 -3 0 6 11 10 25 10 19 0 25 -5 25 -21 0 -18 -5 -21 -35 -17 -28 3 -35 1 -35 -14 0 -19 35 -32 67 -26 13 2 18 13 19 41 1 20 -2 37 -6 37 -14 0 -19 70 -7 93 11 20 16 22 45 15 18 -5 30 -13 27 -18 -11 -17 15 -21 80 -9 51 9 69 8 80 -1 8 -7 15 -9 15 -4 0 5 4 2 10 -6 5 -9 22 -13 47 -12 25 2 33 -1 24 -7 -17 -11 -6 -31 19 -31 12 0 21 10 25 30 7 31 25 42 25 15 0 -8 7 -15 15 -15 8 0 15 7 15 15 0 15 5 17 45 20 56 4 96 20 126 51 18 19 39 34 46 34 7 0 13 5 13 10 0 6 7 10 16 10 8 0 13 4 10 8 -6 11 30 43 39 34 3 -4 3 1 -1 11 -3 10 -1 17 5 17 6 0 11 7 11 15 0 8 12 17 28 21 34 7 43 11 63 26 23 16 49 3 48 -24 0 -13 -3 -17 -6 -10 -2 6 -11 12 -19 12 -9 0 -13 -4 -9 -9 3 -5 1 -12 -5 -16 -5 -3 -10 1 -10 9 0 24 -14 19 -54 -16 -34 -30 -48 -68 -26 -68 6 0 10 7 10 16 0 11 6 14 21 9 37 -12 72 -13 134 -4 33 5 111 9 173 10 99 1 113 3 110 17 -2 12 -15 16 -53 17 -28 0 -54 5 -60 12 -5 6 -35 25 -66 41 l-57 29 42 16 41 16 -100 -5 c-126 -5 -152 -11 -179 -38 l-21 -21 -4 25 c-3 27 22 81 57 118 12 14 22 29 22 33 0 5 7 9 16 9 24 0 74 61 74 90 0 14 6 32 12 38 10 10 10 15 -2 22 -13 8 -12 10 4 10 12 0 16 5 12 15 -3 9 0 15 9 15 19 0 27 16 20 40 -7 22 -31 27 -38 8 -2 -7 -2 10 1 37 3 28 10 54 16 58 8 6 8 10 -1 14 -9 3 -9 11 3 29 11 16 12 24 4 24 -6 0 -18 7 -26 15 -14 13 -13 15 3 16 16 0 16 1 -2 8 -19 8 -19 8 4 16 32 10 6 27 -29 18 -25 -6 -25 -6 -6 16 12 13 15 21 7 21 -15 0 -50 40 -51 58 0 17 -20 15 -20 -2 0 -16 -46 -14 -79 3 -30 16 -69 13 -79 -6z m-572 -495 c0 -16 -3 -19 -11 -11 -6 6 -8 16 -5 22 11 17 16 13 16 -11z m930 -282 c0 -8 -51 -13 -56 -5 -3 5 9 9 25 9 17 0 31 -2 31 -4z m-1100 -115 c0 -10 -69 -25 -77 -17 -3 2 -3 9 0 13 8 12 77 16 77 4z m244 -60 c3 -5 -9 -11 -28 -13 -24 -3 -32 0 -29 9 6 15 49 18 57 4z m-287 -118 c-3 -10 -5 -2 -5 17 0 19 2 27 5 18 2 -10 2 -26 0 -35z"/>
<path d="M2505 4130 c-3 -5 3 -10 15 -10 12 0 18 5 15 10 -3 6 -10 10 -15 10 -5 0 -12 -4 -15 -10z"/>
<path d="M713 2193 c-7 -2 -13 -13 -13 -24 0 -17 3 -18 20 -7 32 20 26 45 -7 31z"/>
</g>
<g id="layer106" fill="#b89b70" stroke="none">
<path d="M2052 4893 c-10 -18 -27 -22 -107 -26 -27 -2 -59 -8 -71 -14 -11 -7 -30 -10 -42 -7 -14 4 -25 -1 -34 -15 -7 -12 -20 -21 -29 -21 -9 0 -19 -9 -22 -20 -3 -11 -13 -20 -22 -20 -20 0 -64 -49 -65 -73 0 -26 -30 -80 -52 -96 -11 -7 -17 -19 -14 -27 3 -7 -8 -22 -25 -34 -16 -12 -26 -26 -22 -32 4 -7 0 -9 -10 -5 -25 9 -81 -13 -67 -27 8 -8 14 -7 21 4 9 12 10 12 5 -3 -3 -10 -6 -21 -6 -23 0 -2 -11 -4 -25 -4 -13 0 -33 -10 -45 -22 -21 -23 -27 -58 -10 -58 6 0 10 -4 10 -10 0 -5 -8 -10 -18 -10 -13 0 -22 -13 -31 -49 -8 -33 -20 -52 -37 -61 -13 -7 -24 -21 -24 -31 0 -22 -28 -33 -46 -18 -10 8 -14 8 -14 0 0 -6 -9 -11 -21 -11 -11 0 -17 -4 -14 -10 3 -5 -1 -10 -9 -10 -19 0 -21 -16 -3 -23 9 -4 9 -6 0 -6 -9 -1 -13 -18 -13 -52 0 -31 -6 -56 -15 -65 -8 -9 -15 -32 -14 -52 1 -38 3 -36 13 11 4 15 11 25 16 22 6 -3 10 -1 10 4 0 6 4 11 9 11 4 0 6 -11 3 -25 -7 -39 12 -53 63 -47 28 3 45 1 45 -6 0 -6 -11 -9 -25 -6 -14 2 -25 0 -25 -6 0 -5 -3 -9 -7 -9 -21 3 -33 -2 -33 -15 0 -8 -10 -17 -22 -19 -17 -3 -14 -5 10 -6 25 -1 32 -5 32 -21 0 -11 -5 -20 -11 -20 -5 0 -7 -4 -4 -10 6 -9 -10 -14 -42 -13 -7 1 -10 -3 -7 -8 3 -5 0 -9 -5 -9 -6 0 -11 -4 -11 -10 0 -5 14 -7 33 -4 24 4 28 3 17 -5 -12 -9 -11 -11 8 -11 13 0 21 -4 18 -9 -3 -4 5 -6 18 -4 16 3 28 -2 38 -15 10 -14 18 -18 28 -12 11 7 8 11 -13 19 -24 9 -27 16 -26 53 0 24 3 37 6 31 6 -15 33 -17 33 -3 0 6 11 10 25 10 19 0 25 -5 25 -21 0 -18 -5 -21 -35 -17 -28 3 -35 1 -35 -14 0 -19 35 -32 67 -26 13 2 18 13 19 41 1 20 -2 37 -6 37 -14 0 -19 70 -7 93 11 20 16 22 45 15 18 -5 30 -13 27 -18 -11 -17 15 -21 80 -9 51 9 69 8 80 -1 8 -7 15 -9 15 -4 0 5 4 2 10 -6 5 -9 22 -13 47 -12 25 2 33 -1 24 -7 -17 -11 -6 -31 19 -31 12 0 21 10 25 30 7 31 25 42 25 15 0 -8 7 -15 15 -15 8 0 15 7 15 15 0 15 5 17 45 20 70 5 97 19 143 73 81 95 115 123 177 151 61 27 73 26 85 -5 6 -14 15 -22 21 -19 6 4 16 -1 23 -11 10 -13 15 -14 21 -4 4 7 2 16 -6 22 -11 8 -11 9 2 5 9 -3 23 3 33 14 20 24 20 29 -1 30 -10 0 2 9 27 19 l45 19 -100 -5 c-126 -5 -152 -11 -179 -38 l-21 -21 -4 25 c-3 27 22 81 57 118 12 14 22 29 22 33 0 5 7 9 16 9 24 0 74 61 74 90 0 14 6 32 12 38 10 10 10 15 -2 22 -13 8 -12 10 4 10 12 0 16 5 12 15 -3 9 0 15 9 15 19 0 27 16 20 40 -7 22 -31 27 -38 8 -2 -7 -2 10 1 37 3 28 10 54 16 58 8 6 8 10 -1 14 -9 3 -9 11 3 29 11 16 12 24 4 24 -6 0 -18 7 -26 15 -14 13 -13 15 3 16 16 0 16 1 -2 8 -19 8 -19 8 4 16 32 10 6 27 -29 18 -25 -6 -25 -6 -6 16 12 13 15 21 7 21 -15 0 -50 40 -51 58 0 17 -20 15 -20 -2 0 -16 -46 -14 -79 3 -30 16 -69 13 -79 -6z m-572 -495 c0 -16 -3 -19 -11 -11 -6 6 -8 16 -5 22 11 17 16 13 16 -11z m-170 -397 c0 -10 -69 -25 -77 -17 -3 2 -3 9 0 13 8 12 77 16 77 4z m244 -60 c3 -5 -9 -11 -28 -13 -24 -3 -32 0 -29 9 6 15 49 18 57 4z m-287 -118 c-3 -10 -5 -2 -5 17 0 19 2 27 5 18 2 -10 2 -26 0 -35z"/>
<path d="M2560 4755 c0 -8 -4 -15 -9 -15 -5 0 -23 -13 -39 -30 -17 -16 -25 -30 -18 -30 15 0 76 -29 76 -36 0 -3 -4 -2 -10 1 -5 3 -10 2 -10 -4 0 -12 7 -16 42 -25 27 -6 32 4 14 33 -7 11 -4 13 12 9 15 -4 23 0 27 13 8 23 -1 39 -22 39 -9 0 -13 6 -9 15 3 9 0 15 -10 15 -8 0 -17 7 -20 15 -4 8 -10 15 -15 15 -5 0 -9 -7 -9 -15z"/>
<path d="M2485 4660 c-3 -4 4 -10 15 -13 14 -4 18 -10 13 -23 -4 -12 -3 -15 5 -10 19 12 14 43 -8 49 -11 3 -22 2 -25 -3z"/>
<path d="M1497 4553 c-12 -11 -8 -23 8 -23 8 0 15 7 15 15 0 16 -12 20 -23 8z"/>
<path d="M1200 4210 c-12 -8 -12 -10 2 -15 19 -7 38 1 38 16 0 12 -21 11 -40 -1z"/>
<path d="M1126 3915 c28 -37 44 -44 44 -20 0 8 -7 15 -15 15 -8 0 -19 9 -25 20 -6 11 -15 20 -21 20 -5 0 2 -16 17 -35z"/>
<path d="M1137 3863 c-13 -12 -7 -23 13 -23 11 0 20 7 20 15 0 15 -21 21 -33 8z"/>
<path d="M2330 3860 c0 -5 6 -10 14 -10 8 0 18 5 21 10 3 6 -3 10 -14 10 -12 0 -21 -4 -21 -10z"/>
<path d="M1131 3816 c-9 -11 -6 -12 14 -8 14 2 22 8 19 13 -8 13 -20 11 -33 -5z"/>
<path d="M1140 3750 c-12 -8 -11 -10 8 -10 12 0 22 5 22 10 0 13 -11 13 -30 0z"/>
<path d="M1976 3737 c-31 -20 -66 -54 -66 -65 0 -5 -7 -12 -15 -16 -8 -3 -15 -12 -15 -19 0 -8 -7 -20 -15 -27 -9 -7 -13 -20 -11 -29 5 -17 -25 -61 -42 -61 -15 0 -21 -36 -15 -96 5 -48 4 -54 -11 -48 -17 7 -21 -3 -8 -24 5 -7 16 -10 25 -6 13 4 17 1 17 -15 0 -12 -6 -21 -15 -21 -18 0 -19 -9 0 -33 7 -11 11 -26 8 -35 -4 -10 -2 -13 5 -8 7 4 12 3 12 -3 0 -5 -4 -12 -9 -16 -6 -3 -4 -17 5 -33 7 -15 14 -47 14 -72 0 -39 30 -132 61 -192 6 -12 5 -18 -1 -18 -5 0 -10 5 -10 10 0 18 -22 10 -27 -10 -3 -11 -9 -20 -13 -20 -4 0 -10 9 -13 20 -3 11 -14 20 -24 20 -11 0 -26 11 -33 25 -7 14 -17 25 -22 25 -4 0 -8 9 -8 19 0 11 -11 28 -25 39 -19 15 -25 29 -25 56 0 22 -9 49 -21 66 -12 16 -19 35 -16 44 4 10 1 13 -9 9 -8 -3 -21 3 -28 13 -12 16 -11 20 3 31 10 8 12 12 4 13 -7 0 -13 9 -13 20 0 11 -5 20 -10 20 -16 0 -24 -31 -11 -40 9 -5 5 -9 -10 -13 -28 -7 -39 1 -19 13 11 7 12 10 2 10 -7 0 -11 4 -7 9 6 10 -6 15 -65 27 -19 3 -40 14 -47 23 -22 29 -14 33 18 8 27 -21 34 -22 65 -13 43 14 39 27 -14 45 -41 12 -42 14 -36 46 5 31 4 33 -30 39 -46 9 -103 -2 -110 -20 -3 -8 -14 -14 -25 -14 -13 0 -19 5 -15 14 3 8 0 16 -8 19 -7 2 -3 2 9 0 24 -3 103 27 103 39 0 5 -9 8 -20 8 -11 0 -20 -4 -20 -8 0 -5 -21 -9 -47 -9 -42 0 -44 2 -21 9 34 12 47 41 15 36 -17 -2 -23 3 -25 21 -2 13 2 28 10 32 10 7 9 9 -4 9 -10 0 -18 5 -18 10 0 21 -2 25 -17 42 -14 16 -13 17 13 15 23 -2 29 2 27 17 -1 15 4 17 30 12 38 -7 16 8 -26 18 -19 4 -26 3 -22 -4 3 -5 0 -10 -7 -10 -10 0 -9 -3 2 -11 12 -8 10 -9 -7 -4 -15 4 -28 -1 -42 -16 -12 -13 -21 -26 -21 -31 0 -15 -28 -8 -35 10 -6 16 -7 16 -16 -1 -6 -9 -14 -15 -19 -12 -13 8 -1 35 15 35 9 0 11 8 7 22 -4 17 -2 20 11 15 10 -4 17 -2 17 3 0 5 6 7 14 4 19 -7 32 16 16 26 -8 5 -24 1 -39 -8 -14 -9 -33 -16 -42 -14 -10 2 -20 -2 -24 -8 -3 -5 0 -10 7 -10 7 0 -3 -11 -22 -24 -24 -16 -37 -20 -42 -13 -4 6 -10 8 -14 4 -4 -3 -2 -13 5 -20 6 -8 9 -29 7 -48 -3 -28 -8 -35 -30 -37 -33 -4 -34 -29 -1 -44 30 -14 33 -28 5 -28 -12 0 -20 -7 -20 -16 0 -21 -24 -44 -47 -45 -15 0 -14 -2 5 -9 25 -11 29 -42 7 -60 -8 -7 -15 -19 -15 -26 0 -8 -4 -14 -10 -14 -5 0 -10 -4 -10 -10 0 -10 -20 -37 -52 -72 -27 -28 -22 -41 12 -34 19 3 29 2 25 -4 -3 -6 -16 -11 -28 -11 -15 -1 -17 -3 -6 -6 20 -5 14 -43 -7 -43 -8 0 -14 -7 -14 -16 0 -9 -8 -32 -17 -51 -13 -28 -14 -39 -5 -54 26 -41 5 -78 -26 -47 -9 9 -12 6 -12 -14 0 -21 4 -25 20 -21 25 7 26 -11 3 -29 -15 -11 -18 -31 -19 -125 -1 -62 2 -113 7 -113 5 0 8 -34 6 -75 -1 -56 1 -75 11 -75 7 0 10 -5 7 -10 -4 -6 -11 -8 -16 -5 -5 4 -9 1 -9 -4 0 -6 4 -11 8 -11 5 0 9 -32 10 -72 0 -39 5 -75 11 -81 5 -5 7 -25 4 -45 -4 -23 -3 -33 5 -29 6 5 8 0 5 -11 -2 -11 1 -54 7 -98 6 -43 15 -164 20 -269 4 -104 13 -228 20 -275 39 -287 75 -459 98 -476 8 -6 12 -16 8 -22 -4 -7 -1 -12 6 -12 7 0 19 -9 26 -20 7 -11 19 -20 26 -20 8 0 18 -9 21 -20 6 -18 23 -24 62 -23 7 1 11 -3 8 -7 -3 -4 6 -11 20 -14 14 -4 25 -13 25 -20 0 -9 7 -12 19 -9 10 3 22 0 25 -6 4 -6 16 -11 27 -11 10 0 19 -5 19 -11 0 -5 5 -7 11 -4 5 4 21 -5 35 -20 13 -14 24 -21 24 -16 0 6 9 2 20 -9 11 -11 20 -24 20 -29 0 -5 7 -12 16 -15 8 -3 13 -10 10 -15 -3 -5 5 -16 19 -25 20 -13 25 -25 25 -59 -1 -39 -2 -41 -15 -23 -15 19 -15 19 -15 -2 0 -12 6 -22 13 -22 8 -1 7 -4 -3 -13 -8 -7 -15 -19 -15 -27 0 -8 7 -18 15 -22 11 -5 10 -7 -5 -7 -12 -1 -25 -13 -34 -31 -11 -26 -16 -29 -28 -19 -12 10 -16 10 -23 -1 -7 -11 -11 -11 -23 -1 -11 9 -17 9 -22 1 -4 -6 -14 -9 -22 -6 -8 3 -11 1 -8 -4 8 -13 -1 -13 -25 0 -15 8 -17 6 -13 -13 5 -22 5 -22 -11 -2 -16 19 -16 19 -7 -6 5 -15 7 -30 3 -34 -3 -3 2 -3 13 1 16 5 18 4 8 -6 -12 -13 2 -60 18 -60 4 0 10 -9 14 -19 9 -30 133 -153 205 -203 86 -60 247 -145 323 -170 139 -46 153 -47 594 -48 l421 0 112 35 c100 31 199 72 298 123 18 9 30 22 27 29 -3 8 4 13 20 13 28 0 43 19 24 31 -11 7 -10 11 5 22 15 11 18 21 13 46 -6 27 -4 34 13 38 11 3 20 7 20 10 0 12 -29 31 -57 37 -24 6 -34 3 -41 -10 -11 -19 -32 -11 -32 12 0 11 -6 13 -20 9 -16 -5 -20 -2 -20 14 0 13 -7 21 -17 22 -10 0 -36 2 -58 3 -22 1 -50 -4 -62 -11 -12 -7 -32 -12 -45 -12 -13 1 -41 -1 -62 -5 -23 -3 -45 -1 -53 5 -7 6 -19 9 -28 5 -9 -3 -19 3 -25 14 -6 11 -15 20 -21 20 -6 0 -7 -4 -4 -10 3 -5 1 -10 -4 -10 -6 0 -11 5 -11 10 0 6 -9 10 -20 10 -11 0 -20 5 -20 11 0 6 7 9 15 5 9 -3 15 0 15 9 0 7 6 15 13 18 6 2 5 3 -4 2 -9 -1 -23 1 -30 6 -11 6 -6 15 21 37 l34 29 -29 17 -30 17 28 -6 c27 -6 28 -4 23 23 -6 23 -1 35 29 65 23 24 41 34 51 30 13 -5 15 -2 9 15 -5 16 -2 22 9 22 9 0 16 5 16 11 0 6 7 8 15 5 9 -3 18 1 21 9 4 8 10 13 14 10 10 -6 50 43 50 61 0 8 5 14 10 14 6 0 10 -5 10 -10 0 -11 34 5 58 28 7 6 18 12 24 12 6 0 20 8 30 17 14 13 21 14 30 5 15 -15 28 -15 28 -2 0 6 -7 10 -15 10 -8 0 -15 7 -15 16 0 12 6 15 24 10 23 -6 24 -4 16 24 -5 16 -5 30 -1 30 5 0 8 13 7 29 -1 37 -19 30 -36 -14 -8 -19 -17 -35 -22 -35 -12 0 -10 28 2 32 12 4 15 45 5 81 -6 23 -4 27 14 27 12 0 21 5 21 10 0 6 -9 10 -20 10 -12 0 -32 8 -47 17 -24 16 -26 16 -38 0 -11 -16 -14 -15 -30 9 -11 18 -14 29 -7 36 6 6 8 18 4 27 -5 14 -4 14 11 2 26 -21 34 -4 9 18 -30 25 -28 35 2 16 23 -16 24 -15 19 4 -3 14 -13 21 -29 21 -12 0 -25 4 -29 10 -3 5 -12 7 -20 3 -11 -4 -15 2 -15 21 0 31 -17 35 -22 4 -2 -12 -9 -23 -17 -26 -10 -3 -12 2 -8 19 4 15 -1 33 -12 48 -19 25 -41 22 -41 -5 0 -19 -25 -13 -26 7 -2 32 -17 68 -30 73 -20 8 -29 -20 -14 -39 10 -12 9 -16 -3 -21 -10 -4 -29 7 -52 29 -22 21 -45 34 -61 35 -14 0 -35 4 -47 10 -12 6 -43 13 -69 17 l-48 6 0 43 c0 23 -7 51 -15 62 -8 10 -15 29 -15 42 0 12 -4 22 -8 22 -4 0 -16 22 -27 49 -10 28 -23 48 -27 45 -4 -3 -8 6 -8 21 0 14 6 28 14 31 12 4 12 12 4 36 -8 23 -8 32 2 38 10 6 9 9 -1 13 -12 4 -11 7 1 16 10 7 11 11 3 11 -21 0 -15 17 17 54 20 23 27 37 19 41 -15 10 -2 88 22 131 22 40 24 93 5 145 -8 22 -9 43 -5 52 5 8 12 159 15 334 5 284 4 321 -10 336 -9 8 -16 20 -16 26 0 6 -5 11 -11 11 -8 0 -8 4 -1 13 8 10 5 16 -11 27 -12 7 -23 12 -25 11 -1 -1 -10 5 -18 14 -9 8 -26 15 -39 15 -17 0 -22 4 -18 18 3 12 -2 18 -14 19 -10 0 -52 4 -93 9 -95 10 -200 6 -217 -7 -9 -8 -20 -6 -40 8 -15 10 -40 24 -55 31 -16 6 -28 16 -28 22 0 6 -9 14 -20 18 -20 8 -20 9 9 50 34 46 41 49 161 56 57 3 101 12 135 27 56 25 67 35 95 97 21 44 37 53 46 27 9 -23 103 -14 142 14 18 12 32 27 32 32 0 5 8 9 18 9 21 0 43 32 32 49 -16 27 -150 91 -189 91 -16 0 -46 -7 -67 -16 -62 -26 -150 -12 -291 47 -18 7 -33 17 -33 21 0 12 -63 8 -84 -5z m-840 -202 c8 -19 -13 -45 -34 -45 -13 0 -12 2 3 14 11 8 16 19 12 30 -4 9 -2 16 4 16 5 0 12 -7 15 -15z m114 -36 c0 -10 -4 -19 -8 -19 -15 0 -31 22 -25 36 7 18 33 5 33 -17z m530 -1078 c25 -6 66 -13 93 -16 29 -4 47 -11 47 -19 0 -9 19 -15 55 -18 31 -3 60 -9 65 -14 9 -9 -50 -84 -67 -84 -17 0 -147 -41 -188 -60 -75 -33 -148 -44 -211 -31 -32 6 -73 11 -91 11 -19 0 -100 24 -181 54 -157 58 -198 70 -276 81 -48 7 -49 7 -29 26 16 16 37 20 127 24 59 3 112 8 118 11 6 4 47 8 92 9 106 4 103 4 86 15 -13 9 -13 10 0 11 8 0 24 3 35 5 11 3 42 6 68 8 27 2 50 5 52 7 6 7 158 -8 205 -20z m139 -520 c8 -5 9 -11 3 -15 -13 -8 -42 3 -42 15 0 11 21 11 39 0z m67 -41 c20 -17 29 -32 23 -36 -8 -4 -8 -9 0 -17 6 -6 11 -22 11 -36 0 -21 -2 -23 -10 -11 -9 14 -14 7 -11 -13 1 -4 -11 -4 -25 -1 l-26 7 16 -32 c12 -23 23 -31 43 -31 26 0 26 -1 7 -16 -18 -15 -18 -15 9 -9 22 4 27 2 27 -14 0 -10 -8 -22 -17 -25 -21 -8 -69 26 -67 47 1 11 -11 16 -49 19 -41 2 -51 0 -55 -14 -2 -10 -13 -18 -23 -18 -18 0 -18 1 2 36 17 30 17 35 4 30 -9 -3 -18 0 -21 9 -4 8 -10 12 -15 10 -5 -3 -11 7 -15 22 -3 15 -7 33 -9 39 -2 6 10 21 26 33 16 12 29 17 29 11 0 -12 37 -14 42 -2 2 5 15 12 31 16 20 5 27 3 27 -9 0 -8 5 -15 10 -15 6 0 10 4 10 9 0 6 -4 13 -10 16 -11 7 -14 25 -4 25 4 0 21 -13 40 -30z m174 -291 c0 -5 -11 -9 -25 -9 -28 0 -31 5 -12 24 12 14 37 4 37 -15z m632 -1015 c-24 -17 -39 -14 -27 5 3 6 16 11 28 11 l21 0 -22 -16z m363 -424 c-3 -5 -13 -10 -21 -10 -8 0 -14 5 -14 10 0 6 9 10 21 10 11 0 17 -4 14 -10z"/>
<path d="M1555 2402 c-14 -14 13 -22 73 -22 42 0 61 4 52 9 -17 10 -117 20 -125 13z"/>
<path d="M3145 2770 c-4 -6 -3 -15 1 -22 5 -8 2 -9 -10 -5 -10 4 -25 -2 -39 -16 -23 -23 -26 -24 -64 -26 -13 -1 -23 -7 -23 -16 0 -8 -4 -15 -9 -15 -5 0 -12 -8 -14 -17 -4 -17 -5 -17 -6 0 0 9 -5 17 -10 17 -12 0 -25 -39 -22 -67 1 -11 -3 -24 -8 -28 -7 -4 -11 5 -11 24 0 16 -4 32 -9 35 -10 6 -31 -37 -31 -64 0 -13 -5 -17 -14 -14 -9 4 -20 -7 -32 -31 -9 -20 -27 -41 -40 -45 -29 -12 -40 -30 -23 -41 12 -8 12 -10 0 -18 -12 -8 -12 -12 -2 -25 12 -14 10 -16 -13 -16 -14 0 -26 -5 -26 -11 0 -5 5 -7 11 -3 8 5 10 -4 7 -29 -2 -20 0 -33 4 -31 13 8 9 -9 -7 -30 -15 -20 -3 -62 16 -51 5 4 9 -5 9 -18 0 -14 7 -30 15 -37 8 -7 15 -21 15 -31 0 -13 7 -19 21 -19 16 0 19 -4 14 -20 -5 -14 -2 -20 9 -20 9 0 16 -8 16 -19 0 -11 9 -21 21 -24 15 -4 19 -11 15 -25 -5 -14 1 -22 21 -31 16 -8 23 -15 16 -19 -8 -5 -8 -12 2 -25 8 -12 15 -14 20 -8 9 15 25 14 25 -2 0 -7 14 -14 33 -15 17 -2 33 -7 35 -12 2 -5 26 -12 53 -16 27 -4 49 -10 49 -15 0 -14 28 -11 33 4 4 8 12 4 26 -13 11 -14 21 -20 21 -13 0 6 9 15 20 18 11 3 20 13 20 22 0 11 6 14 25 9 14 -4 25 -2 25 4 0 5 16 10 36 10 31 0 35 2 24 15 -10 12 -9 16 6 22 33 12 44 30 47 76 3 35 1 44 -9 40 -8 -3 -14 -10 -14 -17 0 -6 -5 -3 -11 7 -7 12 -17 16 -30 12 -10 -4 -24 -3 -31 2 -7 4 -17 8 -23 8 -5 0 -11 7 -13 15 -3 15 14 19 110 24 14 0 24 4 22 8 -2 4 0 9 6 13 5 3 10 11 10 17 0 7 -24 8 -72 4 -62 -5 -83 -3 -140 18 -70 25 -233 110 -243 126 -3 6 -16 10 -27 10 -12 0 -28 7 -37 15 -9 8 -27 24 -41 34 -14 11 -22 22 -19 25 3 3 30 8 60 10 30 2 72 11 93 20 21 9 42 13 47 10 5 -3 15 -2 22 3 6 4 41 15 76 25 35 9 68 24 73 32 5 9 16 16 25 16 10 0 13 6 9 16 -3 9 -6 25 -6 36 0 11 -8 22 -20 25 -23 6 -27 33 -6 33 8 0 18 5 22 12 5 8 2 9 -9 5 -9 -3 -19 -3 -21 2 -3 4 10 14 29 21 36 14 47 30 21 30 -11 0 -14 12 -12 45 2 32 -1 45 -11 45 -9 0 -13 -13 -13 -40 0 -31 -3 -38 -15 -34 -9 4 -14 13 -13 22 2 9 -6 18 -20 21 -13 3 -23 10 -22 16 2 13 -38 26 -45 15z"/>
<path d="M3317 2584 c-4 -4 -7 -14 -7 -23 0 -11 3 -12 11 -4 6 6 10 16 7 23 -2 6 -7 8 -11 4z"/>
<path d="M706 2100 c-13 -4 -8 -10 19 -24 42 -23 49 -19 19 10 -12 12 -28 18 -38 14z"/>
<path d="M788 1954 c2 -20 8 -32 12 -27 10 9 1 63 -9 63 -4 0 -5 -16 -3 -36z"/>
<path d="M793 1875 c0 -22 2 -30 4 -17 2 12 2 30 0 40 -3 9 -5 -1 -4 -23z"/>
<path d="M830 1760 c0 -8 5 -22 10 -30 9 -13 10 -13 10 0 0 8 -5 22 -10 30 -9 13 -10 13 -10 0z"/>
<path d="M3140 1285 c0 -9 5 -15 11 -13 6 2 11 8 11 13 0 5 -5 11 -11 13 -6 2 -11 -4 -11 -13z"/>
<path d="M2845 659 c-4 -6 -5 -13 -2 -16 7 -7 27 6 27 18 0 12 -17 12 -25 -2z"/>
<path d="M1195 450 c9 -16 20 -30 26 -30 5 0 0 14 -13 30 -12 17 -23 30 -25 30 -2 0 3 -13 12 -30z"/>
<path d="M1239 395 c5 -11 26 -38 45 -59 35 -39 42 -62 11 -36 -9 7 -18 11 -20 8 -7 -7 176 -178 191 -178 3 0 20 -11 37 -24 44 -33 190 -106 213 -106 11 0 -19 18 -65 41 -46 22 -113 60 -150 84 -76 50 -179 140 -170 149 3 3 26 -12 50 -34 24 -22 47 -40 52 -40 12 0 8 18 -5 23 -7 2 -10 7 -7 11 4 4 13 1 20 -6 18 -17 199 -138 207 -138 4 -1 25 -9 47 -20 22 -11 45 -19 52 -20 6 0 13 -4 15 -9 2 -5 19 -11 38 -15 l35 -6 -35 17 c-190 91 -245 121 -310 169 -41 31 -85 65 -97 76 -13 12 -23 17 -23 11 0 -6 12 -18 26 -28 14 -9 23 -19 20 -22 -3 -3 -22 6 -41 21 -25 19 -34 33 -30 45 3 11 -4 26 -20 41 -14 13 -25 18 -25 12 0 -6 10 -18 22 -26 12 -9 18 -19 14 -23 -4 -4 -30 17 -57 47 -27 30 -45 46 -40 35z"/>
<path d="M3365 318 c-4 -10 -4 -26 0 -35 6 -17 7 -17 16 0 7 11 7 23 0 35 -9 16 -10 16 -16 0z"/>
<path d="M1450 186 c0 -8 147 -103 185 -120 22 -10 58 -26 80 -37 22 -10 56 -21 75 -24 19 -3 28 -2 20 1 -8 4 -53 23 -100 42 -47 20 -120 60 -163 89 -69 47 -97 61 -97 49z"/>
</g>
<g id="layer107" fill="#dbc090" stroke="none">
<path d="M1900 4645 c0 -6 4 -15 10 -21 6 -6 6 -15 0 -24 -7 -10 -10 -11 -10 -2 0 6 -4 12 -10 12 -5 0 -10 -11 -10 -23 0 -16 -9 -28 -25 -35 -17 -8 -25 -20 -25 -37 0 -14 -4 -25 -9 -25 -14 0 -18 -31 -8 -69 6 -22 5 -37 -2 -44 -15 -15 -14 -62 3 -76 7 -6 16 -30 19 -54 3 -24 9 -51 13 -60 4 -13 1 -17 -15 -17 -12 0 -21 -4 -21 -10 0 -5 5 -10 11 -10 6 0 4 -7 -5 -15 -8 -9 -12 -23 -9 -32 6 -14 8 -14 20 3 13 18 14 17 34 -3 15 -14 22 -35 23 -63 1 -39 2 -41 26 -35 14 4 42 9 63 12 37 5 47 16 27 28 -8 5 -8 11 -1 19 6 7 8 15 5 19 -3 3 -3 20 1 37 6 28 8 29 19 14 12 -16 13 -15 19 5 3 14 1 21 -9 21 -18 0 -22 55 -9 118 4 15 1 22 -10 22 -8 0 -15 5 -15 10 0 6 8 10 19 10 10 0 24 7 31 15 7 8 19 15 26 15 8 0 14 7 14 15 0 17 -17 20 -22 4 -4 -11 -74 -30 -82 -21 -4 3 -6 38 -6 78 0 40 -4 74 -10 76 -5 2 -12 26 -14 53 -6 64 -7 66 -16 30 l-8 -30 -1 31 c-1 27 -30 83 -31 59z"/>
<path d="M1832 4078 c3 -7 12 -14 21 -16 12 -2 15 1 11 12 -7 19 -38 22 -32 4z"/>
<path d="M2017 3693 c-4 -3 -7 -19 -7 -34 0 -15 -4 -31 -10 -34 -5 -3 -10 -15 -10 -26 0 -10 -6 -19 -14 -19 -25 0 -28 -18 -6 -40 l20 -20 -22 0 c-21 0 -64 -20 -44 -20 5 0 2 -8 -7 -18 -9 -9 -14 -26 -13 -37 2 -11 -1 -29 -7 -40 -16 -30 -20 -120 -8 -158 9 -25 9 -42 0 -63 -6 -16 -11 -63 -11 -104 0 -69 3 -80 38 -140 40 -69 45 -97 19 -116 -9 -7 -14 -18 -13 -25 2 -8 -7 -13 -22 -13 -16 -1 -29 -9 -35 -23 -11 -26 -8 -26 -270 -25 -107 0 -175 -4 -183 -10 -9 -8 -16 -8 -24 0 -9 9 -8 12 5 12 10 0 14 5 11 15 -4 8 -13 15 -22 15 -23 0 -2 17 28 24 14 2 -1 2 -32 0 -49 -5 -60 -2 -78 16 -13 13 -30 20 -41 17 -10 -3 -22 -1 -25 4 -8 14 -24 11 -24 -5 0 -8 -11 -27 -25 -42 -19 -20 -22 -30 -13 -35 7 -4 17 -5 23 -2 5 3 5 0 -2 -7 -10 -10 -15 -11 -27 -1 -22 18 -72 -15 -54 -36 6 -8 22 -13 35 -10 15 3 23 -1 23 -9 0 -9 -9 -12 -30 -9 -16 3 -43 7 -60 10 -18 3 -30 0 -30 -7 0 -13 47 -58 61 -58 17 0 9 -18 -11 -23 -27 -7 -26 -36 2 -46 l22 -8 -24 -6 c-15 -4 -21 -11 -17 -21 4 -9 -2 -23 -11 -32 -9 -10 -18 -26 -18 -37 -1 -15 3 -17 22 -13 16 4 24 2 24 -6 1 -9 5 -8 13 3 9 12 18 14 36 8 12 -5 26 -7 29 -5 4 2 71 11 148 20 146 17 288 15 429 -6 39 -5 80 -10 93 -10 12 0 22 -4 22 -9 0 -5 13 -9 29 -9 17 0 33 -4 36 -10 3 -5 17 -10 31 -10 13 0 24 -4 24 -9 0 -5 14 -12 31 -16 33 -8 58 -50 39 -69 -13 -13 -13 -29 0 -21 6 3 10 2 10 -4 0 -5 -6 -11 -12 -14 -10 -3 -12 -30 -11 -97 2 -79 6 -96 23 -112 20 -18 20 -18 20 2 0 11 7 20 15 20 8 0 15 -7 15 -15 0 -13 4 -14 20 -5 11 6 20 7 20 2 0 -16 37 -52 53 -52 8 0 24 -12 36 -27 16 -23 23 -26 38 -17 10 6 33 10 51 8 23 -3 32 0 32 11 0 8 9 15 20 15 11 0 20 5 20 10 0 6 6 10 13 10 22 1 52 54 57 105 4 33 10 49 18 47 10 -2 12 26 7 130 -3 73 -11 150 -17 170 -9 32 -9 41 5 56 21 23 22 61 3 97 -11 22 -12 32 -3 46 7 11 15 19 19 19 5 0 8 9 8 20 0 11 -4 20 -9 20 -16 0 -20 28 -8 59 8 23 8 36 -3 58 -8 15 -15 39 -16 53 -4 56 -18 105 -31 113 -17 11 -7 28 12 20 25 -9 17 14 -11 32 -20 13 -41 16 -85 13 -33 -2 -59 -1 -59 4 0 4 -11 8 -25 8 -18 0 -25 5 -25 19 0 17 -4 19 -32 10 -53 -15 -138 -11 -144 6 -9 22 -34 18 -34 -5 0 -26 -6 -25 -36 7 -23 25 -28 26 -56 15 -39 -14 -48 -9 -48 32 0 58 95 181 140 181 14 0 24 5 23 10 0 6 10 18 23 28 23 17 24 17 24 -3 0 -13 7 -20 20 -20 14 0 20 7 20 22 0 12 3 18 8 14 4 -4 7 -12 7 -17 0 -10 9 -11 45 -2 38 9 72 34 66 49 -3 8 0 11 10 7 8 -3 14 -2 13 3 -3 18 26 74 38 74 7 0 13 5 13 10 0 6 9 19 21 31 18 18 23 19 37 6 28 -24 80 -37 107 -27 29 11 48 44 40 69 -15 47 -75 59 -230 46 -58 -5 -83 -2 -145 18 -42 14 -80 21 -85 16 -6 -4 -17 -4 -25 1 -17 11 -54 13 -63 3z m-739 -970 c-16 -2 -28 -8 -28 -13 0 -4 -9 -6 -20 -3 -33 9 -11 23 33 22 30 -2 34 -3 15 -6z m12 -43 c0 -5 -6 -10 -14 -10 -8 0 -18 5 -21 10 -3 6 3 10 14 10 12 0 21 -4 21 -10z"/>
<path d="M1176 2855 c-20 -30 -20 -36 -2 -29 16 6 40 54 27 54 -5 0 -16 -11 -25 -25z"/>
<path d="M1390 2850 c0 -5 7 -10 15 -10 8 0 15 5 15 10 0 6 -7 10 -15 10 -8 0 -15 -4 -15 -10z"/>
<path d="M1480 2853 c8 -3 18 -11 22 -17 4 -6 10 -7 15 -3 9 10 -16 27 -37 26 -13 -1 -13 -1 0 -6z"/>
<path d="M1460 2785 c28 -16 60 -19 60 -6 0 10 -35 21 -65 21 -18 -1 -17 -2 5 -15z"/>
<path d="M1025 2280 c-3 -6 1 -13 10 -16 19 -8 30 0 20 15 -8 14 -22 14 -30 1z"/>
<path d="M2898 2264 c-29 -15 -40 -48 -13 -38 17 7 19 0 5 -26 -16 -31 21 -90 65 -101 6 -1 9 -9 7 -18 -3 -19 47 -44 81 -39 13 1 32 -7 45 -20 20 -20 52 -30 52 -17 0 3 -8 18 -17 32 -10 15 -16 37 -15 50 2 14 -3 25 -12 29 -9 3 -16 10 -16 16 0 13 -17 29 -63 60 -40 27 -73 65 -64 74 3 3 15 -4 26 -15 24 -24 94 -61 116 -61 8 0 23 -4 33 -10 48 -28 179 -63 187 -50 3 4 -23 17 -56 29 -33 13 -93 40 -134 62 -41 21 -86 39 -100 39 -14 0 -25 5 -25 10 0 15 -71 11 -102 -6z"/>
<path d="M1172 2258 c5 -15 78 -24 78 -10 0 5 -14 12 -31 16 -44 9 -51 8 -47 -6z"/>
<path d="M1035 2231 c-11 -5 -33 -7 -48 -6 -21 3 -27 -1 -27 -16 0 -10 6 -19 13 -19 10 0 14 -14 14 -44 1 -54 17 -86 43 -86 15 0 19 -6 17 -30 -1 -16 -8 -30 -14 -30 -7 0 -12 5 -10 11 1 6 -4 14 -10 16 -20 7 -15 -11 12 -51 30 -44 31 -53 8 -59 -17 -4 -17 -5 0 -6 11 -1 17 -9 17 -25 0 -13 7 -26 15 -30 8 -3 15 -12 15 -21 0 -9 9 -15 23 -15 20 1 21 2 5 14 -20 15 -14 26 14 26 13 0 18 -7 18 -26 0 -20 3 -24 13 -16 8 7 18 6 31 -4 11 -8 43 -14 73 -14 29 0 53 -4 53 -10 0 -5 -18 -10 -40 -10 -40 0 -53 -13 -24 -24 9 -3 27 -6 40 -6 20 0 24 -5 24 -30 0 -28 2 -30 34 -28 26 1 32 5 28 20 -2 10 1 18 7 18 6 0 11 -4 11 -10 0 -5 10 -10 21 -10 16 0 20 5 16 20 -3 11 -1 20 3 20 5 0 11 -10 13 -22 3 -17 5 -14 6 10 0 17 6 32 12 32 6 0 8 -7 5 -16 -3 -8 -2 -12 3 -9 6 3 14 -3 20 -12 10 -17 10 -17 11 0 0 9 -4 17 -10 17 -5 0 -9 15 -9 33 1 21 3 25 6 12 8 -31 23 -42 23 -16 0 12 4 19 10 16 5 -3 8 -18 6 -33 -2 -15 -1 -19 1 -9 2 9 11 17 19 17 17 0 19 17 2 23 -10 3 -8 10 5 23 10 11 17 13 17 6 0 -7 5 -12 11 -12 5 0 7 5 4 10 -12 19 5 48 24 43 21 -5 47 30 36 47 -3 6 5 10 19 10 28 0 47 20 19 20 -15 1 -14 3 5 13 12 7 19 16 16 20 -4 4 5 7 19 7 15 0 27 5 27 10 0 6 -12 10 -27 10 -14 0 -23 3 -19 7 4 4 17 8 28 8 16 0 24 9 30 34 7 24 6 36 -2 41 -18 11 -2 50 25 62 24 11 24 32 0 41 -7 3 -24 -1 -38 -8 -35 -18 -84 -21 -192 -11 -103 9 -150 19 -217 46 -57 24 -98 26 -45 2 20 -9 37 -22 37 -28 0 -12 -51 -16 -60 -5 -9 12 -96 30 -117 25 -11 -3 -34 1 -51 10 -35 18 -38 18 -67 7z m81 -353 c-18 -10 -56 -2 -56 12 0 13 33 18 54 7 18 -9 18 -10 2 -19z"/>
<path d="M1885 2208 c-3 -7 -17 -14 -31 -14 -26 -2 -41 -10 -33 -19 7 -6 77 14 84 25 3 5 1 11 -5 15 -6 3 -12 0 -15 -7z"/>
<path d="M1987 2169 c-4 -16 -3 -18 9 -8 16 13 19 29 5 29 -5 0 -11 -9 -14 -21z"/>
<path d="M965 2033 c4 -16 9 -30 11 -32 6 -7 12 2 19 32 6 23 4 27 -15 27 -19 0 -21 -4 -15 -27z"/>
<path d="M1780 2036 c0 -8 -6 -16 -12 -19 -7 -2 -10 -8 -6 -12 4 -4 14 -2 23 5 17 14 20 40 5 40 -5 0 -10 -6 -10 -14z"/>
<path d="M1084 1714 c3 -9 6 -17 6 -20 0 -2 7 -1 15 2 8 4 15 1 15 -5 0 -6 -6 -11 -12 -11 -8 -1 -7 -5 4 -13 15 -12 15 -14 -4 -26 -11 -7 -22 -10 -25 -7 -3 3 -14 1 -25 -5 -15 -8 -19 -18 -16 -39 3 -20 1 -27 -9 -23 -19 7 -16 -14 3 -25 14 -8 16 -23 12 -96 -4 -82 -3 -86 15 -80 11 3 18 2 15 -2 -21 -46 -33 -64 -41 -64 -5 0 -4 -6 2 -14 7 -9 8 -17 2 -20 -12 -8 10 -56 27 -56 7 0 12 -13 12 -31 0 -32 8 -34 56 -18 21 7 17 -16 -5 -27 -20 -10 -20 -11 -3 -27 10 -10 27 -17 38 -17 21 0 64 -40 64 -59 0 -7 5 -9 10 -6 6 4 8 11 5 16 -17 26 91 -24 154 -73 13 -10 33 -18 45 -18 28 0 56 -20 39 -27 -17 -6 -16 -23 1 -23 17 0 24 -17 21 -50 -2 -32 28 -85 48 -84 9 1 13 -4 10 -12 -3 -8 0 -14 6 -14 6 0 11 -9 11 -21 0 -14 -5 -19 -20 -17 -10 2 -19 -1 -19 -6 1 -5 -5 -12 -11 -16 -9 -6 -9 -13 -1 -28 8 -14 8 -21 0 -24 -9 -3 -16 -46 -18 -106 -1 -7 -7 -12 -13 -11 -41 5 -77 -2 -72 -14 4 -10 -3 -12 -26 -9 -18 2 -44 -2 -58 -9 -15 -7 -28 -14 -30 -15 -1 0 5 -15 14 -32 8 -17 16 -40 17 -51 1 -12 6 -17 16 -13 9 3 12 1 8 -6 -7 -10 96 -122 112 -122 4 0 16 -8 27 -17 24 -21 27 -23 174 -101 63 -33 135 -65 160 -72 25 -6 54 -15 65 -19 61 -26 134 -32 335 -30 116 2 203 7 193 10 -14 6 -11 8 11 8 24 1 27 3 16 16 -7 9 -8 15 -2 15 5 0 13 -7 16 -16 3 -9 13 -14 21 -10 8 3 17 1 20 -4 3 -5 16 -8 28 -6 12 2 30 -1 40 -6 17 -9 59 8 100 41 29 24 19 32 -15 11 -19 -11 -36 -16 -42 -11 -6 5 -20 11 -31 14 -19 5 -19 5 3 12 29 10 28 21 -3 29 -15 4 -25 13 -25 25 0 10 -10 25 -22 33 -16 10 -19 20 -14 34 7 18 8 18 20 2 7 -10 33 -20 57 -24 l44 -7 -23 21 c-13 12 -31 18 -42 15 -14 -4 -20 0 -20 11 0 10 9 16 23 16 25 1 60 24 50 33 -3 4 -16 7 -29 7 -25 0 -38 24 -25 48 6 11 6 24 0 34 -5 9 -5 26 0 40 4 13 6 29 4 36 -3 6 1 12 9 12 17 1 67 39 51 40 -20 0 -93 34 -93 42 0 5 5 7 11 6 6 -2 14 3 16 10 3 6 -2 12 -11 12 -9 0 -16 7 -16 15 0 8 5 15 10 15 6 0 10 7 10 15 0 9 7 27 16 40 15 23 15 25 0 25 -9 0 -16 -7 -16 -15 0 -8 -6 -16 -12 -16 -7 -1 -26 -3 -43 -5 -16 -2 -33 2 -37 8 -5 9 -14 8 -34 -2 -21 -12 -28 -12 -31 -2 -3 6 -11 12 -18 12 -8 0 -19 10 -26 21 -8 16 -8 20 1 14 7 -4 23 -2 36 6 21 11 26 10 37 -3 6 -9 22 -19 35 -23 21 -6 22 -4 16 19 -4 16 -2 26 5 26 6 0 11 6 11 13 0 18 35 49 44 40 4 -4 12 0 17 10 6 9 17 17 24 17 9 0 15 10 15 25 0 16 6 25 15 25 18 0 20 17 4 22 -7 2 -12 20 -13 39 -1 29 -4 34 -23 32 -16 -2 -24 6 -33 30 l-11 32 -19 -25 c-25 -32 -25 -50 -1 -50 30 0 33 -16 7 -28 -20 -9 -25 -8 -31 6 -4 12 -8 13 -14 4 -4 -7 -18 -11 -32 -10 -20 3 -25 -2 -27 -24 -3 -24 0 -28 22 -28 33 0 34 -16 1 -22 -13 -3 -22 -1 -19 4 3 5 2 8 -3 7 -4 -1 -10 0 -13 1 -3 1 -20 3 -39 5 -18 2 -37 8 -41 15 -6 9 -11 6 -20 -10 -6 -12 -9 -24 -6 -28 3 -3 6 0 6 6 0 7 5 12 10 12 6 0 10 -7 10 -15 0 -19 56 -21 63 -2 2 6 8 9 12 5 5 -5 0 -18 -11 -30 -19 -21 -19 -21 3 -16 13 4 26 2 29 -3 3 -5 -2 -9 -10 -9 -8 0 -16 -10 -18 -22 -2 -14 -14 -25 -33 -31 -16 -6 -33 -15 -37 -21 -5 -7 -8 -7 -8 0 0 5 5 15 12 22 9 9 9 12 0 12 -17 0 -31 -41 -21 -61 4 -9 6 -19 2 -22 -3 -4 0 -15 8 -24 7 -10 9 -15 5 -11 -5 4 -15 3 -22 -3 -19 -16 -60 27 -44 46 9 11 5 17 -19 30 -17 8 -31 22 -31 30 0 19 9 19 31 -1 10 -9 23 -13 29 -9 15 9 3 25 -20 25 -30 0 -31 25 0 26 38 1 62 12 55 24 -4 7 -13 7 -26 -1 -11 -5 -28 -8 -37 -6 -11 3 -6 7 16 12 17 4 32 11 32 16 0 12 -47 11 -55 -1 -10 -15 -35 -12 -35 5 0 8 7 15 15 15 9 0 12 6 9 15 -7 17 -34 21 -34 5 0 -5 -5 -10 -10 -10 -6 0 -8 11 -4 26 5 18 3 25 -3 21 -6 -4 -14 3 -17 16 -6 20 -7 21 -20 5 -16 -21 -26 -13 -26 20 0 18 -4 23 -16 18 -9 -3 -18 -6 -20 -6 -2 0 -4 -7 -4 -16 0 -14 -3 -14 -15 -4 -17 14 -20 40 -4 40 5 0 7 5 4 10 -8 13 43 2 62 -12 8 -6 11 0 10 23 -1 20 4 35 16 43 15 9 21 7 37 -14 14 -18 16 -27 7 -33 -8 -6 -4 -7 10 -4 13 3 24 -1 27 -9 4 -10 14 -12 31 -8 19 5 25 2 25 -10 0 -9 -6 -16 -12 -16 -9 0 -9 -3 1 -9 10 -6 22 -4 37 7 14 11 18 19 11 24 -6 4 -8 10 -4 15 4 4 17 1 28 -6 12 -7 22 -11 23 -9 18 26 46 59 46 54 0 -4 7 -1 15 8 8 8 15 17 15 20 0 8 -78 2 -86 -7 -4 -4 -15 -7 -25 -7 -12 0 -16 -5 -13 -14 7 -19 -29 -38 -64 -34 -21 2 -26 8 -25 25 2 15 -2 21 -11 17 -7 -3 -20 6 -30 20 -18 28 -22 61 -6 51 6 -3 10 3 10 15 0 19 -5 21 -50 19 -27 -2 -53 0 -56 4 -4 4 0 7 9 7 9 0 17 5 17 10 0 6 -8 10 -17 10 -10 0 -14 4 -8 8 15 10 18 82 4 82 -6 0 -9 6 -6 14 3 8 1 17 -6 20 -7 2 -4 5 6 5 9 1 17 5 17 11 0 8 -22 7 -82 -5 -23 -4 -33 13 -29 47 1 16 -2 28 -9 28 -6 0 -9 -8 -6 -18 4 -10 0 -27 -8 -38 -12 -15 -17 -17 -28 -6 -10 10 -10 17 0 32 16 26 15 30 -7 30 -11 0 -23 5 -26 10 -3 6 -1 10 4 10 18 0 12 24 -9 38 -11 7 -31 10 -45 6 -38 -9 -52 6 -24 27 24 18 24 19 -21 32 -8 2 -30 -5 -48 -15 -18 -10 -40 -18 -50 -18 -16 1 -16 1 1 14 33 25 15 46 -41 46 -22 0 -24 2 -12 11 11 8 6 9 -20 5 -75 -12 -96 -13 -114 -3 -15 7 -22 5 -31 -7 -9 -12 -18 -14 -36 -7 -23 8 -22 9 14 19 21 6 53 8 72 5 33 -5 35 -4 35 21 0 14 -5 26 -11 26 -6 0 -9 -7 -6 -15 9 -21 -6 -26 -42 -12 -18 7 -29 17 -27 24 3 8 -2 13 -12 13 -10 0 -23 5 -29 11 -8 8 -19 8 -40 0 -19 -8 -21 -10 -6 -7 13 2 25 1 28 -4 3 -4 -6 -10 -18 -12 -35 -7 -98 3 -102 16 -2 6 -6 22 -9 37 -5 22 -9 25 -41 21 -30 -4 -35 -1 -35 17 0 12 -9 30 -20 41 -21 21 -40 19 -40 -3 0 -7 4 -6 10 3 7 11 10 11 10 2 0 -21 -20 -52 -33 -52 -15 0 -47 55 -47 81 0 14 -7 19 -26 19 -20 0 -25 -4 -20 -16z m248 -189 c0 -5 -5 -11 -11 -13 -6 -2 -11 4 -11 13 0 9 5 15 11 13 6 -2 11 -8 11 -13z m228 -65 c0 -5 -7 -10 -15 -10 -8 0 -15 5 -15 10 0 6 7 10 15 10 8 0 15 -4 15 -10z m400 -500 c0 -5 -6 -10 -14 -10 -8 0 -18 5 -21 10 -3 6 3 10 14 10 12 0 21 -4 21 -10z m95 -10 c3 -5 -3 -10 -14 -10 -12 0 -21 5 -21 10 0 6 6 10 14 10 8 0 18 -4 21 -10z m430 -90 c-3 -5 -13 -10 -21 -10 -8 0 -12 5 -9 10 3 6 13 10 21 10 8 0 12 -4 9 -10z m-67 -261 c-2 -6 -8 -10 -13 -10 -5 0 -11 4 -13 10 -2 6 4 11 13 11 9 0 15 -5 13 -11z m117 -69 c-3 -5 -13 -10 -21 -10 -8 0 -14 5 -14 10 0 6 9 10 21 10 11 0 17 -4 14 -10z m25 -179 c0 -5 3 -17 7 -27 4 -11 3 -15 -5 -10 -16 10 -26 -13 -12 -29 19 -22 5 -48 -19 -36 -10 6 -22 7 -25 3 -4 -4 -12 1 -17 10 -5 10 -17 14 -29 11 -21 -5 -25 3 -14 31 8 21 22 20 27 -1 3 -14 7 -11 16 11 11 28 12 28 26 10 14 -18 14 -18 15 2 0 11 3 24 7 27 9 10 23 9 23 -2z m3 -288 c3 -5 -1 -14 -9 -21 -12 -11 -14 -9 -14 8 0 20 14 27 23 13z"/>
<path d="M1458 1688 c9 -9 15 -9 24 0 9 9 7 12 -12 12 -19 0 -21 -3 -12 -12z"/>
<path d="M1304 1666 c-8 -22 3 -33 18 -18 9 9 9 15 0 24 -9 9 -13 7 -18 -6z"/>
<path d="M1627 1534 c-8 -8 1 -24 14 -24 5 0 9 7 9 15 0 15 -12 20 -23 9z"/>
<path d="M2020 1370 c0 -13 5 -20 13 -17 6 2 12 10 12 17 0 7 -6 15 -12 18 -8 2 -13 -5 -13 -18z"/>
<path d="M1973 1373 c-18 -7 -16 -23 2 -23 8 0 15 7 15 15 0 8 -1 15 -2 14 -2 0 -9 -3 -15 -6z"/>
<path d="M2090 1310 c0 -5 6 -10 14 -10 8 0 18 5 21 10 3 6 -3 10 -14 10 -12 0 -21 -4 -21 -10z"/>
<path d="M2262 1017 c-8 -9 0 -11 36 -8 40 4 43 5 22 12 -37 11 -47 10 -58 -4z"/>
<path d="M2550 725 c1 -26 2 -28 11 -12 8 14 8 22 0 30 -8 8 -11 3 -11 -18z"/>
<path d="M2627 423 c-14 -13 -6 -23 18 -23 28 0 34 15 9 24 -19 7 -19 7 -27 -1z"/>
<path d="M2826 175 c-26 -20 0 -20 34 0 22 13 23 14 5 14 -11 0 -29 -6 -39 -14z"/>
<path d="M2740 50 c0 -13 20 -13 40 0 12 8 9 10 -12 10 -16 0 -28 -4 -28 -10z"/>
</g>
<g id="layer108" fill="#f2e5c6" stroke="none">
<path d="M2260 3618 c1 -43 62 -52 68 -10 3 19 -1 22 -32 22 -22 0 -36 -5 -36 -12z"/>
<path d="M1925 2959 c10 -29 35 -69 44 -69 14 0 45 -66 43 -92 -1 -16 1 -28 6 -28 4 0 7 -24 7 -52 -1 -29 3 -59 9 -67 6 -7 11 -43 12 -80 2 -74 14 -115 41 -130 16 -9 16 -13 4 -32 -11 -19 -11 -23 3 -31 9 -5 16 -15 16 -22 0 -8 11 -13 29 -12 27 1 29 3 24 34 -4 25 -2 32 11 32 10 0 16 -9 16 -25 0 -18 5 -25 20 -25 11 0 20 5 20 10 0 6 -7 10 -15 10 -23 0 -18 18 12 46 l26 24 -26 28 c-19 19 -27 39 -27 63 0 55 -27 140 -49 156 -12 8 -21 23 -21 34 0 10 -4 19 -10 19 -5 0 -10 9 -10 19 0 10 -7 21 -15 25 -9 3 -15 18 -15 38 0 37 -24 64 -62 70 -19 2 -22 8 -20 31 2 15 -1 27 -7 27 -6 0 -11 -9 -11 -20 0 -28 -19 -25 -30 4 -12 33 -35 46 -25 15z m165 -323 c0 -27 -16 -44 -23 -24 -5 18 3 48 14 48 5 0 9 -11 9 -24z"/>
<path d="M2307 2933 c-3 -16 -3 -93 0 -173 3 -80 5 -156 4 -170 0 -14 -1 -34 -2 -45 -1 -11 0 -24 1 -30 4 -20 -2 -110 -7 -92 -2 9 -11 17 -19 17 -10 0 -14 -13 -14 -45 0 -25 5 -45 11 -45 5 0 7 5 4 10 -3 6 1 10 9 10 11 0 16 -9 16 -30 0 -23 -4 -30 -20 -30 -11 0 -20 7 -20 15 0 11 -11 15 -42 14 l-43 -1 32 -9 c31 -9 67 -45 58 -59 -3 -4 4 -15 15 -25 11 -10 20 -28 20 -41 0 -71 63 -103 89 -46 19 39 33 296 25 442 -4 69 -8 155 -9 191 -1 51 -6 72 -23 94 -20 25 -24 34 -21 51 1 10 -24 24 -42 24 -10 0 -19 -11 -22 -27z"/>
<path d="M1482 2173 c-22 -4 -21 -6 12 -24 38 -20 148 -27 175 -10 19 12 4 17 -57 19 -29 1 -62 7 -72 12 -10 6 -22 9 -27 9 -4 -1 -19 -4 -31 -6z"/>
<path d="M1496 2057 c-7 -33 5 -47 39 -47 32 0 51 16 38 32 -6 7 -11 18 -12 23 0 6 -13 13 -30 16 -26 6 -30 3 -35 -24z"/>
<path d="M1625 1034 c-11 -18 -12 -24 -3 -24 7 0 -1 -7 -17 -15 -30 -15 -44 -55 -19 -55 9 0 10 -9 3 -35 -6 -19 -7 -40 -4 -45 9 -15 27 -1 21 16 -3 8 -1 14 4 14 5 0 12 -9 15 -20 8 -24 51 -70 66 -70 6 0 7 -5 3 -11 -3 -6 -17 -8 -32 -4 -22 5 -24 4 -13 -8 9 -12 9 -16 0 -19 -15 -5 -5 -38 12 -38 8 0 8 4 -1 15 -9 11 -9 15 -1 15 6 0 19 -9 28 -20 17 -20 50 -29 38 -11 -8 14 28 31 53 24 25 -6 30 12 7 21 -8 3 -15 12 -15 21 0 8 -5 15 -11 15 -7 0 -9 9 -6 22 3 12 2 29 -3 39 -7 13 -5 22 6 33 14 15 14 16 -1 16 -12 0 -16 6 -12 20 3 14 -5 29 -29 50 -19 16 -34 32 -34 35 0 3 -9 14 -19 24 -19 19 -20 19 -36 -5z m105 -119 c0 -14 -4 -25 -10 -25 -5 0 -10 11 -10 25 0 14 5 25 10 25 6 0 10 -11 10 -25z m7 -63 c10 -17 8 -18 -13 -14 -24 4 -30 13 -17 25 10 11 17 8 30 -11z m9 -82 c0 -27 -34 -37 -54 -16 -15 15 -15 16 1 16 9 0 17 5 17 10 0 6 8 10 18 10 11 0 18 -7 18 -20z"/>
<path d="M1584 712 c4 -7 14 -12 22 -12 21 0 7 -19 -23 -31 -13 -5 -21 -14 -18 -19 5 -8 11 -7 21 1 11 9 14 8 14 -5 0 -20 14 -21 30 -1 7 9 19 14 27 11 8 -3 11 -1 8 4 -3 6 -14 10 -23 10 -15 0 -15 2 -2 10 10 6 16 6 18 0 2 -6 12 -10 22 -10 10 0 28 -9 41 -19 l24 -19 -27 -7 c-28 -7 -29 -25 -2 -25 8 0 12 5 9 10 -3 6 1 10 9 10 9 0 16 5 16 11 0 5 5 7 10 4 6 -3 10 3 10 13 0 21 -18 32 -50 32 -10 0 -20 5 -22 10 -2 6 -19 12 -38 14 -19 2 -46 8 -59 12 -17 5 -22 4 -17 -4z"/>
<path d="M1600 604 c0 -10 6 -14 15 -11 8 4 17 2 20 -2 5 -8 55 -22 55 -15 0 2 -8 13 -17 24 -21 25 -73 27 -73 4z"/>
<path d="M1690 555 c0 -12 44 -44 53 -38 6 3 7 1 3 -5 -3 -5 0 -13 6 -16 7 -3 -11 -4 -39 -1 l-53 6 0 -51 c0 -38 -4 -50 -15 -50 -9 0 -20 11 -25 25 -11 30 -30 34 -23 5 3 -11 0 -20 -6 -20 -6 0 -11 -8 -10 -17 0 -10 3 -13 6 -6 3 8 10 9 21 3 9 -5 42 -13 72 -18 49 -8 51 -10 18 -11 -25 -1 -38 -6 -38 -15 0 -8 7 -13 16 -12 11 0 18 -7 19 -22 2 -25 -10 -38 -20 -22 -8 13 -25 13 -25 -1 0 -6 9 -13 20 -16 11 -3 20 -9 20 -14 0 -5 4 -9 9 -9 5 0 7 8 4 18 -6 26 23 50 40 32 9 -10 9 -13 0 -17 -21 -8 -15 -20 17 -33 38 -16 45 -27 30 -45 -20 -24 0 -39 21 -17 12 14 26 18 40 15 19 -5 21 -3 16 17 -5 18 -3 20 6 11 7 -7 12 -17 12 -23 0 -6 6 -13 13 -15 8 -3 12 6 12 26 0 24 4 31 19 31 11 0 23 5 27 11 4 8 9 7 15 -2 8 -11 12 -10 24 5 18 24 20 59 3 53 -7 -2 -20 10 -28 27 -8 17 -25 36 -38 41 -16 7 -22 17 -20 34 2 13 -3 26 -9 28 -7 3 -13 -3 -13 -12 0 -9 -6 -15 -12 -12 -7 2 -13 12 -13 22 0 12 -8 19 -23 20 -30 2 -40 14 -22 26 11 8 7 9 -17 5 -28 -5 -33 -3 -33 14 0 15 -7 20 -25 20 -14 0 -25 4 -25 9 0 5 -7 11 -15 15 -8 3 -15 3 -15 1z"/>
<path d="M1614 329 c-10 -17 13 -36 27 -22 12 12 4 33 -11 33 -5 0 -12 -5 -16 -11z"/>
<path d="M1962 239 c-25 -8 -32 -14 -27 -28 4 -12 -2 -21 -17 -29 -23 -10 -23 -11 5 -11 23 -1 27 3 27 25 0 22 4 26 24 22 18 -4 26 0 29 14 6 20 5 20 -41 7z"/>
</g>


</svg>