<?xml version="1.0" standalone="no"?>
<!DOCTYPE svg PUBLIC "-//W3C//DTD SVG 20010904//EN"
 "http://www.w3.org/TR/2001/REC-SVG-20010904/DTD/svg10.dtd">
<svg version="1.0" xmlns="http://www.w3.org/2000/svg"
 width="640.000000pt" height="640.000000pt" viewBox="0 0 640.000000 640.000000"
 preserveAspectRatio="xMidYMid meet">

<g transform="translate(0.000000,640.000000) scale(0.100000,-0.100000)"
fill="#000000" stroke="none">
<path d="M0 3200 l0 -3200 3200 0 3200 0 0 3200 0 3200 -1377 -1 c-758 0
-1367 -5 -1353 -9 14 -4 72 -22 130 -40 58 -17 121 -39 140 -47 162 -73 260
-125 270 -143 6 -11 20 -20 30 -20 11 0 20 -4 20 -8 0 -5 12 -14 26 -20 25
-12 24 -38 -2 -28 -8 3 -11 0 -7 -10 3 -9 13 -12 24 -9 14 5 23 -3 38 -34 15
-29 17 -41 8 -44 -9 -3 -9 -9 1 -26 13 -23 3 -28 -16 -9 -9 9 -12 7 -12 -10 0
-12 6 -22 13 -22 6 0 4 -5 -6 -11 -10 -6 -51 -11 -92 -12 -58 -1 -72 -4 -64
-14 6 -7 8 -17 4 -22 -8 -14 -44 -8 -54 8 -6 9 -10 8 -15 -5 -4 -10 -2 -20 4
-24 6 -4 -11 -5 -37 -3 -91 8 -151 8 -147 1 3 -4 -2 -5 -10 -2 -9 3 -16 12
-16 19 0 9 -14 13 -42 13 -24 -1 -62 2 -85 6 -35 6 -48 4 -72 -13 -21 -15 -30
-18 -33 -9 -3 8 -9 4 -17 -10 -6 -12 -21 -22 -31 -22 -15 0 -20 -7 -20 -25 0
-14 5 -25 10 -25 6 0 10 -4 10 -10 0 -5 -13 -7 -30 -3 -23 4 -30 2 -30 -10 0
-17 33 -41 42 -31 3 3 9 -8 13 -23 4 -17 2 -29 -4 -31 -17 -6 -13 -22 5 -22
11 0 15 -6 11 -20 -6 -23 3 -26 22 -7 11 10 13 9 8 -5 -3 -10 -2 -20 3 -23 6
-4 10 -14 10 -24 0 -10 7 -24 15 -31 9 -7 14 -19 11 -26 -3 -8 4 -14 17 -16
15 -2 21 -9 19 -20 -2 -13 4 -18 23 -18 14 0 34 -9 45 -20 25 -25 30 -25 31
-2 0 14 2 14 7 2 16 -36 40 -60 54 -55 10 4 19 -4 28 -24 8 -21 22 -34 44 -39
17 -5 49 -21 70 -36 27 -18 50 -26 70 -24 26 2 32 -1 34 -19 2 -14 12 -25 26
-29 20 -5 22 -12 23 -82 2 -66 -1 -82 -22 -114 -14 -21 -25 -45 -25 -54 0 -9
-9 -18 -20 -21 -11 -3 -20 -9 -20 -14 0 -14 18 -11 44 7 17 11 26 12 31 4 4
-6 17 -15 29 -20 17 -7 17 -9 4 -9 -10 -1 -18 -5 -18 -11 0 -5 -7 -10 -15 -10
-9 0 -18 -12 -22 -30 -3 -16 -9 -30 -13 -30 -14 0 -70 -54 -70 -67 0 -15 -48
-48 -57 -39 -3 3 -1 6 6 6 7 0 9 5 6 10 -9 14 -68 13 -83 -2 -7 -7 -12 -28
-12 -47 0 -27 3 -32 10 -21 5 8 7 25 3 37 -3 14 -1 23 6 23 6 0 11 -17 11 -40
0 -29 -4 -40 -15 -40 -8 0 -15 -5 -15 -11 0 -6 -6 -9 -12 -6 -7 2 -12 8 -12
13 1 5 5 26 8 47 6 29 4 37 -8 37 -10 0 -13 -6 -10 -15 7 -18 -22 -85 -37 -85
-18 0 -20 26 -4 56 17 34 19 44 6 44 -5 0 -13 -10 -16 -22 -15 -51 -31 -79
-48 -84 -10 -3 -16 -12 -13 -19 3 -8 -3 -17 -15 -20 -10 -4 -17 -10 -14 -15 9
-15 -33 -50 -60 -50 -14 0 -24 3 -23 8 5 15 -35 62 -53 62 -10 0 -24 -9 -32
-20 -8 -12 -27 -20 -52 -22 -42 -4 -62 -28 -23 -28 l23 0 -25 -21 -25 -21 29
7 c26 5 27 4 13 -10 -18 -17 -43 -20 -52 -5 -3 6 -17 10 -31 10 -13 0 -24 -4
-24 -10 0 -5 14 -10 30 -10 17 0 30 -4 30 -10 0 -5 -13 -10 -30 -10 -16 0 -30
-5 -30 -11 0 -6 6 -9 13 -6 8 3 19 2 26 -3 8 -4 -3 -10 -27 -14 -22 -3 -48 -9
-58 -13 -13 -5 -16 -3 -11 9 4 12 1 14 -13 11 -11 -3 -22 -18 -26 -37 -3 -17
-9 -35 -13 -41 -4 -5 -13 -34 -20 -64 -16 -65 -37 -108 -44 -89 -2 7 -8 10
-12 6 -14 -13 16 -40 30 -28 11 9 11 2 4 -31 -6 -23 -12 -46 -15 -50 -2 -4 0
-11 6 -14 8 -5 7 -12 -2 -22 -10 -12 -9 -17 5 -28 23 -17 22 -28 -3 -20 -11 4
-20 2 -20 -4 0 -6 11 -13 25 -17 16 -4 25 -13 25 -25 0 -10 -3 -18 -7 -18 -35
6 -44 -18 -17 -45 10 -11 15 -37 16 -85 1 -40 6 -68 11 -64 5 3 6 -4 2 -16 -9
-30 3 -64 22 -57 13 5 14 -5 9 -76 -15 -204 -18 -402 -6 -462 11 -55 14 -291
6 -471 -4 -79 -16 -127 -31 -122 -6 3 -17 -3 -23 -13 -9 -16 -8 -20 8 -25 30
-10 24 -25 -10 -25 -20 0 -30 -5 -30 -15 0 -8 -9 -15 -19 -15 -11 0 -21 -5
-23 -12 -2 -6 -20 -12 -39 -12 -29 -1 -35 -4 -31 -18 3 -11 -3 -20 -14 -24
-11 -3 -29 -11 -41 -16 -12 -6 -40 -8 -64 -4 -24 4 -46 2 -54 -4 -27 -22 -232
-13 -262 12 -9 7 -13 7 -13 -1 0 -6 -6 -11 -14 -11 -22 0 -96 -45 -112 -69 -8
-11 -22 -21 -30 -21 -34 0 -3 -65 48 -101 24 -18 47 -21 150 -25 130 -4 154
-8 180 -31 9 -8 21 -12 26 -9 13 8 112 -86 112 -107 0 -9 5 -17 10 -17 6 0 10
-9 10 -20 0 -23 28 -27 36 -5 8 19 135 14 162 -6 9 -7 32 -26 50 -41 18 -16
43 -28 55 -28 12 0 30 -7 39 -14 17 -12 17 -16 2 -45 -15 -30 -24 -35 -51 -32
-7 1 -13 -3 -13 -9 0 -13 -162 -90 -189 -90 -10 0 -47 9 -81 20 -127 41 -285
11 -422 -78 -30 -20 -45 -23 -75 -17 -38 7 -89 40 -129 82 -12 13 -26 23 -32
23 -12 0 -22 24 -22 51 0 14 -7 19 -25 19 -18 0 -25 5 -25 19 0 11 4 23 10 26
18 11 10 26 -10 20 -12 -4 -20 -2 -20 5 0 12 -41 73 -53 78 -4 2 -4 9 1 15 5
7 12 35 15 64 5 43 3 51 -9 46 -10 -4 -14 3 -14 23 0 16 5 36 10 44 6 10 4 20
-6 31 -14 16 -12 25 22 94 21 42 37 84 36 93 -1 9 2 42 5 72 6 50 7 52 14 25
5 -20 7 -6 5 40 -2 39 -5 79 -8 90 -5 22 -32 32 -43 16 -3 -6 1 -11 9 -11 22
0 20 -29 -1 -37 -10 -4 -24 -15 -32 -26 -11 -15 -15 -16 -22 -6 -6 10 -9 11
-9 2 0 -7 -9 -13 -20 -13 -18 0 -21 -6 -20 -42 2 -57 -9 -100 -28 -115 -14
-12 -14 -13 1 -13 9 0 17 -4 17 -10 0 -5 -5 -10 -12 -10 -6 0 -3 -6 8 -14 18
-14 18 -15 -6 -25 -18 -7 -20 -10 -7 -10 9 -1 17 -4 17 -7 0 -4 -8 -13 -17
-20 -15 -11 -15 -15 -4 -23 9 -6 10 -11 2 -15 -6 -4 -11 -2 -11 4 0 6 -11 15
-25 20 -14 5 -25 15 -25 22 0 8 -3 9 -10 2 -8 -8 -8 -19 0 -38 5 -15 10 -32
10 -37 0 -14 -20 -11 -36 6 -9 8 -20 15 -25 15 -14 0 -11 -20 6 -37 24 -24 14
-48 -20 -50 -17 0 -36 -2 -44 -2 -11 -1 -8 -7 8 -25 l22 -23 -25 -16 c-13 -9
-27 -25 -31 -36 -3 -11 -19 -24 -35 -30 -24 -8 -30 -16 -30 -40 0 -16 -5 -33
-10 -36 -12 -7 -33 43 -26 61 3 8 0 11 -8 8 -7 -3 -20 -24 -30 -47 -32 -79
-41 -91 -76 -101 -32 -9 -33 -10 -10 -13 44 -6 70 -25 70 -50 0 -18 -5 -23
-26 -23 -16 0 -24 -5 -21 -12 2 -7 11 -12 20 -12 9 1 14 -2 11 -8 -3 -5 0 -15
6 -23 6 -8 8 -19 4 -26 -4 -6 -9 -41 -11 -78 -2 -36 -8 -70 -14 -76 -12 -12
-12 -35 1 -35 6 0 10 9 10 19 0 21 26 36 35 21 4 -6 17 -10 30 -10 13 0 28 -6
32 -14 9 -16 190 -30 199 -15 2 5 23 6 44 4 39 -4 40 -3 34 22 -6 22 -4 25 10
20 10 -4 29 -7 42 -7 17 0 24 -6 24 -20 0 -14 5 -18 16 -13 13 5 15 1 10 -18
-7 -23 -6 -23 8 -5 9 11 16 29 16 40 0 16 4 14 16 -11 9 -18 20 -33 25 -33 4
0 15 -7 24 -17 14 -13 18 -14 25 -3 7 12 12 12 27 -2 10 -9 33 -19 51 -23 32
-7 51 -23 205 -184 94 -97 240 -146 234 -77 -2 13 10 23 40 34 41 15 44 15 57
-3 19 -26 15 -28 -28 -17 -20 6 -36 6 -36 2 0 -5 16 -12 36 -16 39 -7 88 -44
59 -44 -30 0 -14 -17 28 -30 23 -7 46 -17 50 -20 12 -11 -75 -20 -92 -10 -8 4
-22 4 -30 -2 -11 -7 -42 -4 -96 7 -44 9 -88 16 -98 16 -10 0 -23 11 -29 25
-11 23 -38 34 -38 15 0 -5 -3 -18 -6 -28 -4 -13 -3 -15 4 -4 12 16 17 7 26
-42 5 -25 19 -49 46 -74 22 -20 40 -42 40 -50 0 -7 8 -13 19 -13 23 0 91 -73
91 -99 0 -12 9 -21 26 -25 21 -6 24 -9 14 -21 -7 -8 -17 -12 -22 -9 -20 13 4
-41 27 -61 23 -19 49 -100 39 -117 -3 -4 0 -8 5 -8 6 0 11 -12 11 -27 0 -25
-1 -26 -20 -8 -27 24 -55 13 -40 -16 9 -15 18 -19 34 -15 18 4 26 0 35 -21 8
-18 9 -29 1 -37 -12 -12 -14 -56 -2 -56 4 0 13 -13 19 -30 9 -23 8 -32 -1 -37
-7 -5 -16 -15 -19 -23 -4 -10 -6 -7 -6 8 -1 12 -7 22 -15 22 -22 0 -29 -19
-15 -37 12 -14 9 -15 -31 -9 l-45 7 28 -25 c37 -34 34 -40 -15 -32 -33 5 -39
4 -30 -6 6 -8 7 -19 3 -27 -6 -9 -11 -10 -15 -2 -4 6 -14 11 -23 11 -11 0 -14
-7 -11 -24 4 -20 0 -25 -21 -29 -14 -3 -32 0 -39 6 -10 8 -27 6 -66 -7 -44
-15 -59 -16 -96 -6 -25 7 -46 11 -48 11 -1 -1 -14 7 -29 19 -14 11 -34 20 -45
20 -11 0 -28 5 -39 10 -17 10 -20 7 -25 -20 -8 -36 -20 -39 -28 -5 -7 28 -24
33 -32 10 -9 -22 -22 -18 -26 7 -2 19 -9 23 -35 23 -31 0 -44 9 -101 67 -9 10
-26 18 -37 18 -30 0 -43 12 -60 54 -14 33 -19 37 -41 32 -13 -4 -24 -2 -24 4
0 5 5 10 10 10 6 0 10 7 10 15 0 8 -4 15 -10 15 -5 0 -10 7 -10 15 0 9 -7 27
-16 40 -9 13 -13 28 -10 33 3 6 -1 15 -9 22 -12 10 -18 10 -30 0 -12 -10 -18
-10 -30 0 -9 8 -12 17 -7 24 5 6 12 23 16 39 5 20 3 27 -8 27 -13 0 -31 -43
-27 -67 1 -6 -3 -14 -9 -18 -5 -3 -10 1 -10 9 0 8 -10 22 -21 30 -16 11 -22
25 -22 55 0 29 -4 41 -14 41 -8 0 -17 9 -20 20 -6 22 -22 25 -71 11 -17 -5
-32 -6 -32 -1 0 5 14 11 30 15 37 8 38 27 4 52 -18 13 -27 30 -28 50 -1 33
-16 59 -16 30 0 -10 -6 -17 -13 -17 -9 0 -17 25 -25 72 -6 42 -17 77 -26 83
-9 7 -13 21 -10 36 2 13 1 17 -2 9 -11 -24 -34 -43 -42 -35 -4 4 -1 10 6 12
14 5 16 33 2 33 -5 0 -10 -7 -10 -15 0 -8 -5 -15 -11 -15 -6 0 -8 -9 -4 -20 7
-21 -10 -28 -18 -7 -3 7 -6 5 -6 -5 -1 -22 -34 -24 -51 -3 -10 13 -9 15 10 15
19 0 20 2 10 15 -7 8 -19 15 -26 15 -8 0 -14 6 -14 13 0 7 -9 23 -20 35 -17
18 -18 22 -5 22 8 0 15 5 15 10 0 6 -10 10 -22 10 -22 1 -22 1 -5 14 18 14 17
15 -4 21 -17 6 -19 9 -8 16 11 7 10 11 -6 23 -18 14 -18 15 -2 16 24 0 22 20
-3 20 -12 0 -20 7 -20 18 0 9 -7 26 -15 36 -18 24 -19 46 -2 42 6 -1 9 -1 5 1
-5 3 -8 10 -8 18 0 7 -10 19 -22 28 -23 15 -23 15 -5 46 10 17 15 37 11 43 -5
7 -9 21 -9 31 -3 31 -49 49 -71 27 -5 -5 -15 -6 -22 -1 -11 7 -11 14 2 42 8
19 23 44 31 56 16 21 15 22 -19 38 -37 18 -47 35 -21 35 8 0 15 7 15 15 0 8
-4 15 -9 15 -9 0 -6 28 6 60 15 39 -18 90 -44 68 -7 -5 -17 -7 -23 -3 -15 9
-12 35 5 35 11 0 15 11 15 40 0 28 4 40 14 40 8 0 18 5 22 12 5 7 2 9 -8 5 -9
-3 -20 -1 -26 5 -8 8 -13 7 -18 -5 -3 -9 -12 -17 -19 -17 -7 0 -16 -6 -18 -12
-3 -7 -6 -1 -6 13 -1 31 20 52 43 43 9 -3 16 -1 16 5 0 6 -6 11 -12 11 -7 0
-26 11 -43 25 -30 24 -30 25 -7 31 28 8 29 24 2 24 -13 0 -24 10 -30 26 -6 14
-19 28 -29 31 -26 7 -39 72 -18 88 19 14 16 47 -5 69 -21 20 -23 37 -7 53 8 8
8 13 0 17 -6 4 -11 14 -11 23 0 8 -7 29 -15 46 -50 110 -75 247 -51 286 5 7 5
16 0 20 -11 7 -15 41 -8 61 3 8 7 71 8 140 5 173 17 304 30 313 8 5 7 10 -3
16 -9 6 -10 11 -2 15 6 4 9 11 6 16 -3 5 0 40 6 77 6 37 13 84 14 103 2 19 8
71 14 115 14 102 28 276 36 435 9 176 22 319 39 435 8 54 14 102 14 105 -2 8
23 139 42 225 33 149 43 185 51 185 5 0 9 14 9 31 0 24 4 30 15 25 9 -3 18 1
21 9 4 8 10 15 15 15 12 0 59 46 59 58 0 5 14 12 30 16 17 3 43 9 59 12 17 4
28 11 25 18 -7 18 40 39 66 31 19 -6 22 -4 17 9 -5 12 0 16 22 16 16 0 34 7
41 15 11 13 15 13 22 3 6 -10 10 -7 14 10 4 14 12 21 20 18 9 -3 14 2 14 14 0
12 11 22 35 30 19 6 35 18 35 26 0 8 7 14 16 14 11 0 13 6 9 19 -4 14 0 21 17
27 21 6 48 27 48 37 0 2 -9 15 -21 28 -13 15 -18 31 -14 46 3 15 1 23 -7 23
-10 0 -10 2 1 9 9 6 10 10 2 16 -7 3 -9 15 -6 26 4 12 1 21 -7 24 -8 3 -14 14
-15 25 -1 11 -9 30 -18 42 -17 23 -17 23 -11 -10 4 -24 2 -32 -7 -29 -6 2 -11
10 -10 18 4 24 -31 39 -66 29 -21 -6 -31 -5 -31 2 0 6 -8 4 -18 -5 -10 -10
-21 -17 -25 -17 -9 0 4 33 17 43 6 5 0 5 -14 1 -14 -4 -29 -12 -33 -18 -5 -6
-6 5 -3 24 5 29 4 31 -4 13 -5 -13 -13 -23 -18 -23 -16 0 -22 13 -12 26 6 6
10 16 9 20 -3 19 1 34 11 34 5 0 7 -8 4 -17 -5 -14 -4 -15 4 -4 5 7 7 22 4 33
-3 11 -1 23 4 27 13 9 54 68 54 78 1 8 191 196 223 220 131 100 377 223 532
267 l120 34 -102 0 c-76 -1 -111 -5 -140 -19 -42 -19 -24 -25 25 -8 17 6 37 9
44 7 6 -2 -17 -15 -53 -28 -63 -23 -81 -31 -189 -85 -145 -73 -288 -175 -390
-278 -33 -34 -60 -57 -60 -51 0 13 99 114 158 162 26 20 56 45 66 55 11 9 23
17 27 17 8 0 99 58 109 69 7 8 42 30 60 37 73 31 161 76 157 80 -3 3 -20 -1
-39 -10 -18 -8 -51 -22 -72 -31 -38 -15 -81 -41 -208 -127 -32 -21 -61 -38
-64 -38 -14 0 -224 -208 -224 -222 0 -4 5 -8 11 -8 5 0 -2 -16 -17 -35 -15
-20 -29 -33 -32 -30 -3 3 2 13 10 22 23 27 30 43 19 43 -5 0 -35 -34 -66 -76
-31 -41 -59 -73 -62 -70 -8 7 78 126 148 205 53 58 40 66 -16 11 -45 -44 -65
-42 -22 2 12 13 44 47 70 76 26 29 51 52 54 52 3 0 21 16 40 35 33 34 204 155
219 155 4 0 15 6 23 13 9 7 36 22 61 32 112 47 155 45 -998 45 l-1082 0 0
-3200z m1341 2853 c-12 -20 -14 -14 -5 12 4 9 9 14 11 11 3 -2 0 -13 -6 -23z
m170 -218 c-39 -58 -71 -113 -71 -121 0 -7 -4 -14 -10 -14 -12 0 -13 17 -1 24
5 3 12 18 16 33 3 15 18 39 32 53 14 14 30 34 35 45 23 51 58 99 65 91 3 -3
-27 -52 -66 -111z m2846 39 c-3 -3 -12 -4 -19 -1 -8 3 -5 6 6 6 11 1 17 -2 13
-5z m-377 -48 c0 -9 -30 -14 -35 -6 -4 6 3 10 14 10 12 0 21 -2 21 -4z m-342
-35 c3 -8 -1 -12 -9 -9 -7 2 -15 10 -17 17 -3 8 1 12 9 9 7 -2 15 -10 17 -17z
m-2118 -58 c-11 -17 -11 -17 -6 0 3 10 6 24 7 30 0 9 2 9 5 0 3 -7 0 -20 -6
-30z m-20 -37 c0 -3 -4 -8 -10 -11 -5 -3 -10 -1 -10 4 0 6 5 11 10 11 6 0 10
-2 10 -4z m-87 -31 c-3 -9 -8 -14 -10 -11 -3 3 -2 9 2 15 9 16 15 13 8 -4z
m147 11 c0 -3 -4 -8 -10 -11 -5 -3 -10 -1 -10 4 0 6 5 11 10 11 6 0 10 -2 10
-4z m-138 -68 c-7 -7 -12 -8 -12 -2 0 14 12 26 19 19 2 -3 -1 -11 -7 -17z
m2285 16 c-3 -3 -12 -4 -19 -1 -8 3 -5 6 6 6 11 1 17 -2 13 -5z m-2361 -101
c-8 -15 -15 -22 -16 -15 0 14 22 53 28 47 2 -2 -3 -16 -12 -32z m521 -109 c-3
-3 -12 -4 -19 -1 -8 3 -5 6 6 6 11 1 17 -2 13 -5z m-810 -526 c-3 -8 -6 -5 -6
6 -1 11 2 17 5 13 3 -3 4 -12 1 -19z m3123 -38 c0 -5 -4 -10 -10 -10 -5 0 -10
5 -10 10 0 6 5 10 10 10 6 0 10 -4 10 -10z m-190 -172 c0 -16 -3 -19 -11 -11
-6 6 -8 16 -5 22 11 17 16 13 16 -11z m10 -64 c0 -8 -5 -12 -10 -9 -6 4 -8 11
-5 16 9 14 15 11 15 -7z m-220 -85 c0 -5 -4 -9 -10 -9 -5 0 -10 7 -10 16 0 8
5 12 10 9 6 -3 10 -10 10 -16z m-160 -19 c0 -5 -9 -10 -20 -10 -11 0 -20 5
-20 10 0 6 9 10 20 10 11 0 20 -4 20 -10z m-215 -160 c4 -6 -5 -10 -19 -10
-14 0 -26 5 -26 10 0 6 9 10 19 10 11 0 23 -4 26 -10z m-55 -40 c-6 -11 -15
-18 -21 -15 -15 10 -11 23 9 28 9 3 18 5 20 6 1 0 -2 -8 -8 -19z m-2321 -36
c2 -10 9 -22 16 -27 9 -5 12 -19 8 -45 -8 -54 -24 -65 -20 -13 3 33 -1 46 -15
54 -20 13 -25 61 -5 55 6 -3 14 -13 16 -24z m60 -86 c-2 -35 -14 -74 -21 -63
-8 15 3 85 13 85 5 0 9 -10 8 -22z m-79 -13 c0 -8 -4 -15 -10 -15 -5 0 -10 7
-10 15 0 8 5 15 10 15 6 0 10 -7 10 -15z m0 -35 c0 -5 -2 -10 -4 -10 -3 0 -8
5 -11 10 -3 6 -1 10 4 10 6 0 11 -4 11 -10z m3170 -91 c0 -5 -4 -9 -10 -9 -5
0 -10 -5 -10 -11 0 -6 7 -8 15 -5 9 3 18 -1 21 -8 3 -8 21 -17 39 -20 19 -4
39 -14 43 -23 7 -12 18 -14 41 -10 27 6 33 3 43 -18 6 -14 15 -25 19 -25 15 0
39 -63 33 -86 -4 -15 -2 -24 6 -24 7 0 9 -8 5 -20 -4 -11 -2 -20 4 -20 6 0 11
5 11 10 0 6 9 10 21 10 15 0 20 -5 17 -22 -4 -27 -16 -38 -43 -38 -16 0 -17 2
-5 10 22 14 5 23 -19 10 -16 -8 -21 -8 -21 1 0 8 -10 9 -32 4 -18 -4 -42 -8
-52 -9 -23 -3 -29 -15 -17 -35 6 -8 30 -13 72 -14 35 0 58 -2 51 -5 -14 -4 19
-33 51 -45 10 -4 15 -11 12 -17 -4 -6 -11 -7 -17 -4 -13 8 -120 18 -181 16
-91 -2 -253 -72 -437 -190 -19 -12 -43 -22 -52 -22 -9 0 -21 -6 -25 -13 -4 -8
-23 -22 -40 -32 -55 -32 -41 -42 69 -49 37 -3 75 -9 86 -15 18 -10 72 -25 132
-37 14 -2 45 -11 70 -19 44 -14 82 -23 109 -24 8 -1 11 -8 8 -20 -2 -10 1 -18
7 -18 6 0 34 -1 61 -3 42 -3 45 -4 16 -7 -34 -5 -61 -23 -61 -42 0 -16 11 -13
26 7 13 16 15 16 29 -2 15 -19 15 -19 29 -1 13 18 14 18 27 -6 14 -26 13 -57
-4 -77 -9 -11 -12 -10 -19 7 -4 12 -12 21 -18 21 -14 0 -31 -46 -24 -64 3 -8
-2 -16 -13 -20 -10 -3 1 -3 25 0 27 4 42 2 42 -5 0 -6 -7 -11 -15 -11 -8 0
-19 -9 -25 -19 -8 -16 -6 -20 8 -24 9 -2 2 -2 -15 0 -40 5 -45 -19 -12 -46 12
-10 23 -30 25 -44 2 -24 0 -26 -22 -21 -15 4 -24 2 -24 -6 0 -6 4 -9 9 -5 5 3
12 1 15 -4 3 -5 -2 -12 -12 -17 -26 -11 -111 -14 -117 -3 -11 17 -23 9 -33
-21 -13 -36 -42 -31 -42 6 0 17 -6 24 -19 24 -11 0 -23 9 -26 21 -6 17 -9 19
-16 8 -6 -11 -14 -8 -36 12 -15 14 -54 40 -85 58 -32 18 -57 35 -57 39 3 20
-3 25 -12 12 -7 -10 -12 -11 -15 -3 -3 6 -13 21 -23 32 -16 18 -20 19 -25 6
-9 -24 -24 -17 -35 18 -6 17 -26 48 -44 67 -18 19 -36 43 -40 53 -3 9 -11 17
-17 17 -5 0 -10 7 -10 16 0 8 -4 13 -9 10 -9 -6 -51 56 -51 75 0 6 -7 18 -16
26 -15 15 -14 18 6 33 l23 17 -26 7 c-14 3 -33 13 -41 22 -17 17 -22 69 -6 59
6 -3 10 -18 10 -32 0 -20 3 -23 13 -14 8 6 17 8 20 4 4 -3 7 5 7 18 0 13 3 35
5 49 5 24 5 24 -4 3 -7 -15 -16 -21 -26 -17 -17 7 -20 30 -4 39 5 4 9 17 8 28
-2 38 0 46 23 69 12 12 23 29 25 36 1 8 11 21 22 29 13 9 21 25 21 43 0 20 4
28 13 24 7 -2 17 8 24 26 7 18 19 30 30 30 17 1 17 1 0 11 -23 13 -13 29 18
29 22 0 24 3 19 30 -4 20 -2 30 5 30 18 0 38 23 33 38 -2 6 2 12 8 12 7 0 10
6 7 14 -6 15 67 51 83 41 5 -3 12 -1 15 5 4 6 15 8 25 5 10 -3 20 0 23 8 5 14
46 26 100 30 16 1 34 10 41 20 14 19 36 23 36 7 0 -15 26 -12 39 4 12 15 61
19 61 5z m-3156 -81 c-2 -113 -3 -128 -12 -128 -5 0 -8 33 -6 73 2 39 3 84 3
100 1 15 5 27 9 27 4 0 7 -33 6 -72z m3253 36 c-3 -3 -12 -4 -19 -1 -8 3 -5 6
6 6 11 1 17 -2 13 -5z m-3220 -181 c-3 -10 -5 -4 -5 12 0 17 2 24 5 18 2 -7 2
-21 0 -30z m3463 -27 c0 -3 -4 -8 -10 -11 -5 -3 -10 -1 -10 4 0 6 5 11 10 11
6 0 10 -2 10 -4z m-3473 -53 c-3 -10 -5 -4 -5 12 0 17 2 24 5 18 2 -7 2 -21 0
-30z m-53 13 c-3 -8 -15 -16 -26 -19 -12 -3 -17 -10 -13 -17 4 -6 -1 -18 -11
-25 -11 -9 -14 -14 -6 -15 23 0 12 -28 -14 -33 -22 -4 -25 -2 -20 16 3 12 -2
29 -11 39 -9 10 -14 19 -12 21 78 46 123 59 113 33z m3346 -30 c0 -3 -4 -8
-10 -11 -5 -3 -10 -1 -10 4 0 6 5 11 10 11 6 0 10 -2 10 -4z m-3393 -137 c1
-21 -2 -41 -6 -44 -10 -6 -24 72 -15 86 10 17 19 0 21 -42z m3330 -365 c-3 -3
-12 -4 -19 -1 -8 3 -5 6 6 6 11 1 17 -2 13 -5z m-2037 -984 c0 -5 -7 -10 -16
-10 -8 0 -12 5 -9 10 3 6 10 10 16 10 5 0 9 -4 9 -10z m0 -90 c0 -5 -4 -10
-10 -10 -5 0 -10 5 -10 10 0 6 5 10 10 10 6 0 10 -4 10 -10z m-145 -80 c-3 -5
-13 -10 -21 -10 -8 0 -14 5 -14 10 0 6 9 10 21 10 11 0 17 -4 14 -10z m-834
-333 c-1 -12 -15 -9 -19 4 -3 6 1 10 8 8 6 -3 11 -8 11 -12z m1109 -17 c0 -11
-4 -20 -10 -20 -5 0 -10 9 -10 20 0 11 5 20 10 20 6 0 10 -9 10 -20z m-525
-210 c-23 -9 -41 3 -31 19 5 8 13 8 29 -1 21 -11 21 -11 2 -18z m1185 -50 c11
-7 7 -10 -17 -10 -18 0 -33 5 -33 10 0 13 30 13 50 0z m95 -330 c3 -5 -1 -10
-10 -10 -9 0 -13 5 -10 10 3 6 8 10 10 10 2 0 7 -4 10 -10z m-40 -20 c-3 -5
-13 -10 -21 -10 -8 0 -14 5 -14 10 0 6 9 10 21 10 11 0 17 -4 14 -10z m158 3
c-7 -2 -21 -2 -30 0 -10 3 -4 5 12 5 17 0 24 -2 18 -5z m-1563 -183 c0 -11 -7
-20 -15 -20 -18 0 -19 12 -3 28 16 16 18 15 18 -8z m-53 -46 c-3 -3 -12 -4
-19 -1 -8 3 -5 6 6 6 11 1 17 -2 13 -5z m1363 -204 c0 -5 -4 -10 -10 -10 -5 0
-10 5 -10 10 0 6 5 10 10 10 6 0 10 -4 10 -10z m-1110 -71 c0 -5 -9 -9 -20 -9
-22 0 -27 16 -7 23 15 5 27 -1 27 -14z m1180 -29 c0 -5 -4 -10 -10 -10 -5 0
-10 5 -10 10 0 6 5 10 10 10 6 0 10 -4 10 -10z m257 -16 c-3 -3 -12 -4 -19 -1
-8 3 -5 6 6 6 11 1 17 -2 13 -5z m-262 -14 c3 -5 1 -10 -4 -10 -6 0 -11 5 -11
10 0 6 2 10 4 10 3 0 8 -4 11 -10z m287 -32 c10 -10 18 -22 18 -28 0 -5 7 -10
15 -10 8 0 15 -9 15 -19 0 -28 11 -52 20 -46 13 8 6 -35 -10 -68 -7 -15 -21
-27 -29 -26 -31 3 -40 -1 -46 -20 -12 -38 -92 -31 -102 9 -6 22 -19 27 -25 9
-2 -6 -14 -8 -31 -4 -20 5 -27 13 -27 31 0 13 -4 24 -9 24 -5 0 -12 8 -14 18
-4 14 -5 13 -6 -4 0 -11 -7 -29 -15 -40 -13 -17 -15 -17 -21 -2 -4 10 4 35 19
61 24 40 32 46 72 52 42 6 45 8 40 31 -6 22 -4 24 18 18 21 -5 26 -2 32 20 5
22 10 24 37 19 16 -3 38 -14 49 -25z m-232 -8 c0 -5 -9 -10 -19 -10 -11 0 -23
5 -26 10 -4 6 5 10 19 10 14 0 26 -4 26 -10z m40 -10 c0 -11 -4 -20 -10 -20
-5 0 -10 9 -10 20 0 11 5 20 10 20 6 0 10 -9 10 -20z m40 1 c0 -6 -4 -13 -10
-16 -5 -3 -10 1 -10 9 0 9 5 16 10 16 6 0 10 -4 10 -9z"/>
<path d="M4240 3730 c0 -5 7 -10 15 -10 8 0 15 5 15 10 0 6 -7 10 -15 10 -8 0
-15 -4 -15 -10z"/>
<path d="M3511 3454 c0 -11 3 -14 6 -6 3 7 2 16 -1 19 -3 4 -6 -2 -5 -13z"/>
<path d="M3761 3074 c0 -11 3 -14 6 -6 3 7 2 16 -1 19 -3 4 -6 -2 -5 -13z"/>
<path d="M3280 501 c0 -5 -8 -12 -17 -14 -15 -4 -15 -5 -2 -6 9 0 22 6 29 14
9 10 9 15 1 15 -6 0 -11 -4 -11 -9z"/>
<path d="M3120 430 c0 -5 12 -10 28 -10 21 0 24 2 12 10 -20 13 -40 13 -40 0z"/>
<path d="M3175 390 c4 -6 11 -8 16 -5 14 9 11 15 -7 15 -8 0 -12 -5 -9 -10z"/>
<path d="M2110 6346 c-135 -67 -263 -153 -348 -232 -69 -64 -86 -98 -20 -41
41 36 67 57 90 72 9 6 46 34 84 63 61 47 276 161 344 183 23 7 22 7 -10 8 -23
0 -72 -18 -140 -53z"/>
<path d="M4240 6090 c0 -5 5 -10 10 -10 6 0 10 5 10 10 0 6 -4 10 -10 10 -5 0
-10 -4 -10 -10z"/>
<path d="M4278 5983 c7 -3 16 -2 19 1 4 3 -2 6 -13 5 -11 0 -14 -3 -6 -6z"/>
<path d="M3540 5696 c0 -9 5 -16 10 -16 6 0 10 4 10 9 0 6 -4 13 -10 16 -5 3
-10 -1 -10 -9z"/>
<path d="M1850 5600 c8 -5 20 -10 25 -10 6 0 3 5 -5 10 -8 5 -19 10 -25 10 -5
0 -3 -5 5 -10z"/>
<path d="M1877 5483 c-4 -3 -7 -11 -7 -17 0 -6 5 -5 12 2 6 6 9 14 7 17 -3 3
-9 2 -12 -2z"/>
<path d="M1751 5264 c0 -11 3 -14 6 -6 3 7 2 16 -1 19 -3 4 -6 -2 -5 -13z"/>
<path d="M3985 4910 c3 -5 8 -10 11 -10 2 0 4 5 4 10 0 6 -5 10 -11 10 -5 0
-7 -4 -4 -10z"/>
<path d="M4036 4903 c-11 -11 -6 -23 9 -23 8 0 15 4 15 9 0 13 -16 22 -24 14z"/>
<path d="M4070 4901 c0 -5 5 -13 10 -16 6 -3 10 -2 10 4 0 5 -4 13 -10 16 -5
3 -10 2 -10 -4z"/>
<path d="M4168 4903 c7 -3 16 -2 19 1 4 3 -2 6 -13 5 -11 0 -14 -3 -6 -6z"/>
<path d="M4076 4844 c-4 -10 -1 -14 6 -12 15 5 23 28 10 28 -5 0 -13 -7 -16
-16z"/>
<path d="M2600 4290 c0 -5 5 -10 11 -10 5 0 7 5 4 10 -3 6 -8 10 -11 10 -2 0
-4 -4 -4 -10z"/>
<path d="M2420 4210 c0 -6 -7 -18 -15 -26 -17 -18 -20 -34 -5 -34 6 0 10 -11
10 -25 0 -14 -4 -25 -10 -25 -5 0 -10 9 -10 20 0 11 -4 20 -10 20 -5 0 -10 -9
-10 -20 0 -11 -4 -20 -10 -20 -5 0 -10 8 -10 17 0 13 -3 14 -12 5 -8 -8 -8
-15 2 -27 8 -9 8 -15 2 -15 -6 0 -14 5 -17 10 -7 12 -25 13 -25 2 0 -4 10 -12
23 -17 12 -6 21 -17 21 -26 -1 -11 5 -15 17 -12 11 3 21 9 24 13 3 5 14 6 24
3 16 -4 19 -1 14 16 -3 12 -1 21 6 21 6 0 11 -7 11 -15 0 -8 7 -15 15 -15 8 0
15 5 15 10 0 6 5 10 12 10 9 0 9 -3 0 -12 -7 -7 -12 -21 -11 -32 0 -15 2 -17
6 -6 4 8 16 22 27 32 17 14 18 19 7 27 -16 10 -6 31 15 31 9 0 14 7 12 18 -3
13 -13 17 -41 16 -33 -1 -35 0 -20 12 16 11 16 14 3 27 -21 20 -60 31 -60 17z
m23 -34 c3 -8 -1 -17 -9 -20 -9 -4 -14 1 -14 14 0 23 15 27 23 6z"/>
<path d="M2342 4169 c2 -7 10 -15 17 -17 8 -3 12 1 9 9 -2 7 -10 15 -17 17 -8
3 -12 -1 -9 -9z"/>
<path d="M2550 4110 c0 -5 5 -10 10 -10 6 0 10 5 10 10 0 6 -4 10 -10 10 -5 0
-10 -4 -10 -10z"/>
<path d="M3210 3940 c0 -5 7 -10 15 -10 8 0 15 5 15 10 0 6 -7 10 -15 10 -8 0
-15 -4 -15 -10z"/>
<path d="M1934 3601 c-109 -18 -156 -32 -299 -86 -131 -51 -220 -76 -294 -85
-40 -5 -76 -12 -79 -15 -14 -13 31 -40 71 -41 23 -1 67 -5 97 -8 30 -3 77 -8
103 -11 27 -3 52 -7 57 -10 4 -2 54 -5 111 -6 57 0 115 -3 128 -7 l25 -5 -24
-9 c-12 -5 -21 -10 -19 -12 2 -2 43 -6 92 -10 48 -3 95 -10 106 -15 11 -6 38
-7 72 -2 30 5 65 7 79 4 26 -5 108 14 125 28 5 5 22 9 37 9 16 0 27 5 26 11
-2 6 3 14 10 16 6 3 12 -2 12 -11 0 -9 6 -16 14 -16 19 0 32 20 14 20 -8 1 -7
4 4 10 9 6 46 12 83 15 63 5 111 13 127 22 13 7 -5 35 -29 44 -13 5 -21 13
-18 19 3 5 -1 10 -9 10 -9 0 -16 7 -16 15 0 8 -9 15 -20 15 -11 0 -95 28 -187
61 -194 72 -234 76 -399 50z m21 -261 c3 -5 -3 -10 -15 -10 -12 0 -18 5 -15
10 3 6 10 10 15 10 5 0 12 -4 15 -10z m273 5 c-2 -3 -24 -7 -49 -9 -24 -3 -44
-5 -44 -6 0 -1 -34 -3 -75 -4 -78 -4 -107 2 -74 15 21 8 250 12 242 4z m75 -2
c-13 -2 -33 -2 -45 0 -13 2 -3 4 22 4 25 0 35 -2 23 -4z m-403 -13 c0 -5 -7
-10 -15 -10 -8 0 -15 5 -15 10 0 6 7 10 15 10 8 0 15 -4 15 -10z"/>
<path d="M2435 3340 c-3 -5 1 -10 10 -10 9 0 13 5 10 10 -3 6 -8 10 -10 10 -2
0 -7 -4 -10 -10z"/>
<path d="M2316 2643 c-3 -3 -1 -14 5 -25 11 -20 29 -16 29 7 0 14 -24 27 -34
18z"/>
<path d="M2370 2601 c0 -16 -3 -36 -6 -45 -3 -9 -2 -16 2 -16 11 0 34 71 28
82 -11 18 -24 6 -24 -21z"/>
<path d="M2141 2283 c-7 -8 -11 -16 -8 -19 2 -2 10 2 17 11 17 20 9 27 -9 8z"/>
<path d="M1131 2191 c-12 -8 -9 -11 12 -17 30 -7 43 -1 32 15 -8 13 -25 14
-44 2z"/>
<path d="M1996 2171 c-4 -5 3 -7 14 -4 23 6 26 13 6 13 -8 0 -17 -4 -20 -9z"/>
<path d="M1760 1877 c0 -27 13 -36 26 -16 3 6 -1 18 -10 27 -15 15 -16 14 -16
-11z"/>
<path d="M1675 1860 c-10 -16 9 -33 30 -28 16 3 15 5 -3 21 -14 13 -22 15 -27
7z"/>
<path d="M1677 1738 c-3 -10 11 -13 51 -12 34 0 57 5 60 12 5 17 -104 16 -111
0z"/>
<path d="M1537 1714 c-8 -8 1 -24 14 -24 5 0 9 7 9 15 0 15 -12 20 -23 9z"/>
<path d="M1345 1702 c-13 -14 -2 -22 31 -22 19 0 33 4 30 9 -7 10 -53 20 -61
13z"/>
<path d="M1675 1690 c-3 -6 1 -7 9 -4 18 7 21 14 7 14 -6 0 -13 -4 -16 -10z"/>
<path d="M1715 1650 c4 -6 11 -8 16 -5 14 9 11 15 -7 15 -8 0 -12 -5 -9 -10z"/>
<path d="M1375 1640 c-7 -11 39 -25 54 -15 6 3 11 10 11 16 0 12 -57 12 -65
-1z"/>
<path d="M1380 1550 c0 -23 4 -30 20 -30 16 0 20 7 20 30 0 23 -4 30 -20 30
-16 0 -20 -7 -20 -30z"/>
<path d="M1720 1531 c0 -5 9 -11 20 -14 24 -6 27 8 4 17 -21 8 -24 8 -24 -3z"/>
<path d="M1528 1513 c7 -3 16 -2 19 1 4 3 -2 6 -13 5 -11 0 -14 -3 -6 -6z"/>
<path d="M1520 1470 c0 -5 9 -10 20 -10 11 0 20 5 20 10 0 6 -9 10 -20 10 -11
0 -20 -4 -20 -10z"/>
<path d="M1840 1430 c0 -21 7 -25 27 -12 9 6 7 11 -7 20 -17 11 -20 10 -20 -8z"/>
<path d="M1784 1427 c-21 -12 -21 -12 -3 -42 18 -28 19 -28 19 -7 0 12 7 25
15 28 18 7 20 34 3 34 -7 -1 -22 -6 -34 -13z"/>
<path d="M2025 1420 c-10 -16 7 -31 23 -21 10 6 10 10 -2 20 -10 9 -16 9 -21
1z"/>
<path d="M1456 1365 c-3 -8 -1 -15 3 -15 5 0 11 7 15 15 3 8 1 15 -3 15 -5 0
-11 -7 -15 -15z"/>
<path d="M1510 1374 c0 -11 29 -34 34 -26 2 4 -4 13 -15 20 -10 7 -19 10 -19
6z"/>
<path d="M2960 520 c0 -5 7 -10 16 -10 8 0 12 5 9 10 -3 6 -10 10 -16 10 -5 0
-9 -4 -9 -10z"/>
<path d="M3021 311 c-10 -6 -10 -10 -1 -16 13 -8 24 -1 19 14 -3 6 -10 7 -18
2z"/>
</g>
</svg>
